G04 #@! TF.GenerationSoftware,KiCad,Pcbnew,5.1.10-6.fc33*
G04 #@! TF.CreationDate,2021-10-31T18:09:00+00:00*
G04 #@! TF.ProjectId,vl670,766c3637-302e-46b6-9963-61645f706362,rev?*
G04 #@! TF.SameCoordinates,Original*
G04 #@! TF.FileFunction,Paste,Top*
G04 #@! TF.FilePolarity,Positive*
%FSLAX46Y46*%
G04 Gerber Fmt 4.6, Leading zero omitted, Abs format (unit mm)*
G04 Created by KiCad (PCBNEW 5.1.10-6.fc33) date 2021-10-31 18:09:00*
%MOMM*%
%LPD*%
G01*
G04 APERTURE LIST*
%ADD10R,0.500000X0.250000*%
%ADD11R,0.250000X0.500000*%
%ADD12R,1.600000X0.700000*%
%ADD13R,0.750000X0.250000*%
%ADD14R,1.560000X0.650000*%
%ADD15R,1.400000X1.200000*%
%ADD16C,1.000000*%
%ADD17C,0.500000*%
G04 APERTURE END LIST*
G04 #@! TO.C,R1*
G36*
G01*
X195175000Y-133059277D02*
X195175000Y-133534277D01*
G75*
G02*
X194937500Y-133771777I-237500J0D01*
G01*
X194437500Y-133771777D01*
G75*
G02*
X194200000Y-133534277I0J237500D01*
G01*
X194200000Y-133059277D01*
G75*
G02*
X194437500Y-132821777I237500J0D01*
G01*
X194937500Y-132821777D01*
G75*
G02*
X195175000Y-133059277I0J-237500D01*
G01*
G37*
G36*
G01*
X197000000Y-133059277D02*
X197000000Y-133534277D01*
G75*
G02*
X196762500Y-133771777I-237500J0D01*
G01*
X196262500Y-133771777D01*
G75*
G02*
X196025000Y-133534277I0J237500D01*
G01*
X196025000Y-133059277D01*
G75*
G02*
X196262500Y-132821777I237500J0D01*
G01*
X196762500Y-132821777D01*
G75*
G02*
X197000000Y-133059277I0J-237500D01*
G01*
G37*
G04 #@! TD*
G04 #@! TO.C,R2*
G36*
G01*
X195175000Y-134539277D02*
X195175000Y-135014277D01*
G75*
G02*
X194937500Y-135251777I-237500J0D01*
G01*
X194437500Y-135251777D01*
G75*
G02*
X194200000Y-135014277I0J237500D01*
G01*
X194200000Y-134539277D01*
G75*
G02*
X194437500Y-134301777I237500J0D01*
G01*
X194937500Y-134301777D01*
G75*
G02*
X195175000Y-134539277I0J-237500D01*
G01*
G37*
G36*
G01*
X197000000Y-134539277D02*
X197000000Y-135014277D01*
G75*
G02*
X196762500Y-135251777I-237500J0D01*
G01*
X196262500Y-135251777D01*
G75*
G02*
X196025000Y-135014277I0J237500D01*
G01*
X196025000Y-134539277D01*
G75*
G02*
X196262500Y-134301777I237500J0D01*
G01*
X196762500Y-134301777D01*
G75*
G02*
X197000000Y-134539277I0J-237500D01*
G01*
G37*
G04 #@! TD*
G04 #@! TO.C,D4*
G36*
G01*
X189610000Y-123125000D02*
X189985000Y-123125000D01*
G75*
G02*
X190047500Y-123187500I0J-62500D01*
G01*
X190047500Y-123312500D01*
G75*
G02*
X189985000Y-123375000I-62500J0D01*
G01*
X189610000Y-123375000D01*
G75*
G02*
X189547500Y-123312500I0J62500D01*
G01*
X189547500Y-123187500D01*
G75*
G02*
X189610000Y-123125000I62500J0D01*
G01*
G37*
G36*
G01*
X190415000Y-123125000D02*
X190790000Y-123125000D01*
G75*
G02*
X190852500Y-123187500I0J-62500D01*
G01*
X190852500Y-123312500D01*
G75*
G02*
X190790000Y-123375000I-62500J0D01*
G01*
X190415000Y-123375000D01*
G75*
G02*
X190352500Y-123312500I0J62500D01*
G01*
X190352500Y-123187500D01*
G75*
G02*
X190415000Y-123125000I62500J0D01*
G01*
G37*
D10*
X189797500Y-122750000D03*
X189797500Y-122250000D03*
X189797500Y-123750000D03*
X190602500Y-122250000D03*
X190602500Y-122750000D03*
X189797500Y-124250000D03*
X190602500Y-124250000D03*
X190602500Y-123750000D03*
G04 #@! TD*
G04 #@! TO.C,D1*
G36*
G01*
X183875000Y-133590000D02*
X183875000Y-133215000D01*
G75*
G02*
X183937500Y-133152500I62500J0D01*
G01*
X184062500Y-133152500D01*
G75*
G02*
X184125000Y-133215000I0J-62500D01*
G01*
X184125000Y-133590000D01*
G75*
G02*
X184062500Y-133652500I-62500J0D01*
G01*
X183937500Y-133652500D01*
G75*
G02*
X183875000Y-133590000I0J62500D01*
G01*
G37*
G36*
G01*
X183875000Y-132785000D02*
X183875000Y-132410000D01*
G75*
G02*
X183937500Y-132347500I62500J0D01*
G01*
X184062500Y-132347500D01*
G75*
G02*
X184125000Y-132410000I0J-62500D01*
G01*
X184125000Y-132785000D01*
G75*
G02*
X184062500Y-132847500I-62500J0D01*
G01*
X183937500Y-132847500D01*
G75*
G02*
X183875000Y-132785000I0J62500D01*
G01*
G37*
D11*
X183500000Y-133402500D03*
X183000000Y-133402500D03*
X184500000Y-133402500D03*
X183000000Y-132597500D03*
X183500000Y-132597500D03*
X185000000Y-133402500D03*
X185000000Y-132597500D03*
X184500000Y-132597500D03*
G04 #@! TD*
G04 #@! TO.C,C2*
G36*
G01*
X195275000Y-129762500D02*
X195275000Y-130237500D01*
G75*
G02*
X195037500Y-130475000I-237500J0D01*
G01*
X194437500Y-130475000D01*
G75*
G02*
X194200000Y-130237500I0J237500D01*
G01*
X194200000Y-129762500D01*
G75*
G02*
X194437500Y-129525000I237500J0D01*
G01*
X195037500Y-129525000D01*
G75*
G02*
X195275000Y-129762500I0J-237500D01*
G01*
G37*
G36*
G01*
X197000000Y-129762500D02*
X197000000Y-130237500D01*
G75*
G02*
X196762500Y-130475000I-237500J0D01*
G01*
X196162500Y-130475000D01*
G75*
G02*
X195925000Y-130237500I0J237500D01*
G01*
X195925000Y-129762500D01*
G75*
G02*
X196162500Y-129525000I237500J0D01*
G01*
X196762500Y-129525000D01*
G75*
G02*
X197000000Y-129762500I0J-237500D01*
G01*
G37*
G04 #@! TD*
G04 #@! TO.C,C1*
G36*
G01*
X195275000Y-128262500D02*
X195275000Y-128737500D01*
G75*
G02*
X195037500Y-128975000I-237500J0D01*
G01*
X194437500Y-128975000D01*
G75*
G02*
X194200000Y-128737500I0J237500D01*
G01*
X194200000Y-128262500D01*
G75*
G02*
X194437500Y-128025000I237500J0D01*
G01*
X195037500Y-128025000D01*
G75*
G02*
X195275000Y-128262500I0J-237500D01*
G01*
G37*
G36*
G01*
X197000000Y-128262500D02*
X197000000Y-128737500D01*
G75*
G02*
X196762500Y-128975000I-237500J0D01*
G01*
X196162500Y-128975000D01*
G75*
G02*
X195925000Y-128737500I0J237500D01*
G01*
X195925000Y-128262500D01*
G75*
G02*
X196162500Y-128025000I237500J0D01*
G01*
X196762500Y-128025000D01*
G75*
G02*
X197000000Y-128262500I0J-237500D01*
G01*
G37*
G04 #@! TD*
G04 #@! TO.C,R24*
G36*
G01*
X229737500Y-112537500D02*
X229737500Y-112062500D01*
G75*
G02*
X229975000Y-111825000I237500J0D01*
G01*
X230475000Y-111825000D01*
G75*
G02*
X230712500Y-112062500I0J-237500D01*
G01*
X230712500Y-112537500D01*
G75*
G02*
X230475000Y-112775000I-237500J0D01*
G01*
X229975000Y-112775000D01*
G75*
G02*
X229737500Y-112537500I0J237500D01*
G01*
G37*
G36*
G01*
X227912500Y-112537500D02*
X227912500Y-112062500D01*
G75*
G02*
X228150000Y-111825000I237500J0D01*
G01*
X228650000Y-111825000D01*
G75*
G02*
X228887500Y-112062500I0J-237500D01*
G01*
X228887500Y-112537500D01*
G75*
G02*
X228650000Y-112775000I-237500J0D01*
G01*
X228150000Y-112775000D01*
G75*
G02*
X227912500Y-112537500I0J237500D01*
G01*
G37*
G04 #@! TD*
G04 #@! TO.C,D20*
G36*
G01*
X219462500Y-124000000D02*
X219937500Y-124000000D01*
G75*
G02*
X220175000Y-124237500I0J-237500D01*
G01*
X220175000Y-124812500D01*
G75*
G02*
X219937500Y-125050000I-237500J0D01*
G01*
X219462500Y-125050000D01*
G75*
G02*
X219225000Y-124812500I0J237500D01*
G01*
X219225000Y-124237500D01*
G75*
G02*
X219462500Y-124000000I237500J0D01*
G01*
G37*
G36*
G01*
X219462500Y-122250000D02*
X219937500Y-122250000D01*
G75*
G02*
X220175000Y-122487500I0J-237500D01*
G01*
X220175000Y-123062500D01*
G75*
G02*
X219937500Y-123300000I-237500J0D01*
G01*
X219462500Y-123300000D01*
G75*
G02*
X219225000Y-123062500I0J237500D01*
G01*
X219225000Y-122487500D01*
G75*
G02*
X219462500Y-122250000I237500J0D01*
G01*
G37*
G04 #@! TD*
G04 #@! TO.C,R22*
G36*
G01*
X217575000Y-125937500D02*
X217575000Y-125462500D01*
G75*
G02*
X217812500Y-125225000I237500J0D01*
G01*
X218312500Y-125225000D01*
G75*
G02*
X218550000Y-125462500I0J-237500D01*
G01*
X218550000Y-125937500D01*
G75*
G02*
X218312500Y-126175000I-237500J0D01*
G01*
X217812500Y-126175000D01*
G75*
G02*
X217575000Y-125937500I0J237500D01*
G01*
G37*
G36*
G01*
X215750000Y-125937500D02*
X215750000Y-125462500D01*
G75*
G02*
X215987500Y-125225000I237500J0D01*
G01*
X216487500Y-125225000D01*
G75*
G02*
X216725000Y-125462500I0J-237500D01*
G01*
X216725000Y-125937500D01*
G75*
G02*
X216487500Y-126175000I-237500J0D01*
G01*
X215987500Y-126175000D01*
G75*
G02*
X215750000Y-125937500I0J237500D01*
G01*
G37*
G04 #@! TD*
D12*
G04 #@! TO.C,J4*
X222865000Y-126890000D03*
X222865000Y-125890000D03*
X222865000Y-124890000D03*
X222865000Y-123890000D03*
X222865000Y-122890000D03*
X222865000Y-121890000D03*
X222865000Y-120890000D03*
X222865000Y-119890000D03*
X222865000Y-118890000D03*
G04 #@! TD*
G04 #@! TO.C,D6*
G36*
G01*
X220590000Y-120267000D02*
X220215000Y-120267000D01*
G75*
G02*
X220152500Y-120204500I0J62500D01*
G01*
X220152500Y-120079500D01*
G75*
G02*
X220215000Y-120017000I62500J0D01*
G01*
X220590000Y-120017000D01*
G75*
G02*
X220652500Y-120079500I0J-62500D01*
G01*
X220652500Y-120204500D01*
G75*
G02*
X220590000Y-120267000I-62500J0D01*
G01*
G37*
G36*
G01*
X219785000Y-120267000D02*
X219410000Y-120267000D01*
G75*
G02*
X219347500Y-120204500I0J62500D01*
G01*
X219347500Y-120079500D01*
G75*
G02*
X219410000Y-120017000I62500J0D01*
G01*
X219785000Y-120017000D01*
G75*
G02*
X219847500Y-120079500I0J-62500D01*
G01*
X219847500Y-120204500D01*
G75*
G02*
X219785000Y-120267000I-62500J0D01*
G01*
G37*
D10*
X220402500Y-120642000D03*
X220402500Y-121142000D03*
X220402500Y-119642000D03*
X219597500Y-121142000D03*
X219597500Y-120642000D03*
X220402500Y-119142000D03*
X219597500Y-119142000D03*
X219597500Y-119642000D03*
G04 #@! TD*
G04 #@! TO.C,D3*
G36*
G01*
X219410000Y-126938500D02*
X219785000Y-126938500D01*
G75*
G02*
X219847500Y-127001000I0J-62500D01*
G01*
X219847500Y-127126000D01*
G75*
G02*
X219785000Y-127188500I-62500J0D01*
G01*
X219410000Y-127188500D01*
G75*
G02*
X219347500Y-127126000I0J62500D01*
G01*
X219347500Y-127001000D01*
G75*
G02*
X219410000Y-126938500I62500J0D01*
G01*
G37*
G36*
G01*
X220215000Y-126938500D02*
X220590000Y-126938500D01*
G75*
G02*
X220652500Y-127001000I0J-62500D01*
G01*
X220652500Y-127126000D01*
G75*
G02*
X220590000Y-127188500I-62500J0D01*
G01*
X220215000Y-127188500D01*
G75*
G02*
X220152500Y-127126000I0J62500D01*
G01*
X220152500Y-127001000D01*
G75*
G02*
X220215000Y-126938500I62500J0D01*
G01*
G37*
X219597500Y-126563500D03*
X219597500Y-126063500D03*
X219597500Y-127563500D03*
X220402500Y-126063500D03*
X220402500Y-126563500D03*
X219597500Y-128063500D03*
X220402500Y-128063500D03*
X220402500Y-127563500D03*
G04 #@! TD*
D13*
G04 #@! TO.C,U3*
X210950000Y-115250000D03*
X210950000Y-115750000D03*
X210950000Y-116250000D03*
X210950000Y-116750000D03*
X214050000Y-116750000D03*
X214050000Y-116250000D03*
X214050000Y-115750000D03*
X214050000Y-115250000D03*
G04 #@! TD*
G04 #@! TO.C,U5*
X209550000Y-115250000D03*
X209550000Y-115750000D03*
X209550000Y-116250000D03*
X209550000Y-116750000D03*
X206450000Y-116750000D03*
X206450000Y-116250000D03*
X206450000Y-115750000D03*
X206450000Y-115250000D03*
G04 #@! TD*
G04 #@! TO.C,R15*
G36*
G01*
X214025000Y-120737500D02*
X214025000Y-120262500D01*
G75*
G02*
X214262500Y-120025000I237500J0D01*
G01*
X214762500Y-120025000D01*
G75*
G02*
X215000000Y-120262500I0J-237500D01*
G01*
X215000000Y-120737500D01*
G75*
G02*
X214762500Y-120975000I-237500J0D01*
G01*
X214262500Y-120975000D01*
G75*
G02*
X214025000Y-120737500I0J237500D01*
G01*
G37*
G36*
G01*
X212200000Y-120737500D02*
X212200000Y-120262500D01*
G75*
G02*
X212437500Y-120025000I237500J0D01*
G01*
X212937500Y-120025000D01*
G75*
G02*
X213175000Y-120262500I0J-237500D01*
G01*
X213175000Y-120737500D01*
G75*
G02*
X212937500Y-120975000I-237500J0D01*
G01*
X212437500Y-120975000D01*
G75*
G02*
X212200000Y-120737500I0J237500D01*
G01*
G37*
G04 #@! TD*
G04 #@! TO.C,C9*
G36*
G01*
X215712500Y-118225000D02*
X216187500Y-118225000D01*
G75*
G02*
X216425000Y-118462500I0J-237500D01*
G01*
X216425000Y-119062500D01*
G75*
G02*
X216187500Y-119300000I-237500J0D01*
G01*
X215712500Y-119300000D01*
G75*
G02*
X215475000Y-119062500I0J237500D01*
G01*
X215475000Y-118462500D01*
G75*
G02*
X215712500Y-118225000I237500J0D01*
G01*
G37*
G36*
G01*
X215712500Y-116500000D02*
X216187500Y-116500000D01*
G75*
G02*
X216425000Y-116737500I0J-237500D01*
G01*
X216425000Y-117337500D01*
G75*
G02*
X216187500Y-117575000I-237500J0D01*
G01*
X215712500Y-117575000D01*
G75*
G02*
X215475000Y-117337500I0J237500D01*
G01*
X215475000Y-116737500D01*
G75*
G02*
X215712500Y-116500000I237500J0D01*
G01*
G37*
G04 #@! TD*
G04 #@! TO.C,U2*
G36*
G01*
X201941800Y-124760003D02*
X201941800Y-124099997D01*
G75*
G02*
X202191797Y-123850000I249997J0D01*
G01*
X202851803Y-123850000D01*
G75*
G02*
X203101800Y-124099997I0J-249997D01*
G01*
X203101800Y-124760003D01*
G75*
G02*
X202851803Y-125010000I-249997J0D01*
G01*
X202191797Y-125010000D01*
G75*
G02*
X201941800Y-124760003I0J249997D01*
G01*
G37*
G36*
G01*
X201941800Y-123330003D02*
X201941800Y-122669997D01*
G75*
G02*
X202191797Y-122420000I249997J0D01*
G01*
X202851803Y-122420000D01*
G75*
G02*
X203101800Y-122669997I0J-249997D01*
G01*
X203101800Y-123330003D01*
G75*
G02*
X202851803Y-123580000I-249997J0D01*
G01*
X202191797Y-123580000D01*
G75*
G02*
X201941800Y-123330003I0J249997D01*
G01*
G37*
G36*
G01*
X201941800Y-121900003D02*
X201941800Y-121239997D01*
G75*
G02*
X202191797Y-120990000I249997J0D01*
G01*
X202851803Y-120990000D01*
G75*
G02*
X203101800Y-121239997I0J-249997D01*
G01*
X203101800Y-121900003D01*
G75*
G02*
X202851803Y-122150000I-249997J0D01*
G01*
X202191797Y-122150000D01*
G75*
G02*
X201941800Y-121900003I0J249997D01*
G01*
G37*
G36*
G01*
X200511800Y-124760003D02*
X200511800Y-124099997D01*
G75*
G02*
X200761797Y-123850000I249997J0D01*
G01*
X201421803Y-123850000D01*
G75*
G02*
X201671800Y-124099997I0J-249997D01*
G01*
X201671800Y-124760003D01*
G75*
G02*
X201421803Y-125010000I-249997J0D01*
G01*
X200761797Y-125010000D01*
G75*
G02*
X200511800Y-124760003I0J249997D01*
G01*
G37*
G36*
G01*
X200511800Y-123330003D02*
X200511800Y-122669997D01*
G75*
G02*
X200761797Y-122420000I249997J0D01*
G01*
X201421803Y-122420000D01*
G75*
G02*
X201671800Y-122669997I0J-249997D01*
G01*
X201671800Y-123330003D01*
G75*
G02*
X201421803Y-123580000I-249997J0D01*
G01*
X200761797Y-123580000D01*
G75*
G02*
X200511800Y-123330003I0J249997D01*
G01*
G37*
G36*
G01*
X200511800Y-121900003D02*
X200511800Y-121239997D01*
G75*
G02*
X200761797Y-120990000I249997J0D01*
G01*
X201421803Y-120990000D01*
G75*
G02*
X201671800Y-121239997I0J-249997D01*
G01*
X201671800Y-121900003D01*
G75*
G02*
X201421803Y-122150000I-249997J0D01*
G01*
X200761797Y-122150000D01*
G75*
G02*
X200511800Y-121900003I0J249997D01*
G01*
G37*
G36*
G01*
X199081800Y-124760003D02*
X199081800Y-124099997D01*
G75*
G02*
X199331797Y-123850000I249997J0D01*
G01*
X199991803Y-123850000D01*
G75*
G02*
X200241800Y-124099997I0J-249997D01*
G01*
X200241800Y-124760003D01*
G75*
G02*
X199991803Y-125010000I-249997J0D01*
G01*
X199331797Y-125010000D01*
G75*
G02*
X199081800Y-124760003I0J249997D01*
G01*
G37*
G36*
G01*
X199081800Y-123330003D02*
X199081800Y-122669997D01*
G75*
G02*
X199331797Y-122420000I249997J0D01*
G01*
X199991803Y-122420000D01*
G75*
G02*
X200241800Y-122669997I0J-249997D01*
G01*
X200241800Y-123330003D01*
G75*
G02*
X199991803Y-123580000I-249997J0D01*
G01*
X199331797Y-123580000D01*
G75*
G02*
X199081800Y-123330003I0J249997D01*
G01*
G37*
G36*
G01*
X199081800Y-121900003D02*
X199081800Y-121239997D01*
G75*
G02*
X199331797Y-120990000I249997J0D01*
G01*
X199991803Y-120990000D01*
G75*
G02*
X200241800Y-121239997I0J-249997D01*
G01*
X200241800Y-121900003D01*
G75*
G02*
X199991803Y-122150000I-249997J0D01*
G01*
X199331797Y-122150000D01*
G75*
G02*
X199081800Y-121900003I0J249997D01*
G01*
G37*
G36*
G01*
X198791800Y-120400000D02*
X198791800Y-119700000D01*
G75*
G02*
X198841800Y-119650000I50000J0D01*
G01*
X198941800Y-119650000D01*
G75*
G02*
X198991800Y-119700000I0J-50000D01*
G01*
X198991800Y-120400000D01*
G75*
G02*
X198941800Y-120450000I-50000J0D01*
G01*
X198841800Y-120450000D01*
G75*
G02*
X198791800Y-120400000I0J50000D01*
G01*
G37*
G36*
G01*
X199191800Y-120400000D02*
X199191800Y-119700000D01*
G75*
G02*
X199241800Y-119650000I50000J0D01*
G01*
X199341800Y-119650000D01*
G75*
G02*
X199391800Y-119700000I0J-50000D01*
G01*
X199391800Y-120400000D01*
G75*
G02*
X199341800Y-120450000I-50000J0D01*
G01*
X199241800Y-120450000D01*
G75*
G02*
X199191800Y-120400000I0J50000D01*
G01*
G37*
G36*
G01*
X199591800Y-120400000D02*
X199591800Y-119700000D01*
G75*
G02*
X199641800Y-119650000I50000J0D01*
G01*
X199741800Y-119650000D01*
G75*
G02*
X199791800Y-119700000I0J-50000D01*
G01*
X199791800Y-120400000D01*
G75*
G02*
X199741800Y-120450000I-50000J0D01*
G01*
X199641800Y-120450000D01*
G75*
G02*
X199591800Y-120400000I0J50000D01*
G01*
G37*
G36*
G01*
X199991800Y-120400000D02*
X199991800Y-119700000D01*
G75*
G02*
X200041800Y-119650000I50000J0D01*
G01*
X200141800Y-119650000D01*
G75*
G02*
X200191800Y-119700000I0J-50000D01*
G01*
X200191800Y-120400000D01*
G75*
G02*
X200141800Y-120450000I-50000J0D01*
G01*
X200041800Y-120450000D01*
G75*
G02*
X199991800Y-120400000I0J50000D01*
G01*
G37*
G36*
G01*
X200391800Y-120400000D02*
X200391800Y-119700000D01*
G75*
G02*
X200441800Y-119650000I50000J0D01*
G01*
X200541800Y-119650000D01*
G75*
G02*
X200591800Y-119700000I0J-50000D01*
G01*
X200591800Y-120400000D01*
G75*
G02*
X200541800Y-120450000I-50000J0D01*
G01*
X200441800Y-120450000D01*
G75*
G02*
X200391800Y-120400000I0J50000D01*
G01*
G37*
G36*
G01*
X200791800Y-120400000D02*
X200791800Y-119700000D01*
G75*
G02*
X200841800Y-119650000I50000J0D01*
G01*
X200941800Y-119650000D01*
G75*
G02*
X200991800Y-119700000I0J-50000D01*
G01*
X200991800Y-120400000D01*
G75*
G02*
X200941800Y-120450000I-50000J0D01*
G01*
X200841800Y-120450000D01*
G75*
G02*
X200791800Y-120400000I0J50000D01*
G01*
G37*
G36*
G01*
X201191800Y-120400000D02*
X201191800Y-119700000D01*
G75*
G02*
X201241800Y-119650000I50000J0D01*
G01*
X201341800Y-119650000D01*
G75*
G02*
X201391800Y-119700000I0J-50000D01*
G01*
X201391800Y-120400000D01*
G75*
G02*
X201341800Y-120450000I-50000J0D01*
G01*
X201241800Y-120450000D01*
G75*
G02*
X201191800Y-120400000I0J50000D01*
G01*
G37*
G36*
G01*
X201591800Y-120400000D02*
X201591800Y-119700000D01*
G75*
G02*
X201641800Y-119650000I50000J0D01*
G01*
X201741800Y-119650000D01*
G75*
G02*
X201791800Y-119700000I0J-50000D01*
G01*
X201791800Y-120400000D01*
G75*
G02*
X201741800Y-120450000I-50000J0D01*
G01*
X201641800Y-120450000D01*
G75*
G02*
X201591800Y-120400000I0J50000D01*
G01*
G37*
G36*
G01*
X201991800Y-120400000D02*
X201991800Y-119700000D01*
G75*
G02*
X202041800Y-119650000I50000J0D01*
G01*
X202141800Y-119650000D01*
G75*
G02*
X202191800Y-119700000I0J-50000D01*
G01*
X202191800Y-120400000D01*
G75*
G02*
X202141800Y-120450000I-50000J0D01*
G01*
X202041800Y-120450000D01*
G75*
G02*
X201991800Y-120400000I0J50000D01*
G01*
G37*
G36*
G01*
X202391800Y-120400000D02*
X202391800Y-119700000D01*
G75*
G02*
X202441800Y-119650000I50000J0D01*
G01*
X202541800Y-119650000D01*
G75*
G02*
X202591800Y-119700000I0J-50000D01*
G01*
X202591800Y-120400000D01*
G75*
G02*
X202541800Y-120450000I-50000J0D01*
G01*
X202441800Y-120450000D01*
G75*
G02*
X202391800Y-120400000I0J50000D01*
G01*
G37*
G36*
G01*
X202791800Y-120400000D02*
X202791800Y-119700000D01*
G75*
G02*
X202841800Y-119650000I50000J0D01*
G01*
X202941800Y-119650000D01*
G75*
G02*
X202991800Y-119700000I0J-50000D01*
G01*
X202991800Y-120400000D01*
G75*
G02*
X202941800Y-120450000I-50000J0D01*
G01*
X202841800Y-120450000D01*
G75*
G02*
X202791800Y-120400000I0J50000D01*
G01*
G37*
G36*
G01*
X203191800Y-120400000D02*
X203191800Y-119700000D01*
G75*
G02*
X203241800Y-119650000I50000J0D01*
G01*
X203341800Y-119650000D01*
G75*
G02*
X203391800Y-119700000I0J-50000D01*
G01*
X203391800Y-120400000D01*
G75*
G02*
X203341800Y-120450000I-50000J0D01*
G01*
X203241800Y-120450000D01*
G75*
G02*
X203191800Y-120400000I0J50000D01*
G01*
G37*
G36*
G01*
X203641800Y-120850000D02*
X203641800Y-120750000D01*
G75*
G02*
X203691800Y-120700000I50000J0D01*
G01*
X204391800Y-120700000D01*
G75*
G02*
X204441800Y-120750000I0J-50000D01*
G01*
X204441800Y-120850000D01*
G75*
G02*
X204391800Y-120900000I-50000J0D01*
G01*
X203691800Y-120900000D01*
G75*
G02*
X203641800Y-120850000I0J50000D01*
G01*
G37*
G36*
G01*
X203641800Y-121250000D02*
X203641800Y-121150000D01*
G75*
G02*
X203691800Y-121100000I50000J0D01*
G01*
X204391800Y-121100000D01*
G75*
G02*
X204441800Y-121150000I0J-50000D01*
G01*
X204441800Y-121250000D01*
G75*
G02*
X204391800Y-121300000I-50000J0D01*
G01*
X203691800Y-121300000D01*
G75*
G02*
X203641800Y-121250000I0J50000D01*
G01*
G37*
G36*
G01*
X203641800Y-121650000D02*
X203641800Y-121550000D01*
G75*
G02*
X203691800Y-121500000I50000J0D01*
G01*
X204391800Y-121500000D01*
G75*
G02*
X204441800Y-121550000I0J-50000D01*
G01*
X204441800Y-121650000D01*
G75*
G02*
X204391800Y-121700000I-50000J0D01*
G01*
X203691800Y-121700000D01*
G75*
G02*
X203641800Y-121650000I0J50000D01*
G01*
G37*
G36*
G01*
X203641800Y-122050000D02*
X203641800Y-121950000D01*
G75*
G02*
X203691800Y-121900000I50000J0D01*
G01*
X204391800Y-121900000D01*
G75*
G02*
X204441800Y-121950000I0J-50000D01*
G01*
X204441800Y-122050000D01*
G75*
G02*
X204391800Y-122100000I-50000J0D01*
G01*
X203691800Y-122100000D01*
G75*
G02*
X203641800Y-122050000I0J50000D01*
G01*
G37*
G36*
G01*
X203641800Y-122450000D02*
X203641800Y-122350000D01*
G75*
G02*
X203691800Y-122300000I50000J0D01*
G01*
X204391800Y-122300000D01*
G75*
G02*
X204441800Y-122350000I0J-50000D01*
G01*
X204441800Y-122450000D01*
G75*
G02*
X204391800Y-122500000I-50000J0D01*
G01*
X203691800Y-122500000D01*
G75*
G02*
X203641800Y-122450000I0J50000D01*
G01*
G37*
G36*
G01*
X203641800Y-122850000D02*
X203641800Y-122750000D01*
G75*
G02*
X203691800Y-122700000I50000J0D01*
G01*
X204391800Y-122700000D01*
G75*
G02*
X204441800Y-122750000I0J-50000D01*
G01*
X204441800Y-122850000D01*
G75*
G02*
X204391800Y-122900000I-50000J0D01*
G01*
X203691800Y-122900000D01*
G75*
G02*
X203641800Y-122850000I0J50000D01*
G01*
G37*
G36*
G01*
X203641800Y-123250000D02*
X203641800Y-123150000D01*
G75*
G02*
X203691800Y-123100000I50000J0D01*
G01*
X204391800Y-123100000D01*
G75*
G02*
X204441800Y-123150000I0J-50000D01*
G01*
X204441800Y-123250000D01*
G75*
G02*
X204391800Y-123300000I-50000J0D01*
G01*
X203691800Y-123300000D01*
G75*
G02*
X203641800Y-123250000I0J50000D01*
G01*
G37*
G36*
G01*
X203641800Y-123650000D02*
X203641800Y-123550000D01*
G75*
G02*
X203691800Y-123500000I50000J0D01*
G01*
X204391800Y-123500000D01*
G75*
G02*
X204441800Y-123550000I0J-50000D01*
G01*
X204441800Y-123650000D01*
G75*
G02*
X204391800Y-123700000I-50000J0D01*
G01*
X203691800Y-123700000D01*
G75*
G02*
X203641800Y-123650000I0J50000D01*
G01*
G37*
G36*
G01*
X203641800Y-124050000D02*
X203641800Y-123950000D01*
G75*
G02*
X203691800Y-123900000I50000J0D01*
G01*
X204391800Y-123900000D01*
G75*
G02*
X204441800Y-123950000I0J-50000D01*
G01*
X204441800Y-124050000D01*
G75*
G02*
X204391800Y-124100000I-50000J0D01*
G01*
X203691800Y-124100000D01*
G75*
G02*
X203641800Y-124050000I0J50000D01*
G01*
G37*
G36*
G01*
X203641800Y-124450000D02*
X203641800Y-124350000D01*
G75*
G02*
X203691800Y-124300000I50000J0D01*
G01*
X204391800Y-124300000D01*
G75*
G02*
X204441800Y-124350000I0J-50000D01*
G01*
X204441800Y-124450000D01*
G75*
G02*
X204391800Y-124500000I-50000J0D01*
G01*
X203691800Y-124500000D01*
G75*
G02*
X203641800Y-124450000I0J50000D01*
G01*
G37*
G36*
G01*
X203641800Y-124850000D02*
X203641800Y-124750000D01*
G75*
G02*
X203691800Y-124700000I50000J0D01*
G01*
X204391800Y-124700000D01*
G75*
G02*
X204441800Y-124750000I0J-50000D01*
G01*
X204441800Y-124850000D01*
G75*
G02*
X204391800Y-124900000I-50000J0D01*
G01*
X203691800Y-124900000D01*
G75*
G02*
X203641800Y-124850000I0J50000D01*
G01*
G37*
G36*
G01*
X203641800Y-125250000D02*
X203641800Y-125150000D01*
G75*
G02*
X203691800Y-125100000I50000J0D01*
G01*
X204391800Y-125100000D01*
G75*
G02*
X204441800Y-125150000I0J-50000D01*
G01*
X204441800Y-125250000D01*
G75*
G02*
X204391800Y-125300000I-50000J0D01*
G01*
X203691800Y-125300000D01*
G75*
G02*
X203641800Y-125250000I0J50000D01*
G01*
G37*
G36*
G01*
X203191800Y-126300000D02*
X203191800Y-125600000D01*
G75*
G02*
X203241800Y-125550000I50000J0D01*
G01*
X203341800Y-125550000D01*
G75*
G02*
X203391800Y-125600000I0J-50000D01*
G01*
X203391800Y-126300000D01*
G75*
G02*
X203341800Y-126350000I-50000J0D01*
G01*
X203241800Y-126350000D01*
G75*
G02*
X203191800Y-126300000I0J50000D01*
G01*
G37*
G36*
G01*
X202791800Y-126300000D02*
X202791800Y-125600000D01*
G75*
G02*
X202841800Y-125550000I50000J0D01*
G01*
X202941800Y-125550000D01*
G75*
G02*
X202991800Y-125600000I0J-50000D01*
G01*
X202991800Y-126300000D01*
G75*
G02*
X202941800Y-126350000I-50000J0D01*
G01*
X202841800Y-126350000D01*
G75*
G02*
X202791800Y-126300000I0J50000D01*
G01*
G37*
G36*
G01*
X202391800Y-126300000D02*
X202391800Y-125600000D01*
G75*
G02*
X202441800Y-125550000I50000J0D01*
G01*
X202541800Y-125550000D01*
G75*
G02*
X202591800Y-125600000I0J-50000D01*
G01*
X202591800Y-126300000D01*
G75*
G02*
X202541800Y-126350000I-50000J0D01*
G01*
X202441800Y-126350000D01*
G75*
G02*
X202391800Y-126300000I0J50000D01*
G01*
G37*
G36*
G01*
X201991800Y-126300000D02*
X201991800Y-125600000D01*
G75*
G02*
X202041800Y-125550000I50000J0D01*
G01*
X202141800Y-125550000D01*
G75*
G02*
X202191800Y-125600000I0J-50000D01*
G01*
X202191800Y-126300000D01*
G75*
G02*
X202141800Y-126350000I-50000J0D01*
G01*
X202041800Y-126350000D01*
G75*
G02*
X201991800Y-126300000I0J50000D01*
G01*
G37*
G36*
G01*
X201591800Y-126300000D02*
X201591800Y-125600000D01*
G75*
G02*
X201641800Y-125550000I50000J0D01*
G01*
X201741800Y-125550000D01*
G75*
G02*
X201791800Y-125600000I0J-50000D01*
G01*
X201791800Y-126300000D01*
G75*
G02*
X201741800Y-126350000I-50000J0D01*
G01*
X201641800Y-126350000D01*
G75*
G02*
X201591800Y-126300000I0J50000D01*
G01*
G37*
G36*
G01*
X201191800Y-126300000D02*
X201191800Y-125600000D01*
G75*
G02*
X201241800Y-125550000I50000J0D01*
G01*
X201341800Y-125550000D01*
G75*
G02*
X201391800Y-125600000I0J-50000D01*
G01*
X201391800Y-126300000D01*
G75*
G02*
X201341800Y-126350000I-50000J0D01*
G01*
X201241800Y-126350000D01*
G75*
G02*
X201191800Y-126300000I0J50000D01*
G01*
G37*
G36*
G01*
X200791800Y-126300000D02*
X200791800Y-125600000D01*
G75*
G02*
X200841800Y-125550000I50000J0D01*
G01*
X200941800Y-125550000D01*
G75*
G02*
X200991800Y-125600000I0J-50000D01*
G01*
X200991800Y-126300000D01*
G75*
G02*
X200941800Y-126350000I-50000J0D01*
G01*
X200841800Y-126350000D01*
G75*
G02*
X200791800Y-126300000I0J50000D01*
G01*
G37*
G36*
G01*
X200391800Y-126300000D02*
X200391800Y-125600000D01*
G75*
G02*
X200441800Y-125550000I50000J0D01*
G01*
X200541800Y-125550000D01*
G75*
G02*
X200591800Y-125600000I0J-50000D01*
G01*
X200591800Y-126300000D01*
G75*
G02*
X200541800Y-126350000I-50000J0D01*
G01*
X200441800Y-126350000D01*
G75*
G02*
X200391800Y-126300000I0J50000D01*
G01*
G37*
G36*
G01*
X199991800Y-126300000D02*
X199991800Y-125600000D01*
G75*
G02*
X200041800Y-125550000I50000J0D01*
G01*
X200141800Y-125550000D01*
G75*
G02*
X200191800Y-125600000I0J-50000D01*
G01*
X200191800Y-126300000D01*
G75*
G02*
X200141800Y-126350000I-50000J0D01*
G01*
X200041800Y-126350000D01*
G75*
G02*
X199991800Y-126300000I0J50000D01*
G01*
G37*
G36*
G01*
X199591800Y-126300000D02*
X199591800Y-125600000D01*
G75*
G02*
X199641800Y-125550000I50000J0D01*
G01*
X199741800Y-125550000D01*
G75*
G02*
X199791800Y-125600000I0J-50000D01*
G01*
X199791800Y-126300000D01*
G75*
G02*
X199741800Y-126350000I-50000J0D01*
G01*
X199641800Y-126350000D01*
G75*
G02*
X199591800Y-126300000I0J50000D01*
G01*
G37*
G36*
G01*
X199191800Y-126300000D02*
X199191800Y-125600000D01*
G75*
G02*
X199241800Y-125550000I50000J0D01*
G01*
X199341800Y-125550000D01*
G75*
G02*
X199391800Y-125600000I0J-50000D01*
G01*
X199391800Y-126300000D01*
G75*
G02*
X199341800Y-126350000I-50000J0D01*
G01*
X199241800Y-126350000D01*
G75*
G02*
X199191800Y-126300000I0J50000D01*
G01*
G37*
G36*
G01*
X198791800Y-126300000D02*
X198791800Y-125600000D01*
G75*
G02*
X198841800Y-125550000I50000J0D01*
G01*
X198941800Y-125550000D01*
G75*
G02*
X198991800Y-125600000I0J-50000D01*
G01*
X198991800Y-126300000D01*
G75*
G02*
X198941800Y-126350000I-50000J0D01*
G01*
X198841800Y-126350000D01*
G75*
G02*
X198791800Y-126300000I0J50000D01*
G01*
G37*
G36*
G01*
X197741800Y-125250000D02*
X197741800Y-125150000D01*
G75*
G02*
X197791800Y-125100000I50000J0D01*
G01*
X198491800Y-125100000D01*
G75*
G02*
X198541800Y-125150000I0J-50000D01*
G01*
X198541800Y-125250000D01*
G75*
G02*
X198491800Y-125300000I-50000J0D01*
G01*
X197791800Y-125300000D01*
G75*
G02*
X197741800Y-125250000I0J50000D01*
G01*
G37*
G36*
G01*
X197741800Y-124850000D02*
X197741800Y-124750000D01*
G75*
G02*
X197791800Y-124700000I50000J0D01*
G01*
X198491800Y-124700000D01*
G75*
G02*
X198541800Y-124750000I0J-50000D01*
G01*
X198541800Y-124850000D01*
G75*
G02*
X198491800Y-124900000I-50000J0D01*
G01*
X197791800Y-124900000D01*
G75*
G02*
X197741800Y-124850000I0J50000D01*
G01*
G37*
G36*
G01*
X197741800Y-124450000D02*
X197741800Y-124350000D01*
G75*
G02*
X197791800Y-124300000I50000J0D01*
G01*
X198491800Y-124300000D01*
G75*
G02*
X198541800Y-124350000I0J-50000D01*
G01*
X198541800Y-124450000D01*
G75*
G02*
X198491800Y-124500000I-50000J0D01*
G01*
X197791800Y-124500000D01*
G75*
G02*
X197741800Y-124450000I0J50000D01*
G01*
G37*
G36*
G01*
X197741800Y-124050000D02*
X197741800Y-123950000D01*
G75*
G02*
X197791800Y-123900000I50000J0D01*
G01*
X198491800Y-123900000D01*
G75*
G02*
X198541800Y-123950000I0J-50000D01*
G01*
X198541800Y-124050000D01*
G75*
G02*
X198491800Y-124100000I-50000J0D01*
G01*
X197791800Y-124100000D01*
G75*
G02*
X197741800Y-124050000I0J50000D01*
G01*
G37*
G36*
G01*
X197741800Y-123650000D02*
X197741800Y-123550000D01*
G75*
G02*
X197791800Y-123500000I50000J0D01*
G01*
X198491800Y-123500000D01*
G75*
G02*
X198541800Y-123550000I0J-50000D01*
G01*
X198541800Y-123650000D01*
G75*
G02*
X198491800Y-123700000I-50000J0D01*
G01*
X197791800Y-123700000D01*
G75*
G02*
X197741800Y-123650000I0J50000D01*
G01*
G37*
G36*
G01*
X197741800Y-123250000D02*
X197741800Y-123150000D01*
G75*
G02*
X197791800Y-123100000I50000J0D01*
G01*
X198491800Y-123100000D01*
G75*
G02*
X198541800Y-123150000I0J-50000D01*
G01*
X198541800Y-123250000D01*
G75*
G02*
X198491800Y-123300000I-50000J0D01*
G01*
X197791800Y-123300000D01*
G75*
G02*
X197741800Y-123250000I0J50000D01*
G01*
G37*
G36*
G01*
X197741800Y-122850000D02*
X197741800Y-122750000D01*
G75*
G02*
X197791800Y-122700000I50000J0D01*
G01*
X198491800Y-122700000D01*
G75*
G02*
X198541800Y-122750000I0J-50000D01*
G01*
X198541800Y-122850000D01*
G75*
G02*
X198491800Y-122900000I-50000J0D01*
G01*
X197791800Y-122900000D01*
G75*
G02*
X197741800Y-122850000I0J50000D01*
G01*
G37*
G36*
G01*
X197741800Y-122450000D02*
X197741800Y-122350000D01*
G75*
G02*
X197791800Y-122300000I50000J0D01*
G01*
X198491800Y-122300000D01*
G75*
G02*
X198541800Y-122350000I0J-50000D01*
G01*
X198541800Y-122450000D01*
G75*
G02*
X198491800Y-122500000I-50000J0D01*
G01*
X197791800Y-122500000D01*
G75*
G02*
X197741800Y-122450000I0J50000D01*
G01*
G37*
G36*
G01*
X197741800Y-122050000D02*
X197741800Y-121950000D01*
G75*
G02*
X197791800Y-121900000I50000J0D01*
G01*
X198491800Y-121900000D01*
G75*
G02*
X198541800Y-121950000I0J-50000D01*
G01*
X198541800Y-122050000D01*
G75*
G02*
X198491800Y-122100000I-50000J0D01*
G01*
X197791800Y-122100000D01*
G75*
G02*
X197741800Y-122050000I0J50000D01*
G01*
G37*
G36*
G01*
X197741800Y-121650000D02*
X197741800Y-121550000D01*
G75*
G02*
X197791800Y-121500000I50000J0D01*
G01*
X198491800Y-121500000D01*
G75*
G02*
X198541800Y-121550000I0J-50000D01*
G01*
X198541800Y-121650000D01*
G75*
G02*
X198491800Y-121700000I-50000J0D01*
G01*
X197791800Y-121700000D01*
G75*
G02*
X197741800Y-121650000I0J50000D01*
G01*
G37*
G36*
G01*
X197741800Y-121250000D02*
X197741800Y-121150000D01*
G75*
G02*
X197791800Y-121100000I50000J0D01*
G01*
X198491800Y-121100000D01*
G75*
G02*
X198541800Y-121150000I0J-50000D01*
G01*
X198541800Y-121250000D01*
G75*
G02*
X198491800Y-121300000I-50000J0D01*
G01*
X197791800Y-121300000D01*
G75*
G02*
X197741800Y-121250000I0J50000D01*
G01*
G37*
G36*
G01*
X197741800Y-120850000D02*
X197741800Y-120750000D01*
G75*
G02*
X197791800Y-120700000I50000J0D01*
G01*
X198491800Y-120700000D01*
G75*
G02*
X198541800Y-120750000I0J-50000D01*
G01*
X198541800Y-120850000D01*
G75*
G02*
X198491800Y-120900000I-50000J0D01*
G01*
X197791800Y-120900000D01*
G75*
G02*
X197741800Y-120850000I0J50000D01*
G01*
G37*
G04 #@! TD*
G04 #@! TO.C,C7*
G36*
G01*
X204733150Y-129785014D02*
X204733150Y-130260014D01*
G75*
G02*
X204495650Y-130497514I-237500J0D01*
G01*
X203895650Y-130497514D01*
G75*
G02*
X203658150Y-130260014I0J237500D01*
G01*
X203658150Y-129785014D01*
G75*
G02*
X203895650Y-129547514I237500J0D01*
G01*
X204495650Y-129547514D01*
G75*
G02*
X204733150Y-129785014I0J-237500D01*
G01*
G37*
G36*
G01*
X206458150Y-129785014D02*
X206458150Y-130260014D01*
G75*
G02*
X206220650Y-130497514I-237500J0D01*
G01*
X205620650Y-130497514D01*
G75*
G02*
X205383150Y-130260014I0J237500D01*
G01*
X205383150Y-129785014D01*
G75*
G02*
X205620650Y-129547514I237500J0D01*
G01*
X206220650Y-129547514D01*
G75*
G02*
X206458150Y-129785014I0J-237500D01*
G01*
G37*
G04 #@! TD*
G04 #@! TO.C,C8*
G36*
G01*
X206458150Y-128285011D02*
X206458150Y-128760011D01*
G75*
G02*
X206220650Y-128997511I-237500J0D01*
G01*
X205620650Y-128997511D01*
G75*
G02*
X205383150Y-128760011I0J237500D01*
G01*
X205383150Y-128285011D01*
G75*
G02*
X205620650Y-128047511I237500J0D01*
G01*
X206220650Y-128047511D01*
G75*
G02*
X206458150Y-128285011I0J-237500D01*
G01*
G37*
G36*
G01*
X204733150Y-128285011D02*
X204733150Y-128760011D01*
G75*
G02*
X204495650Y-128997511I-237500J0D01*
G01*
X203895650Y-128997511D01*
G75*
G02*
X203658150Y-128760011I0J237500D01*
G01*
X203658150Y-128285011D01*
G75*
G02*
X203895650Y-128047511I237500J0D01*
G01*
X204495650Y-128047511D01*
G75*
G02*
X204733150Y-128285011I0J-237500D01*
G01*
G37*
G04 #@! TD*
G04 #@! TO.C,C10*
G36*
G01*
X210150000Y-120462500D02*
X210150000Y-120937500D01*
G75*
G02*
X209912500Y-121175000I-237500J0D01*
G01*
X209312500Y-121175000D01*
G75*
G02*
X209075000Y-120937500I0J237500D01*
G01*
X209075000Y-120462500D01*
G75*
G02*
X209312500Y-120225000I237500J0D01*
G01*
X209912500Y-120225000D01*
G75*
G02*
X210150000Y-120462500I0J-237500D01*
G01*
G37*
G36*
G01*
X208425000Y-120462500D02*
X208425000Y-120937500D01*
G75*
G02*
X208187500Y-121175000I-237500J0D01*
G01*
X207587500Y-121175000D01*
G75*
G02*
X207350000Y-120937500I0J237500D01*
G01*
X207350000Y-120462500D01*
G75*
G02*
X207587500Y-120225000I237500J0D01*
G01*
X208187500Y-120225000D01*
G75*
G02*
X208425000Y-120462500I0J-237500D01*
G01*
G37*
G04 #@! TD*
G04 #@! TO.C,C11*
G36*
G01*
X209075000Y-125937500D02*
X209075000Y-125462500D01*
G75*
G02*
X209312500Y-125225000I237500J0D01*
G01*
X209912500Y-125225000D01*
G75*
G02*
X210150000Y-125462500I0J-237500D01*
G01*
X210150000Y-125937500D01*
G75*
G02*
X209912500Y-126175000I-237500J0D01*
G01*
X209312500Y-126175000D01*
G75*
G02*
X209075000Y-125937500I0J237500D01*
G01*
G37*
G36*
G01*
X207350000Y-125937500D02*
X207350000Y-125462500D01*
G75*
G02*
X207587500Y-125225000I237500J0D01*
G01*
X208187500Y-125225000D01*
G75*
G02*
X208425000Y-125462500I0J-237500D01*
G01*
X208425000Y-125937500D01*
G75*
G02*
X208187500Y-126175000I-237500J0D01*
G01*
X207587500Y-126175000D01*
G75*
G02*
X207350000Y-125937500I0J237500D01*
G01*
G37*
G04 #@! TD*
G04 #@! TO.C,C13*
G36*
G01*
X201250000Y-112762500D02*
X201250000Y-113237500D01*
G75*
G02*
X201012500Y-113475000I-237500J0D01*
G01*
X200412500Y-113475000D01*
G75*
G02*
X200175000Y-113237500I0J237500D01*
G01*
X200175000Y-112762500D01*
G75*
G02*
X200412500Y-112525000I237500J0D01*
G01*
X201012500Y-112525000D01*
G75*
G02*
X201250000Y-112762500I0J-237500D01*
G01*
G37*
G36*
G01*
X202975000Y-112762500D02*
X202975000Y-113237500D01*
G75*
G02*
X202737500Y-113475000I-237500J0D01*
G01*
X202137500Y-113475000D01*
G75*
G02*
X201900000Y-113237500I0J237500D01*
G01*
X201900000Y-112762500D01*
G75*
G02*
X202137500Y-112525000I237500J0D01*
G01*
X202737500Y-112525000D01*
G75*
G02*
X202975000Y-112762500I0J-237500D01*
G01*
G37*
G04 #@! TD*
G04 #@! TO.C,C19*
G36*
G01*
X212200000Y-125937500D02*
X212200000Y-125462500D01*
G75*
G02*
X212437500Y-125225000I237500J0D01*
G01*
X213037500Y-125225000D01*
G75*
G02*
X213275000Y-125462500I0J-237500D01*
G01*
X213275000Y-125937500D01*
G75*
G02*
X213037500Y-126175000I-237500J0D01*
G01*
X212437500Y-126175000D01*
G75*
G02*
X212200000Y-125937500I0J237500D01*
G01*
G37*
G36*
G01*
X213925000Y-125937500D02*
X213925000Y-125462500D01*
G75*
G02*
X214162500Y-125225000I237500J0D01*
G01*
X214762500Y-125225000D01*
G75*
G02*
X215000000Y-125462500I0J-237500D01*
G01*
X215000000Y-125937500D01*
G75*
G02*
X214762500Y-126175000I-237500J0D01*
G01*
X214162500Y-126175000D01*
G75*
G02*
X213925000Y-125937500I0J237500D01*
G01*
G37*
G04 #@! TD*
G04 #@! TO.C,C44*
G36*
G01*
X197712500Y-117737500D02*
X197712500Y-117262500D01*
G75*
G02*
X197950000Y-117025000I237500J0D01*
G01*
X198550000Y-117025000D01*
G75*
G02*
X198787500Y-117262500I0J-237500D01*
G01*
X198787500Y-117737500D01*
G75*
G02*
X198550000Y-117975000I-237500J0D01*
G01*
X197950000Y-117975000D01*
G75*
G02*
X197712500Y-117737500I0J237500D01*
G01*
G37*
G36*
G01*
X199437500Y-117737500D02*
X199437500Y-117262500D01*
G75*
G02*
X199675000Y-117025000I237500J0D01*
G01*
X200275000Y-117025000D01*
G75*
G02*
X200512500Y-117262500I0J-237500D01*
G01*
X200512500Y-117737500D01*
G75*
G02*
X200275000Y-117975000I-237500J0D01*
G01*
X199675000Y-117975000D01*
G75*
G02*
X199437500Y-117737500I0J237500D01*
G01*
G37*
G04 #@! TD*
G04 #@! TO.C,C51*
G36*
G01*
X197000000Y-125262500D02*
X197000000Y-125737500D01*
G75*
G02*
X196762500Y-125975000I-237500J0D01*
G01*
X196162500Y-125975000D01*
G75*
G02*
X195925000Y-125737500I0J237500D01*
G01*
X195925000Y-125262500D01*
G75*
G02*
X196162500Y-125025000I237500J0D01*
G01*
X196762500Y-125025000D01*
G75*
G02*
X197000000Y-125262500I0J-237500D01*
G01*
G37*
G36*
G01*
X195275000Y-125262500D02*
X195275000Y-125737500D01*
G75*
G02*
X195037500Y-125975000I-237500J0D01*
G01*
X194437500Y-125975000D01*
G75*
G02*
X194200000Y-125737500I0J237500D01*
G01*
X194200000Y-125262500D01*
G75*
G02*
X194437500Y-125025000I237500J0D01*
G01*
X195037500Y-125025000D01*
G75*
G02*
X195275000Y-125262500I0J-237500D01*
G01*
G37*
G04 #@! TD*
G04 #@! TO.C,D2*
G36*
G01*
X190500000Y-116987500D02*
X190500000Y-116512500D01*
G75*
G02*
X190737500Y-116275000I237500J0D01*
G01*
X191312500Y-116275000D01*
G75*
G02*
X191550000Y-116512500I0J-237500D01*
G01*
X191550000Y-116987500D01*
G75*
G02*
X191312500Y-117225000I-237500J0D01*
G01*
X190737500Y-117225000D01*
G75*
G02*
X190500000Y-116987500I0J237500D01*
G01*
G37*
G36*
G01*
X188750000Y-116987500D02*
X188750000Y-116512500D01*
G75*
G02*
X188987500Y-116275000I237500J0D01*
G01*
X189562500Y-116275000D01*
G75*
G02*
X189800000Y-116512500I0J-237500D01*
G01*
X189800000Y-116987500D01*
G75*
G02*
X189562500Y-117225000I-237500J0D01*
G01*
X188987500Y-117225000D01*
G75*
G02*
X188750000Y-116987500I0J237500D01*
G01*
G37*
G04 #@! TD*
G04 #@! TO.C,L1*
G36*
G01*
X195150000Y-116925000D02*
X196850000Y-116925000D01*
G75*
G02*
X197100000Y-117175000I0J-250000D01*
G01*
X197100000Y-118100000D01*
G75*
G02*
X196850000Y-118350000I-250000J0D01*
G01*
X195150000Y-118350000D01*
G75*
G02*
X194900000Y-118100000I0J250000D01*
G01*
X194900000Y-117175000D01*
G75*
G02*
X195150000Y-116925000I250000J0D01*
G01*
G37*
G36*
G01*
X195150000Y-119250000D02*
X196850000Y-119250000D01*
G75*
G02*
X197100000Y-119500000I0J-250000D01*
G01*
X197100000Y-120425000D01*
G75*
G02*
X196850000Y-120675000I-250000J0D01*
G01*
X195150000Y-120675000D01*
G75*
G02*
X194900000Y-120425000I0J250000D01*
G01*
X194900000Y-119500000D01*
G75*
G02*
X195150000Y-119250000I250000J0D01*
G01*
G37*
G04 #@! TD*
G04 #@! TO.C,R3*
G36*
G01*
X226500000Y-112062500D02*
X226500000Y-112537500D01*
G75*
G02*
X226262500Y-112775000I-237500J0D01*
G01*
X225762500Y-112775000D01*
G75*
G02*
X225525000Y-112537500I0J237500D01*
G01*
X225525000Y-112062500D01*
G75*
G02*
X225762500Y-111825000I237500J0D01*
G01*
X226262500Y-111825000D01*
G75*
G02*
X226500000Y-112062500I0J-237500D01*
G01*
G37*
G36*
G01*
X224675000Y-112062500D02*
X224675000Y-112537500D01*
G75*
G02*
X224437500Y-112775000I-237500J0D01*
G01*
X223937500Y-112775000D01*
G75*
G02*
X223700000Y-112537500I0J237500D01*
G01*
X223700000Y-112062500D01*
G75*
G02*
X223937500Y-111825000I237500J0D01*
G01*
X224437500Y-111825000D01*
G75*
G02*
X224675000Y-112062500I0J-237500D01*
G01*
G37*
G04 #@! TD*
G04 #@! TO.C,R4*
G36*
G01*
X202000000Y-111637500D02*
X202000000Y-111162500D01*
G75*
G02*
X202237500Y-110925000I237500J0D01*
G01*
X202737500Y-110925000D01*
G75*
G02*
X202975000Y-111162500I0J-237500D01*
G01*
X202975000Y-111637500D01*
G75*
G02*
X202737500Y-111875000I-237500J0D01*
G01*
X202237500Y-111875000D01*
G75*
G02*
X202000000Y-111637500I0J237500D01*
G01*
G37*
G36*
G01*
X200175000Y-111637500D02*
X200175000Y-111162500D01*
G75*
G02*
X200412500Y-110925000I237500J0D01*
G01*
X200912500Y-110925000D01*
G75*
G02*
X201150000Y-111162500I0J-237500D01*
G01*
X201150000Y-111637500D01*
G75*
G02*
X200912500Y-111875000I-237500J0D01*
G01*
X200412500Y-111875000D01*
G75*
G02*
X200175000Y-111637500I0J237500D01*
G01*
G37*
G04 #@! TD*
D14*
G04 #@! TO.C,U4*
X214950000Y-124050000D03*
X214950000Y-123100000D03*
X214950000Y-122150000D03*
X212250000Y-122150000D03*
X212250000Y-124050000D03*
G04 #@! TD*
D15*
G04 #@! TO.C,Y1*
X207700000Y-124050000D03*
X209900000Y-124050000D03*
X209900000Y-122350000D03*
X207700000Y-122350000D03*
G04 #@! TD*
G04 #@! TO.C,R19*
G36*
G01*
X195175000Y-123762500D02*
X195175000Y-124237500D01*
G75*
G02*
X194937500Y-124475000I-237500J0D01*
G01*
X194437500Y-124475000D01*
G75*
G02*
X194200000Y-124237500I0J237500D01*
G01*
X194200000Y-123762500D01*
G75*
G02*
X194437500Y-123525000I237500J0D01*
G01*
X194937500Y-123525000D01*
G75*
G02*
X195175000Y-123762500I0J-237500D01*
G01*
G37*
G36*
G01*
X197000000Y-123762500D02*
X197000000Y-124237500D01*
G75*
G02*
X196762500Y-124475000I-237500J0D01*
G01*
X196262500Y-124475000D01*
G75*
G02*
X196025000Y-124237500I0J237500D01*
G01*
X196025000Y-123762500D01*
G75*
G02*
X196262500Y-123525000I237500J0D01*
G01*
X196762500Y-123525000D01*
G75*
G02*
X197000000Y-123762500I0J-237500D01*
G01*
G37*
G04 #@! TD*
D16*
G04 #@! TO.C,FID1*
X173736000Y-116205000D03*
G04 #@! TD*
D17*
G04 #@! TO.C,FID2*
X175768000Y-116967000D03*
G04 #@! TD*
D16*
G04 #@! TO.C,FID3*
X233886000Y-110998000D03*
G04 #@! TD*
D17*
G04 #@! TO.C,FID4*
X175768000Y-129413000D03*
G04 #@! TD*
D16*
G04 #@! TO.C,FID5*
X173736000Y-130556000D03*
G04 #@! TD*
D17*
G04 #@! TO.C,FID6*
X233886000Y-114000000D03*
G04 #@! TD*
D16*
G04 #@! TO.C,FID7*
X233886000Y-129318000D03*
G04 #@! TD*
D17*
G04 #@! TO.C,FID8*
X233886000Y-126000000D03*
G04 #@! TD*
M02*
