G04 #@! TF.GenerationSoftware,KiCad,Pcbnew,5.1.10-6.fc33*
G04 #@! TF.CreationDate,2021-10-31T18:09:00+00:00*
G04 #@! TF.ProjectId,vl670,766c3637-302e-46b6-9963-61645f706362,rev?*
G04 #@! TF.SameCoordinates,Original*
G04 #@! TF.FileFunction,Copper,L1,Top*
G04 #@! TF.FilePolarity,Positive*
%FSLAX46Y46*%
G04 Gerber Fmt 4.6, Leading zero omitted, Abs format (unit mm)*
G04 Created by KiCad (PCBNEW 5.1.10-6.fc33) date 2021-10-31 18:09:00*
%MOMM*%
%LPD*%
G01*
G04 APERTURE LIST*
G04 #@! TA.AperFunction,ComponentPad*
%ADD10C,1.400000*%
G04 #@! TD*
G04 #@! TA.AperFunction,ComponentPad*
%ADD11C,3.500000*%
G04 #@! TD*
G04 #@! TA.AperFunction,ComponentPad*
%ADD12C,1.700000*%
G04 #@! TD*
G04 #@! TA.AperFunction,SMDPad,CuDef*
%ADD13R,0.500000X0.250000*%
G04 #@! TD*
G04 #@! TA.AperFunction,SMDPad,CuDef*
%ADD14R,0.500000X0.450000*%
G04 #@! TD*
G04 #@! TA.AperFunction,SMDPad,CuDef*
%ADD15R,0.250000X0.500000*%
G04 #@! TD*
G04 #@! TA.AperFunction,SMDPad,CuDef*
%ADD16R,0.450000X0.500000*%
G04 #@! TD*
G04 #@! TA.AperFunction,ComponentPad*
%ADD17C,0.800000*%
G04 #@! TD*
G04 #@! TA.AperFunction,ComponentPad*
%ADD18C,5.000000*%
G04 #@! TD*
G04 #@! TA.AperFunction,SMDPad,CuDef*
%ADD19C,1.000000*%
G04 #@! TD*
G04 #@! TA.AperFunction,ComponentPad*
%ADD20O,1.700000X1.700000*%
G04 #@! TD*
G04 #@! TA.AperFunction,ComponentPad*
%ADD21R,1.700000X1.700000*%
G04 #@! TD*
G04 #@! TA.AperFunction,ComponentPad*
%ADD22O,4.000000X1.600000*%
G04 #@! TD*
G04 #@! TA.AperFunction,SMDPad,CuDef*
%ADD23R,1.600000X0.700000*%
G04 #@! TD*
G04 #@! TA.AperFunction,SMDPad,CuDef*
%ADD24R,0.750000X0.250000*%
G04 #@! TD*
G04 #@! TA.AperFunction,SMDPad,CuDef*
%ADD25R,4.300000X4.300000*%
G04 #@! TD*
G04 #@! TA.AperFunction,SMDPad,CuDef*
%ADD26R,1.560000X0.650000*%
G04 #@! TD*
G04 #@! TA.AperFunction,SMDPad,CuDef*
%ADD27R,1.400000X1.200000*%
G04 #@! TD*
G04 #@! TA.AperFunction,SMDPad,CuDef*
%ADD28C,0.500000*%
G04 #@! TD*
G04 #@! TA.AperFunction,ViaPad*
%ADD29C,0.450000*%
G04 #@! TD*
G04 #@! TA.AperFunction,ViaPad*
%ADD30C,1.000000*%
G04 #@! TD*
G04 #@! TA.AperFunction,Conductor*
%ADD31C,0.131318*%
G04 #@! TD*
G04 #@! TA.AperFunction,Conductor*
%ADD32C,0.508000*%
G04 #@! TD*
G04 #@! TA.AperFunction,Conductor*
%ADD33C,0.254000*%
G04 #@! TD*
G04 #@! TA.AperFunction,Conductor*
%ADD34C,0.700000*%
G04 #@! TD*
G04 #@! TA.AperFunction,Conductor*
%ADD35C,1.000000*%
G04 #@! TD*
G04 #@! TA.AperFunction,Conductor*
%ADD36C,0.100000*%
G04 #@! TD*
G04 APERTURE END LIST*
D10*
G04 #@! TO.P,J2,8*
G04 #@! TO.N,/SSRX-*
X187000000Y-125750000D03*
G04 #@! TO.P,J2,9*
G04 #@! TO.N,/SSRX+*
X187000000Y-127500000D03*
G04 #@! TO.P,J2,5*
G04 #@! TO.N,/SSTX-*
X187000000Y-119000000D03*
G04 #@! TO.P,J2,6*
G04 #@! TO.N,/SSTX+*
X187000000Y-120750000D03*
G04 #@! TO.P,J2,7*
G04 #@! TO.N,GND*
X187000000Y-123250000D03*
D11*
G04 #@! TO.P,J2,10*
X180290000Y-129270000D03*
X180290000Y-117230000D03*
D12*
G04 #@! TO.P,J2,2*
G04 #@! TO.N,/D-*
X185000000Y-122000000D03*
G04 #@! TO.P,J2,1*
G04 #@! TO.N,+5VP*
X185000000Y-124500000D03*
G04 #@! TO.P,J2,4*
G04 #@! TO.N,GND*
X183000000Y-124500000D03*
G04 #@! TO.P,J2,3*
G04 #@! TO.N,/D+*
X183000000Y-122000000D03*
G04 #@! TD*
G04 #@! TO.P,R1,2*
G04 #@! TO.N,/D-*
G04 #@! TA.AperFunction,SMDPad,CuDef*
G36*
G01*
X195175000Y-133059277D02*
X195175000Y-133534277D01*
G75*
G02*
X194937500Y-133771777I-237500J0D01*
G01*
X194437500Y-133771777D01*
G75*
G02*
X194200000Y-133534277I0J237500D01*
G01*
X194200000Y-133059277D01*
G75*
G02*
X194437500Y-132821777I237500J0D01*
G01*
X194937500Y-132821777D01*
G75*
G02*
X195175000Y-133059277I0J-237500D01*
G01*
G37*
G04 #@! TD.AperFunction*
G04 #@! TO.P,R1,1*
G04 #@! TO.N,/D_DC-*
G04 #@! TA.AperFunction,SMDPad,CuDef*
G36*
G01*
X197000000Y-133059277D02*
X197000000Y-133534277D01*
G75*
G02*
X196762500Y-133771777I-237500J0D01*
G01*
X196262500Y-133771777D01*
G75*
G02*
X196025000Y-133534277I0J237500D01*
G01*
X196025000Y-133059277D01*
G75*
G02*
X196262500Y-132821777I237500J0D01*
G01*
X196762500Y-132821777D01*
G75*
G02*
X197000000Y-133059277I0J-237500D01*
G01*
G37*
G04 #@! TD.AperFunction*
G04 #@! TD*
G04 #@! TO.P,R2,2*
G04 #@! TO.N,/D+*
G04 #@! TA.AperFunction,SMDPad,CuDef*
G36*
G01*
X195175000Y-134539277D02*
X195175000Y-135014277D01*
G75*
G02*
X194937500Y-135251777I-237500J0D01*
G01*
X194437500Y-135251777D01*
G75*
G02*
X194200000Y-135014277I0J237500D01*
G01*
X194200000Y-134539277D01*
G75*
G02*
X194437500Y-134301777I237500J0D01*
G01*
X194937500Y-134301777D01*
G75*
G02*
X195175000Y-134539277I0J-237500D01*
G01*
G37*
G04 #@! TD.AperFunction*
G04 #@! TO.P,R2,1*
G04 #@! TO.N,/D_DC+*
G04 #@! TA.AperFunction,SMDPad,CuDef*
G36*
G01*
X197000000Y-134539277D02*
X197000000Y-135014277D01*
G75*
G02*
X196762500Y-135251777I-237500J0D01*
G01*
X196262500Y-135251777D01*
G75*
G02*
X196025000Y-135014277I0J237500D01*
G01*
X196025000Y-134539277D01*
G75*
G02*
X196262500Y-134301777I237500J0D01*
G01*
X196762500Y-134301777D01*
G75*
G02*
X197000000Y-134539277I0J-237500D01*
G01*
G37*
G04 #@! TD.AperFunction*
G04 #@! TD*
D13*
G04 #@! TO.P,D4,2*
G04 #@! TO.N,/SSTX-*
X189797500Y-122750000D03*
D14*
G04 #@! TO.P,D4,3*
G04 #@! TO.N,GND*
X189797500Y-123250000D03*
D13*
G04 #@! TO.P,D4,1*
G04 #@! TO.N,/SSTX+*
X189797500Y-122250000D03*
G04 #@! TO.P,D4,4*
G04 #@! TO.N,/SSRX+*
X189797500Y-123750000D03*
G04 #@! TO.P,D4,10*
G04 #@! TO.N,/SSTX+*
X190602500Y-122250000D03*
G04 #@! TO.P,D4,9*
G04 #@! TO.N,/SSTX-*
X190602500Y-122750000D03*
G04 #@! TO.P,D4,5*
G04 #@! TO.N,/SSRX-*
X189797500Y-124250000D03*
D14*
G04 #@! TO.P,D4,8*
G04 #@! TO.N,GND*
X190602500Y-123250000D03*
D13*
G04 #@! TO.P,D4,6*
G04 #@! TO.N,/SSRX-*
X190602500Y-124250000D03*
G04 #@! TO.P,D4,7*
G04 #@! TO.N,/SSRX+*
X190602500Y-123750000D03*
G04 #@! TD*
D15*
G04 #@! TO.P,D1,2*
G04 #@! TO.N,/D-*
X183500000Y-133402500D03*
D16*
G04 #@! TO.P,D1,3*
G04 #@! TO.N,GND*
X184000000Y-133402500D03*
D15*
G04 #@! TO.P,D1,1*
G04 #@! TO.N,/D+*
X183000000Y-133402500D03*
G04 #@! TO.P,D1,4*
G04 #@! TO.N,+5VP*
X184500000Y-133402500D03*
G04 #@! TO.P,D1,10*
G04 #@! TO.N,/D+*
X183000000Y-132597500D03*
G04 #@! TO.P,D1,9*
G04 #@! TO.N,/D-*
X183500000Y-132597500D03*
G04 #@! TO.P,D1,5*
G04 #@! TO.N,+5VP*
X185000000Y-133402500D03*
D16*
G04 #@! TO.P,D1,8*
G04 #@! TO.N,GND*
X184000000Y-132597500D03*
D15*
G04 #@! TO.P,D1,6*
G04 #@! TO.N,+5VP*
X185000000Y-132597500D03*
G04 #@! TO.P,D1,7*
X184500000Y-132597500D03*
G04 #@! TD*
G04 #@! TO.P,C2,2*
G04 #@! TO.N,/SSRX-*
G04 #@! TA.AperFunction,SMDPad,CuDef*
G36*
G01*
X195275000Y-129762500D02*
X195275000Y-130237500D01*
G75*
G02*
X195037500Y-130475000I-237500J0D01*
G01*
X194437500Y-130475000D01*
G75*
G02*
X194200000Y-130237500I0J237500D01*
G01*
X194200000Y-129762500D01*
G75*
G02*
X194437500Y-129525000I237500J0D01*
G01*
X195037500Y-129525000D01*
G75*
G02*
X195275000Y-129762500I0J-237500D01*
G01*
G37*
G04 #@! TD.AperFunction*
G04 #@! TO.P,C2,1*
G04 #@! TO.N,/SSRX_DC+*
G04 #@! TA.AperFunction,SMDPad,CuDef*
G36*
G01*
X197000000Y-129762500D02*
X197000000Y-130237500D01*
G75*
G02*
X196762500Y-130475000I-237500J0D01*
G01*
X196162500Y-130475000D01*
G75*
G02*
X195925000Y-130237500I0J237500D01*
G01*
X195925000Y-129762500D01*
G75*
G02*
X196162500Y-129525000I237500J0D01*
G01*
X196762500Y-129525000D01*
G75*
G02*
X197000000Y-129762500I0J-237500D01*
G01*
G37*
G04 #@! TD.AperFunction*
G04 #@! TD*
G04 #@! TO.P,C1,2*
G04 #@! TO.N,/SSRX+*
G04 #@! TA.AperFunction,SMDPad,CuDef*
G36*
G01*
X195275000Y-128262500D02*
X195275000Y-128737500D01*
G75*
G02*
X195037500Y-128975000I-237500J0D01*
G01*
X194437500Y-128975000D01*
G75*
G02*
X194200000Y-128737500I0J237500D01*
G01*
X194200000Y-128262500D01*
G75*
G02*
X194437500Y-128025000I237500J0D01*
G01*
X195037500Y-128025000D01*
G75*
G02*
X195275000Y-128262500I0J-237500D01*
G01*
G37*
G04 #@! TD.AperFunction*
G04 #@! TO.P,C1,1*
G04 #@! TO.N,/SSRX_DC-*
G04 #@! TA.AperFunction,SMDPad,CuDef*
G36*
G01*
X197000000Y-128262500D02*
X197000000Y-128737500D01*
G75*
G02*
X196762500Y-128975000I-237500J0D01*
G01*
X196162500Y-128975000D01*
G75*
G02*
X195925000Y-128737500I0J237500D01*
G01*
X195925000Y-128262500D01*
G75*
G02*
X196162500Y-128025000I237500J0D01*
G01*
X196762500Y-128025000D01*
G75*
G02*
X197000000Y-128262500I0J-237500D01*
G01*
G37*
G04 #@! TD.AperFunction*
G04 #@! TD*
D17*
G04 #@! TO.P,H4,1*
G04 #@! TO.N,GND*
X235325825Y-133674175D03*
X234000000Y-133125000D03*
X232674175Y-133674175D03*
X232125000Y-135000000D03*
X232674175Y-136325825D03*
X234000000Y-136875000D03*
X235325825Y-136325825D03*
X235875000Y-135000000D03*
D18*
X234000000Y-135000000D03*
G04 #@! TD*
D17*
G04 #@! TO.P,H3,1*
G04 #@! TO.N,GND*
X235325825Y-104674175D03*
X234000000Y-104125000D03*
X232674175Y-104674175D03*
X232125000Y-106000000D03*
X232674175Y-107325825D03*
X234000000Y-107875000D03*
X235325825Y-107325825D03*
X235875000Y-106000000D03*
D18*
X234000000Y-106000000D03*
G04 #@! TD*
D17*
G04 #@! TO.P,H2,1*
G04 #@! TO.N,GND*
X176325825Y-133674175D03*
X175000000Y-133125000D03*
X173674175Y-133674175D03*
X173125000Y-135000000D03*
X173674175Y-136325825D03*
X175000000Y-136875000D03*
X176325825Y-136325825D03*
X176875000Y-135000000D03*
D18*
X175000000Y-135000000D03*
G04 #@! TD*
D17*
G04 #@! TO.P,H1,1*
G04 #@! TO.N,GND*
X176325825Y-104674175D03*
X175000000Y-104125000D03*
X173674175Y-104674175D03*
X173125000Y-106000000D03*
X173674175Y-107325825D03*
X175000000Y-107875000D03*
X176325825Y-107325825D03*
X176875000Y-106000000D03*
D18*
X175000000Y-106000000D03*
G04 #@! TD*
G04 #@! TO.P,R24,2*
G04 #@! TO.N,GND*
G04 #@! TA.AperFunction,SMDPad,CuDef*
G36*
G01*
X229737500Y-112537500D02*
X229737500Y-112062500D01*
G75*
G02*
X229975000Y-111825000I237500J0D01*
G01*
X230475000Y-111825000D01*
G75*
G02*
X230712500Y-112062500I0J-237500D01*
G01*
X230712500Y-112537500D01*
G75*
G02*
X230475000Y-112775000I-237500J0D01*
G01*
X229975000Y-112775000D01*
G75*
G02*
X229737500Y-112537500I0J237500D01*
G01*
G37*
G04 #@! TD.AperFunction*
G04 #@! TO.P,R24,1*
G04 #@! TO.N,Net-(D20-Pad1)*
G04 #@! TA.AperFunction,SMDPad,CuDef*
G36*
G01*
X227912500Y-112537500D02*
X227912500Y-112062500D01*
G75*
G02*
X228150000Y-111825000I237500J0D01*
G01*
X228650000Y-111825000D01*
G75*
G02*
X228887500Y-112062500I0J-237500D01*
G01*
X228887500Y-112537500D01*
G75*
G02*
X228650000Y-112775000I-237500J0D01*
G01*
X228150000Y-112775000D01*
G75*
G02*
X227912500Y-112537500I0J237500D01*
G01*
G37*
G04 #@! TD.AperFunction*
G04 #@! TD*
G04 #@! TO.P,D20,2*
G04 #@! TO.N,+5V_SW*
G04 #@! TA.AperFunction,SMDPad,CuDef*
G36*
G01*
X219462500Y-124000000D02*
X219937500Y-124000000D01*
G75*
G02*
X220175000Y-124237500I0J-237500D01*
G01*
X220175000Y-124812500D01*
G75*
G02*
X219937500Y-125050000I-237500J0D01*
G01*
X219462500Y-125050000D01*
G75*
G02*
X219225000Y-124812500I0J237500D01*
G01*
X219225000Y-124237500D01*
G75*
G02*
X219462500Y-124000000I237500J0D01*
G01*
G37*
G04 #@! TD.AperFunction*
G04 #@! TO.P,D20,1*
G04 #@! TO.N,Net-(D20-Pad1)*
G04 #@! TA.AperFunction,SMDPad,CuDef*
G36*
G01*
X219462500Y-122250000D02*
X219937500Y-122250000D01*
G75*
G02*
X220175000Y-122487500I0J-237500D01*
G01*
X220175000Y-123062500D01*
G75*
G02*
X219937500Y-123300000I-237500J0D01*
G01*
X219462500Y-123300000D01*
G75*
G02*
X219225000Y-123062500I0J237500D01*
G01*
X219225000Y-122487500D01*
G75*
G02*
X219462500Y-122250000I237500J0D01*
G01*
G37*
G04 #@! TD.AperFunction*
G04 #@! TD*
D19*
G04 #@! TO.P,TP3,1*
G04 #@! TO.N,+1V2*
X206800000Y-133000000D03*
G04 #@! TD*
G04 #@! TO.P,TP2,1*
G04 #@! TO.N,+1V5*
X196000000Y-115400000D03*
G04 #@! TD*
G04 #@! TO.P,TP1,1*
G04 #@! TO.N,+3V3*
X190175000Y-128400000D03*
G04 #@! TD*
D20*
G04 #@! TO.P,J3,8*
G04 #@! TO.N,GND*
X191740000Y-112400000D03*
G04 #@! TO.P,J3,7*
G04 #@! TO.N,Net-(D12-Pad1)*
X189200000Y-112400000D03*
G04 #@! TO.P,J3,6*
G04 #@! TO.N,Net-(D11-Pad1)*
X186660000Y-112400000D03*
G04 #@! TO.P,J3,5*
G04 #@! TO.N,Net-(D10-Pad1)*
X184120000Y-112400000D03*
G04 #@! TO.P,J3,4*
G04 #@! TO.N,Net-(D9-Pad1)*
X181580000Y-112400000D03*
G04 #@! TO.P,J3,3*
G04 #@! TO.N,Net-(D8-Pad1)*
X179040000Y-112400000D03*
G04 #@! TO.P,J3,2*
G04 #@! TO.N,Net-(D7-Pad1)*
X176500000Y-112400000D03*
D21*
G04 #@! TO.P,J3,1*
G04 #@! TO.N,Net-(D19-Pad1)*
X173960000Y-112400000D03*
G04 #@! TD*
G04 #@! TO.P,R22,2*
G04 #@! TO.N,GND*
G04 #@! TA.AperFunction,SMDPad,CuDef*
G36*
G01*
X217575000Y-125937500D02*
X217575000Y-125462500D01*
G75*
G02*
X217812500Y-125225000I237500J0D01*
G01*
X218312500Y-125225000D01*
G75*
G02*
X218550000Y-125462500I0J-237500D01*
G01*
X218550000Y-125937500D01*
G75*
G02*
X218312500Y-126175000I-237500J0D01*
G01*
X217812500Y-126175000D01*
G75*
G02*
X217575000Y-125937500I0J237500D01*
G01*
G37*
G04 #@! TD.AperFunction*
G04 #@! TO.P,R22,1*
G04 #@! TO.N,Net-(C19-Pad2)*
G04 #@! TA.AperFunction,SMDPad,CuDef*
G36*
G01*
X215750000Y-125937500D02*
X215750000Y-125462500D01*
G75*
G02*
X215987500Y-125225000I237500J0D01*
G01*
X216487500Y-125225000D01*
G75*
G02*
X216725000Y-125462500I0J-237500D01*
G01*
X216725000Y-125937500D01*
G75*
G02*
X216487500Y-126175000I-237500J0D01*
G01*
X215987500Y-126175000D01*
G75*
G02*
X215750000Y-125937500I0J237500D01*
G01*
G37*
G04 #@! TD.AperFunction*
G04 #@! TD*
D22*
G04 #@! TO.P,J4,10*
G04 #@! TO.N,GND*
X224815000Y-129290000D03*
X224815000Y-116490000D03*
D23*
G04 #@! TO.P,J4,9*
G04 #@! TO.N,/DN_TX_AC-*
X222865000Y-126890000D03*
G04 #@! TO.P,J4,1*
G04 #@! TO.N,+5V_SW*
X222865000Y-125890000D03*
G04 #@! TO.P,J4,8*
G04 #@! TO.N,/DN_TX_AC+*
X222865000Y-124890000D03*
G04 #@! TO.P,J4,2*
G04 #@! TO.N,/DN_D-*
X222865000Y-123890000D03*
G04 #@! TO.P,J4,7*
G04 #@! TO.N,GND*
X222865000Y-122890000D03*
G04 #@! TO.P,J4,3*
G04 #@! TO.N,/DN_D+*
X222865000Y-121890000D03*
G04 #@! TO.P,J4,6*
G04 #@! TO.N,/DN_SSRX+*
X222865000Y-120890000D03*
G04 #@! TO.P,J4,4*
G04 #@! TO.N,GND*
X222865000Y-119890000D03*
G04 #@! TO.P,J4,5*
G04 #@! TO.N,/DN_SSRX-*
X222865000Y-118890000D03*
G04 #@! TD*
D13*
G04 #@! TO.P,D6,2*
G04 #@! TO.N,/DN_TX_AC+*
X220402500Y-120642000D03*
D14*
G04 #@! TO.P,D6,3*
G04 #@! TO.N,GND*
X220402500Y-120142000D03*
D13*
G04 #@! TO.P,D6,1*
G04 #@! TO.N,/DN_TX_AC-*
X220402500Y-121142000D03*
G04 #@! TO.P,D6,4*
G04 #@! TO.N,/DN_SSRX-*
X220402500Y-119642000D03*
G04 #@! TO.P,D6,10*
G04 #@! TO.N,/DN_TX_AC-*
X219597500Y-121142000D03*
G04 #@! TO.P,D6,9*
G04 #@! TO.N,/DN_TX_AC+*
X219597500Y-120642000D03*
G04 #@! TO.P,D6,5*
G04 #@! TO.N,/DN_SSRX+*
X220402500Y-119142000D03*
D14*
G04 #@! TO.P,D6,8*
G04 #@! TO.N,GND*
X219597500Y-120142000D03*
D13*
G04 #@! TO.P,D6,6*
G04 #@! TO.N,/DN_SSRX+*
X219597500Y-119142000D03*
G04 #@! TO.P,D6,7*
G04 #@! TO.N,/DN_SSRX-*
X219597500Y-119642000D03*
G04 #@! TD*
G04 #@! TO.P,D3,2*
G04 #@! TO.N,+5V_SW*
X219597500Y-126563500D03*
D14*
G04 #@! TO.P,D3,3*
G04 #@! TO.N,GND*
X219597500Y-127063500D03*
D13*
G04 #@! TO.P,D3,1*
G04 #@! TO.N,+5V_SW*
X219597500Y-126063500D03*
G04 #@! TO.P,D3,4*
G04 #@! TO.N,/DN_D-*
X219597500Y-127563500D03*
G04 #@! TO.P,D3,10*
G04 #@! TO.N,+5V_SW*
X220402500Y-126063500D03*
G04 #@! TO.P,D3,9*
X220402500Y-126563500D03*
G04 #@! TO.P,D3,5*
G04 #@! TO.N,/DN_D+*
X219597500Y-128063500D03*
D14*
G04 #@! TO.P,D3,8*
G04 #@! TO.N,GND*
X220402500Y-127063500D03*
D13*
G04 #@! TO.P,D3,6*
G04 #@! TO.N,/DN_D+*
X220402500Y-128063500D03*
G04 #@! TO.P,D3,7*
G04 #@! TO.N,/DN_D-*
X220402500Y-127563500D03*
G04 #@! TD*
D24*
G04 #@! TO.P,U3,1*
G04 #@! TO.N,/eeprom/~CS*
X210950000Y-115250000D03*
G04 #@! TO.P,U3,2*
G04 #@! TO.N,/eeprom/~ISP_CS*
X210950000Y-115750000D03*
G04 #@! TO.P,U3,3*
G04 #@! TO.N,~EXT_RESET*
X210950000Y-116250000D03*
G04 #@! TO.P,U3,4*
G04 #@! TO.N,GND*
X210950000Y-116750000D03*
G04 #@! TO.P,U3,5*
G04 #@! TO.N,/eeprom/SCK*
X214050000Y-116750000D03*
G04 #@! TO.P,U3,6*
G04 #@! TO.N,/eeprom/ISP_SCK*
X214050000Y-116250000D03*
G04 #@! TO.P,U3,7*
G04 #@! TO.N,~EXT_RESET*
X214050000Y-115750000D03*
G04 #@! TO.P,U3,8*
G04 #@! TO.N,+3V3*
X214050000Y-115250000D03*
G04 #@! TD*
G04 #@! TO.P,U5,8*
G04 #@! TO.N,+3V3*
X209550000Y-115250000D03*
G04 #@! TO.P,U5,7*
G04 #@! TO.N,~EXT_RESET*
X209550000Y-115750000D03*
G04 #@! TO.P,U5,6*
G04 #@! TO.N,/eeprom/ISP_MOSI*
X209550000Y-116250000D03*
G04 #@! TO.P,U5,5*
G04 #@! TO.N,/eeprom/MOSI*
X209550000Y-116750000D03*
G04 #@! TO.P,U5,4*
G04 #@! TO.N,GND*
X206450000Y-116750000D03*
G04 #@! TO.P,U5,3*
G04 #@! TO.N,~EXT_RESET*
X206450000Y-116250000D03*
G04 #@! TO.P,U5,2*
G04 #@! TO.N,/eeprom/ISP_MISO*
X206450000Y-115750000D03*
G04 #@! TO.P,U5,1*
G04 #@! TO.N,/eeprom/MISO*
X206450000Y-115250000D03*
G04 #@! TD*
G04 #@! TO.P,R15,2*
G04 #@! TO.N,GND*
G04 #@! TA.AperFunction,SMDPad,CuDef*
G36*
G01*
X214025000Y-120737500D02*
X214025000Y-120262500D01*
G75*
G02*
X214262500Y-120025000I237500J0D01*
G01*
X214762500Y-120025000D01*
G75*
G02*
X215000000Y-120262500I0J-237500D01*
G01*
X215000000Y-120737500D01*
G75*
G02*
X214762500Y-120975000I-237500J0D01*
G01*
X214262500Y-120975000D01*
G75*
G02*
X214025000Y-120737500I0J237500D01*
G01*
G37*
G04 #@! TD.AperFunction*
G04 #@! TO.P,R15,1*
G04 #@! TO.N,Net-(R15-Pad1)*
G04 #@! TA.AperFunction,SMDPad,CuDef*
G36*
G01*
X212200000Y-120737500D02*
X212200000Y-120262500D01*
G75*
G02*
X212437500Y-120025000I237500J0D01*
G01*
X212937500Y-120025000D01*
G75*
G02*
X213175000Y-120262500I0J-237500D01*
G01*
X213175000Y-120737500D01*
G75*
G02*
X212937500Y-120975000I-237500J0D01*
G01*
X212437500Y-120975000D01*
G75*
G02*
X212200000Y-120737500I0J237500D01*
G01*
G37*
G04 #@! TD.AperFunction*
G04 #@! TD*
G04 #@! TO.P,C9,2*
G04 #@! TO.N,GND*
G04 #@! TA.AperFunction,SMDPad,CuDef*
G36*
G01*
X215712500Y-118225000D02*
X216187500Y-118225000D01*
G75*
G02*
X216425000Y-118462500I0J-237500D01*
G01*
X216425000Y-119062500D01*
G75*
G02*
X216187500Y-119300000I-237500J0D01*
G01*
X215712500Y-119300000D01*
G75*
G02*
X215475000Y-119062500I0J237500D01*
G01*
X215475000Y-118462500D01*
G75*
G02*
X215712500Y-118225000I237500J0D01*
G01*
G37*
G04 #@! TD.AperFunction*
G04 #@! TO.P,C9,1*
G04 #@! TO.N,+3V3*
G04 #@! TA.AperFunction,SMDPad,CuDef*
G36*
G01*
X215712500Y-116500000D02*
X216187500Y-116500000D01*
G75*
G02*
X216425000Y-116737500I0J-237500D01*
G01*
X216425000Y-117337500D01*
G75*
G02*
X216187500Y-117575000I-237500J0D01*
G01*
X215712500Y-117575000D01*
G75*
G02*
X215475000Y-117337500I0J237500D01*
G01*
X215475000Y-116737500D01*
G75*
G02*
X215712500Y-116500000I237500J0D01*
G01*
G37*
G04 #@! TD.AperFunction*
G04 #@! TD*
D20*
G04 #@! TO.P,J5,2*
G04 #@! TO.N,GND*
X198000000Y-112400000D03*
D21*
G04 #@! TO.P,J5,1*
G04 #@! TO.N,+5V*
X195460000Y-112400000D03*
G04 #@! TD*
D20*
G04 #@! TO.P,J1,7*
G04 #@! TO.N,GND*
X220330000Y-112400000D03*
G04 #@! TO.P,J1,6*
G04 #@! TO.N,~EXT_RESET*
X217790000Y-112400000D03*
G04 #@! TO.P,J1,5*
G04 #@! TO.N,/eeprom/ISP_MOSI*
X215250000Y-112400000D03*
G04 #@! TO.P,J1,4*
G04 #@! TO.N,/eeprom/ISP_MISO*
X212710000Y-112400000D03*
G04 #@! TO.P,J1,3*
G04 #@! TO.N,/eeprom/~ISP_CS*
X210170000Y-112400000D03*
G04 #@! TO.P,J1,2*
G04 #@! TO.N,/eeprom/ISP_SCK*
X207630000Y-112400000D03*
D21*
G04 #@! TO.P,J1,1*
G04 #@! TO.N,GND*
X205090000Y-112400000D03*
G04 #@! TD*
D25*
G04 #@! TO.P,U2,49*
G04 #@! TO.N,GND*
X201091800Y-123000000D03*
G04 #@! TO.P,U2,48*
G04 #@! TO.N,+1V5*
G04 #@! TA.AperFunction,SMDPad,CuDef*
G36*
G01*
X198791800Y-120400000D02*
X198791800Y-119700000D01*
G75*
G02*
X198841800Y-119650000I50000J0D01*
G01*
X198941800Y-119650000D01*
G75*
G02*
X198991800Y-119700000I0J-50000D01*
G01*
X198991800Y-120400000D01*
G75*
G02*
X198941800Y-120450000I-50000J0D01*
G01*
X198841800Y-120450000D01*
G75*
G02*
X198791800Y-120400000I0J50000D01*
G01*
G37*
G04 #@! TD.AperFunction*
G04 #@! TO.P,U2,47*
G04 #@! TA.AperFunction,SMDPad,CuDef*
G36*
G01*
X199191800Y-120400000D02*
X199191800Y-119700000D01*
G75*
G02*
X199241800Y-119650000I50000J0D01*
G01*
X199341800Y-119650000D01*
G75*
G02*
X199391800Y-119700000I0J-50000D01*
G01*
X199391800Y-120400000D01*
G75*
G02*
X199341800Y-120450000I-50000J0D01*
G01*
X199241800Y-120450000D01*
G75*
G02*
X199191800Y-120400000I0J50000D01*
G01*
G37*
G04 #@! TD.AperFunction*
G04 #@! TO.P,U2,46*
G04 #@! TO.N,+1V2*
G04 #@! TA.AperFunction,SMDPad,CuDef*
G36*
G01*
X199591800Y-120400000D02*
X199591800Y-119700000D01*
G75*
G02*
X199641800Y-119650000I50000J0D01*
G01*
X199741800Y-119650000D01*
G75*
G02*
X199791800Y-119700000I0J-50000D01*
G01*
X199791800Y-120400000D01*
G75*
G02*
X199741800Y-120450000I-50000J0D01*
G01*
X199641800Y-120450000D01*
G75*
G02*
X199591800Y-120400000I0J50000D01*
G01*
G37*
G04 #@! TD.AperFunction*
G04 #@! TO.P,U2,45*
G04 #@! TO.N,Net-(D12-Pad1)*
G04 #@! TA.AperFunction,SMDPad,CuDef*
G36*
G01*
X199991800Y-120400000D02*
X199991800Y-119700000D01*
G75*
G02*
X200041800Y-119650000I50000J0D01*
G01*
X200141800Y-119650000D01*
G75*
G02*
X200191800Y-119700000I0J-50000D01*
G01*
X200191800Y-120400000D01*
G75*
G02*
X200141800Y-120450000I-50000J0D01*
G01*
X200041800Y-120450000D01*
G75*
G02*
X199991800Y-120400000I0J50000D01*
G01*
G37*
G04 #@! TD.AperFunction*
G04 #@! TO.P,U2,44*
G04 #@! TO.N,+3V3*
G04 #@! TA.AperFunction,SMDPad,CuDef*
G36*
G01*
X200391800Y-120400000D02*
X200391800Y-119700000D01*
G75*
G02*
X200441800Y-119650000I50000J0D01*
G01*
X200541800Y-119650000D01*
G75*
G02*
X200591800Y-119700000I0J-50000D01*
G01*
X200591800Y-120400000D01*
G75*
G02*
X200541800Y-120450000I-50000J0D01*
G01*
X200441800Y-120450000D01*
G75*
G02*
X200391800Y-120400000I0J50000D01*
G01*
G37*
G04 #@! TD.AperFunction*
G04 #@! TO.P,U2,43*
G04 #@! TO.N,/eeprom/MISO*
G04 #@! TA.AperFunction,SMDPad,CuDef*
G36*
G01*
X200791800Y-120400000D02*
X200791800Y-119700000D01*
G75*
G02*
X200841800Y-119650000I50000J0D01*
G01*
X200941800Y-119650000D01*
G75*
G02*
X200991800Y-119700000I0J-50000D01*
G01*
X200991800Y-120400000D01*
G75*
G02*
X200941800Y-120450000I-50000J0D01*
G01*
X200841800Y-120450000D01*
G75*
G02*
X200791800Y-120400000I0J50000D01*
G01*
G37*
G04 #@! TD.AperFunction*
G04 #@! TO.P,U2,42*
G04 #@! TO.N,/eeprom/MOSI*
G04 #@! TA.AperFunction,SMDPad,CuDef*
G36*
G01*
X201191800Y-120400000D02*
X201191800Y-119700000D01*
G75*
G02*
X201241800Y-119650000I50000J0D01*
G01*
X201341800Y-119650000D01*
G75*
G02*
X201391800Y-119700000I0J-50000D01*
G01*
X201391800Y-120400000D01*
G75*
G02*
X201341800Y-120450000I-50000J0D01*
G01*
X201241800Y-120450000D01*
G75*
G02*
X201191800Y-120400000I0J50000D01*
G01*
G37*
G04 #@! TD.AperFunction*
G04 #@! TO.P,U2,41*
G04 #@! TO.N,/eeprom/~CS*
G04 #@! TA.AperFunction,SMDPad,CuDef*
G36*
G01*
X201591800Y-120400000D02*
X201591800Y-119700000D01*
G75*
G02*
X201641800Y-119650000I50000J0D01*
G01*
X201741800Y-119650000D01*
G75*
G02*
X201791800Y-119700000I0J-50000D01*
G01*
X201791800Y-120400000D01*
G75*
G02*
X201741800Y-120450000I-50000J0D01*
G01*
X201641800Y-120450000D01*
G75*
G02*
X201591800Y-120400000I0J50000D01*
G01*
G37*
G04 #@! TD.AperFunction*
G04 #@! TO.P,U2,40*
G04 #@! TO.N,/eeprom/SCK*
G04 #@! TA.AperFunction,SMDPad,CuDef*
G36*
G01*
X201991800Y-120400000D02*
X201991800Y-119700000D01*
G75*
G02*
X202041800Y-119650000I50000J0D01*
G01*
X202141800Y-119650000D01*
G75*
G02*
X202191800Y-119700000I0J-50000D01*
G01*
X202191800Y-120400000D01*
G75*
G02*
X202141800Y-120450000I-50000J0D01*
G01*
X202041800Y-120450000D01*
G75*
G02*
X201991800Y-120400000I0J50000D01*
G01*
G37*
G04 #@! TD.AperFunction*
G04 #@! TO.P,U2,39*
G04 #@! TO.N,Net-(D8-Pad1)*
G04 #@! TA.AperFunction,SMDPad,CuDef*
G36*
G01*
X202391800Y-120400000D02*
X202391800Y-119700000D01*
G75*
G02*
X202441800Y-119650000I50000J0D01*
G01*
X202541800Y-119650000D01*
G75*
G02*
X202591800Y-119700000I0J-50000D01*
G01*
X202591800Y-120400000D01*
G75*
G02*
X202541800Y-120450000I-50000J0D01*
G01*
X202441800Y-120450000D01*
G75*
G02*
X202391800Y-120400000I0J50000D01*
G01*
G37*
G04 #@! TD.AperFunction*
G04 #@! TO.P,U2,38*
G04 #@! TO.N,Net-(D9-Pad1)*
G04 #@! TA.AperFunction,SMDPad,CuDef*
G36*
G01*
X202791800Y-120400000D02*
X202791800Y-119700000D01*
G75*
G02*
X202841800Y-119650000I50000J0D01*
G01*
X202941800Y-119650000D01*
G75*
G02*
X202991800Y-119700000I0J-50000D01*
G01*
X202991800Y-120400000D01*
G75*
G02*
X202941800Y-120450000I-50000J0D01*
G01*
X202841800Y-120450000D01*
G75*
G02*
X202791800Y-120400000I0J50000D01*
G01*
G37*
G04 #@! TD.AperFunction*
G04 #@! TO.P,U2,37*
G04 #@! TO.N,Net-(R15-Pad1)*
G04 #@! TA.AperFunction,SMDPad,CuDef*
G36*
G01*
X203191800Y-120400000D02*
X203191800Y-119700000D01*
G75*
G02*
X203241800Y-119650000I50000J0D01*
G01*
X203341800Y-119650000D01*
G75*
G02*
X203391800Y-119700000I0J-50000D01*
G01*
X203391800Y-120400000D01*
G75*
G02*
X203341800Y-120450000I-50000J0D01*
G01*
X203241800Y-120450000D01*
G75*
G02*
X203191800Y-120400000I0J50000D01*
G01*
G37*
G04 #@! TD.AperFunction*
G04 #@! TO.P,U2,36*
G04 #@! TO.N,Net-(D7-Pad1)*
G04 #@! TA.AperFunction,SMDPad,CuDef*
G36*
G01*
X203641800Y-120850000D02*
X203641800Y-120750000D01*
G75*
G02*
X203691800Y-120700000I50000J0D01*
G01*
X204391800Y-120700000D01*
G75*
G02*
X204441800Y-120750000I0J-50000D01*
G01*
X204441800Y-120850000D01*
G75*
G02*
X204391800Y-120900000I-50000J0D01*
G01*
X203691800Y-120900000D01*
G75*
G02*
X203641800Y-120850000I0J50000D01*
G01*
G37*
G04 #@! TD.AperFunction*
G04 #@! TO.P,U2,35*
G04 #@! TO.N,+3V3*
G04 #@! TA.AperFunction,SMDPad,CuDef*
G36*
G01*
X203641800Y-121250000D02*
X203641800Y-121150000D01*
G75*
G02*
X203691800Y-121100000I50000J0D01*
G01*
X204391800Y-121100000D01*
G75*
G02*
X204441800Y-121150000I0J-50000D01*
G01*
X204441800Y-121250000D01*
G75*
G02*
X204391800Y-121300000I-50000J0D01*
G01*
X203691800Y-121300000D01*
G75*
G02*
X203641800Y-121250000I0J50000D01*
G01*
G37*
G04 #@! TD.AperFunction*
G04 #@! TO.P,U2,34*
G04 #@! TO.N,~EXT_RESET*
G04 #@! TA.AperFunction,SMDPad,CuDef*
G36*
G01*
X203641800Y-121650000D02*
X203641800Y-121550000D01*
G75*
G02*
X203691800Y-121500000I50000J0D01*
G01*
X204391800Y-121500000D01*
G75*
G02*
X204441800Y-121550000I0J-50000D01*
G01*
X204441800Y-121650000D01*
G75*
G02*
X204391800Y-121700000I-50000J0D01*
G01*
X203691800Y-121700000D01*
G75*
G02*
X203641800Y-121650000I0J50000D01*
G01*
G37*
G04 #@! TD.AperFunction*
G04 #@! TO.P,U2,33*
G04 #@! TO.N,Net-(R6-Pad1)*
G04 #@! TA.AperFunction,SMDPad,CuDef*
G36*
G01*
X203641800Y-122050000D02*
X203641800Y-121950000D01*
G75*
G02*
X203691800Y-121900000I50000J0D01*
G01*
X204391800Y-121900000D01*
G75*
G02*
X204441800Y-121950000I0J-50000D01*
G01*
X204441800Y-122050000D01*
G75*
G02*
X204391800Y-122100000I-50000J0D01*
G01*
X203691800Y-122100000D01*
G75*
G02*
X203641800Y-122050000I0J50000D01*
G01*
G37*
G04 #@! TD.AperFunction*
G04 #@! TO.P,U2,32*
G04 #@! TO.N,Net-(R7-Pad1)*
G04 #@! TA.AperFunction,SMDPad,CuDef*
G36*
G01*
X203641800Y-122450000D02*
X203641800Y-122350000D01*
G75*
G02*
X203691800Y-122300000I50000J0D01*
G01*
X204391800Y-122300000D01*
G75*
G02*
X204441800Y-122350000I0J-50000D01*
G01*
X204441800Y-122450000D01*
G75*
G02*
X204391800Y-122500000I-50000J0D01*
G01*
X203691800Y-122500000D01*
G75*
G02*
X203641800Y-122450000I0J50000D01*
G01*
G37*
G04 #@! TD.AperFunction*
G04 #@! TO.P,U2,31*
G04 #@! TO.N,Net-(R8-Pad1)*
G04 #@! TA.AperFunction,SMDPad,CuDef*
G36*
G01*
X203641800Y-122850000D02*
X203641800Y-122750000D01*
G75*
G02*
X203691800Y-122700000I50000J0D01*
G01*
X204391800Y-122700000D01*
G75*
G02*
X204441800Y-122750000I0J-50000D01*
G01*
X204441800Y-122850000D01*
G75*
G02*
X204391800Y-122900000I-50000J0D01*
G01*
X203691800Y-122900000D01*
G75*
G02*
X203641800Y-122850000I0J50000D01*
G01*
G37*
G04 #@! TD.AperFunction*
G04 #@! TO.P,U2,30*
G04 #@! TO.N,+1V2*
G04 #@! TA.AperFunction,SMDPad,CuDef*
G36*
G01*
X203641800Y-123250000D02*
X203641800Y-123150000D01*
G75*
G02*
X203691800Y-123100000I50000J0D01*
G01*
X204391800Y-123100000D01*
G75*
G02*
X204441800Y-123150000I0J-50000D01*
G01*
X204441800Y-123250000D01*
G75*
G02*
X204391800Y-123300000I-50000J0D01*
G01*
X203691800Y-123300000D01*
G75*
G02*
X203641800Y-123250000I0J50000D01*
G01*
G37*
G04 #@! TD.AperFunction*
G04 #@! TO.P,U2,29*
G04 #@! TO.N,Net-(C10-Pad1)*
G04 #@! TA.AperFunction,SMDPad,CuDef*
G36*
G01*
X203641800Y-123650000D02*
X203641800Y-123550000D01*
G75*
G02*
X203691800Y-123500000I50000J0D01*
G01*
X204391800Y-123500000D01*
G75*
G02*
X204441800Y-123550000I0J-50000D01*
G01*
X204441800Y-123650000D01*
G75*
G02*
X204391800Y-123700000I-50000J0D01*
G01*
X203691800Y-123700000D01*
G75*
G02*
X203641800Y-123650000I0J50000D01*
G01*
G37*
G04 #@! TD.AperFunction*
G04 #@! TO.P,U2,28*
G04 #@! TO.N,Net-(C11-Pad1)*
G04 #@! TA.AperFunction,SMDPad,CuDef*
G36*
G01*
X203641800Y-124050000D02*
X203641800Y-123950000D01*
G75*
G02*
X203691800Y-123900000I50000J0D01*
G01*
X204391800Y-123900000D01*
G75*
G02*
X204441800Y-123950000I0J-50000D01*
G01*
X204441800Y-124050000D01*
G75*
G02*
X204391800Y-124100000I-50000J0D01*
G01*
X203691800Y-124100000D01*
G75*
G02*
X203641800Y-124050000I0J50000D01*
G01*
G37*
G04 #@! TD.AperFunction*
G04 #@! TO.P,U2,27*
G04 #@! TO.N,+3V3*
G04 #@! TA.AperFunction,SMDPad,CuDef*
G36*
G01*
X203641800Y-124450000D02*
X203641800Y-124350000D01*
G75*
G02*
X203691800Y-124300000I50000J0D01*
G01*
X204391800Y-124300000D01*
G75*
G02*
X204441800Y-124350000I0J-50000D01*
G01*
X204441800Y-124450000D01*
G75*
G02*
X204391800Y-124500000I-50000J0D01*
G01*
X203691800Y-124500000D01*
G75*
G02*
X203641800Y-124450000I0J50000D01*
G01*
G37*
G04 #@! TD.AperFunction*
G04 #@! TO.P,U2,26*
G04 #@! TO.N,/D_DC+*
G04 #@! TA.AperFunction,SMDPad,CuDef*
G36*
G01*
X203641800Y-124850000D02*
X203641800Y-124750000D01*
G75*
G02*
X203691800Y-124700000I50000J0D01*
G01*
X204391800Y-124700000D01*
G75*
G02*
X204441800Y-124750000I0J-50000D01*
G01*
X204441800Y-124850000D01*
G75*
G02*
X204391800Y-124900000I-50000J0D01*
G01*
X203691800Y-124900000D01*
G75*
G02*
X203641800Y-124850000I0J50000D01*
G01*
G37*
G04 #@! TD.AperFunction*
G04 #@! TO.P,U2,25*
G04 #@! TO.N,/D_DC-*
G04 #@! TA.AperFunction,SMDPad,CuDef*
G36*
G01*
X203641800Y-125250000D02*
X203641800Y-125150000D01*
G75*
G02*
X203691800Y-125100000I50000J0D01*
G01*
X204391800Y-125100000D01*
G75*
G02*
X204441800Y-125150000I0J-50000D01*
G01*
X204441800Y-125250000D01*
G75*
G02*
X204391800Y-125300000I-50000J0D01*
G01*
X203691800Y-125300000D01*
G75*
G02*
X203641800Y-125250000I0J50000D01*
G01*
G37*
G04 #@! TD.AperFunction*
G04 #@! TO.P,U2,24*
G04 #@! TO.N,/DN_D-*
G04 #@! TA.AperFunction,SMDPad,CuDef*
G36*
G01*
X203191800Y-126300000D02*
X203191800Y-125600000D01*
G75*
G02*
X203241800Y-125550000I50000J0D01*
G01*
X203341800Y-125550000D01*
G75*
G02*
X203391800Y-125600000I0J-50000D01*
G01*
X203391800Y-126300000D01*
G75*
G02*
X203341800Y-126350000I-50000J0D01*
G01*
X203241800Y-126350000D01*
G75*
G02*
X203191800Y-126300000I0J50000D01*
G01*
G37*
G04 #@! TD.AperFunction*
G04 #@! TO.P,U2,23*
G04 #@! TO.N,/DN_D+*
G04 #@! TA.AperFunction,SMDPad,CuDef*
G36*
G01*
X202791800Y-126300000D02*
X202791800Y-125600000D01*
G75*
G02*
X202841800Y-125550000I50000J0D01*
G01*
X202941800Y-125550000D01*
G75*
G02*
X202991800Y-125600000I0J-50000D01*
G01*
X202991800Y-126300000D01*
G75*
G02*
X202941800Y-126350000I-50000J0D01*
G01*
X202841800Y-126350000D01*
G75*
G02*
X202791800Y-126300000I0J50000D01*
G01*
G37*
G04 #@! TD.AperFunction*
G04 #@! TO.P,U2,22*
G04 #@! TO.N,/DN_SSTX+*
G04 #@! TA.AperFunction,SMDPad,CuDef*
G36*
G01*
X202391800Y-126300000D02*
X202391800Y-125600000D01*
G75*
G02*
X202441800Y-125550000I50000J0D01*
G01*
X202541800Y-125550000D01*
G75*
G02*
X202591800Y-125600000I0J-50000D01*
G01*
X202591800Y-126300000D01*
G75*
G02*
X202541800Y-126350000I-50000J0D01*
G01*
X202441800Y-126350000D01*
G75*
G02*
X202391800Y-126300000I0J50000D01*
G01*
G37*
G04 #@! TD.AperFunction*
G04 #@! TO.P,U2,21*
G04 #@! TO.N,/DN_SSTX-*
G04 #@! TA.AperFunction,SMDPad,CuDef*
G36*
G01*
X201991800Y-126300000D02*
X201991800Y-125600000D01*
G75*
G02*
X202041800Y-125550000I50000J0D01*
G01*
X202141800Y-125550000D01*
G75*
G02*
X202191800Y-125600000I0J-50000D01*
G01*
X202191800Y-126300000D01*
G75*
G02*
X202141800Y-126350000I-50000J0D01*
G01*
X202041800Y-126350000D01*
G75*
G02*
X201991800Y-126300000I0J50000D01*
G01*
G37*
G04 #@! TD.AperFunction*
G04 #@! TO.P,U2,20*
G04 #@! TO.N,+1V5*
G04 #@! TA.AperFunction,SMDPad,CuDef*
G36*
G01*
X201591800Y-126300000D02*
X201591800Y-125600000D01*
G75*
G02*
X201641800Y-125550000I50000J0D01*
G01*
X201741800Y-125550000D01*
G75*
G02*
X201791800Y-125600000I0J-50000D01*
G01*
X201791800Y-126300000D01*
G75*
G02*
X201741800Y-126350000I-50000J0D01*
G01*
X201641800Y-126350000D01*
G75*
G02*
X201591800Y-126300000I0J50000D01*
G01*
G37*
G04 #@! TD.AperFunction*
G04 #@! TO.P,U2,19*
G04 #@! TO.N,/SSTX-*
G04 #@! TA.AperFunction,SMDPad,CuDef*
G36*
G01*
X201191800Y-126300000D02*
X201191800Y-125600000D01*
G75*
G02*
X201241800Y-125550000I50000J0D01*
G01*
X201341800Y-125550000D01*
G75*
G02*
X201391800Y-125600000I0J-50000D01*
G01*
X201391800Y-126300000D01*
G75*
G02*
X201341800Y-126350000I-50000J0D01*
G01*
X201241800Y-126350000D01*
G75*
G02*
X201191800Y-126300000I0J50000D01*
G01*
G37*
G04 #@! TD.AperFunction*
G04 #@! TO.P,U2,18*
G04 #@! TO.N,/SSTX+*
G04 #@! TA.AperFunction,SMDPad,CuDef*
G36*
G01*
X200791800Y-126300000D02*
X200791800Y-125600000D01*
G75*
G02*
X200841800Y-125550000I50000J0D01*
G01*
X200941800Y-125550000D01*
G75*
G02*
X200991800Y-125600000I0J-50000D01*
G01*
X200991800Y-126300000D01*
G75*
G02*
X200941800Y-126350000I-50000J0D01*
G01*
X200841800Y-126350000D01*
G75*
G02*
X200791800Y-126300000I0J50000D01*
G01*
G37*
G04 #@! TD.AperFunction*
G04 #@! TO.P,U2,17*
G04 #@! TO.N,/DN_SSRX+*
G04 #@! TA.AperFunction,SMDPad,CuDef*
G36*
G01*
X200391800Y-126300000D02*
X200391800Y-125600000D01*
G75*
G02*
X200441800Y-125550000I50000J0D01*
G01*
X200541800Y-125550000D01*
G75*
G02*
X200591800Y-125600000I0J-50000D01*
G01*
X200591800Y-126300000D01*
G75*
G02*
X200541800Y-126350000I-50000J0D01*
G01*
X200441800Y-126350000D01*
G75*
G02*
X200391800Y-126300000I0J50000D01*
G01*
G37*
G04 #@! TD.AperFunction*
G04 #@! TO.P,U2,16*
G04 #@! TO.N,/DN_SSRX-*
G04 #@! TA.AperFunction,SMDPad,CuDef*
G36*
G01*
X199991800Y-126300000D02*
X199991800Y-125600000D01*
G75*
G02*
X200041800Y-125550000I50000J0D01*
G01*
X200141800Y-125550000D01*
G75*
G02*
X200191800Y-125600000I0J-50000D01*
G01*
X200191800Y-126300000D01*
G75*
G02*
X200141800Y-126350000I-50000J0D01*
G01*
X200041800Y-126350000D01*
G75*
G02*
X199991800Y-126300000I0J50000D01*
G01*
G37*
G04 #@! TD.AperFunction*
G04 #@! TO.P,U2,15*
G04 #@! TO.N,+1V5*
G04 #@! TA.AperFunction,SMDPad,CuDef*
G36*
G01*
X199591800Y-126300000D02*
X199591800Y-125600000D01*
G75*
G02*
X199641800Y-125550000I50000J0D01*
G01*
X199741800Y-125550000D01*
G75*
G02*
X199791800Y-125600000I0J-50000D01*
G01*
X199791800Y-126300000D01*
G75*
G02*
X199741800Y-126350000I-50000J0D01*
G01*
X199641800Y-126350000D01*
G75*
G02*
X199591800Y-126300000I0J50000D01*
G01*
G37*
G04 #@! TD.AperFunction*
G04 #@! TO.P,U2,14*
G04 #@! TO.N,/SSRX_DC+*
G04 #@! TA.AperFunction,SMDPad,CuDef*
G36*
G01*
X199191800Y-126300000D02*
X199191800Y-125600000D01*
G75*
G02*
X199241800Y-125550000I50000J0D01*
G01*
X199341800Y-125550000D01*
G75*
G02*
X199391800Y-125600000I0J-50000D01*
G01*
X199391800Y-126300000D01*
G75*
G02*
X199341800Y-126350000I-50000J0D01*
G01*
X199241800Y-126350000D01*
G75*
G02*
X199191800Y-126300000I0J50000D01*
G01*
G37*
G04 #@! TD.AperFunction*
G04 #@! TO.P,U2,13*
G04 #@! TO.N,/SSRX_DC-*
G04 #@! TA.AperFunction,SMDPad,CuDef*
G36*
G01*
X198791800Y-126300000D02*
X198791800Y-125600000D01*
G75*
G02*
X198841800Y-125550000I50000J0D01*
G01*
X198941800Y-125550000D01*
G75*
G02*
X198991800Y-125600000I0J-50000D01*
G01*
X198991800Y-126300000D01*
G75*
G02*
X198941800Y-126350000I-50000J0D01*
G01*
X198841800Y-126350000D01*
G75*
G02*
X198791800Y-126300000I0J50000D01*
G01*
G37*
G04 #@! TD.AperFunction*
G04 #@! TO.P,U2,12*
G04 #@! TO.N,+1V5*
G04 #@! TA.AperFunction,SMDPad,CuDef*
G36*
G01*
X197741800Y-125250000D02*
X197741800Y-125150000D01*
G75*
G02*
X197791800Y-125100000I50000J0D01*
G01*
X198491800Y-125100000D01*
G75*
G02*
X198541800Y-125150000I0J-50000D01*
G01*
X198541800Y-125250000D01*
G75*
G02*
X198491800Y-125300000I-50000J0D01*
G01*
X197791800Y-125300000D01*
G75*
G02*
X197741800Y-125250000I0J50000D01*
G01*
G37*
G04 #@! TD.AperFunction*
G04 #@! TO.P,U2,11*
G04 #@! TO.N,Net-(R5-Pad1)*
G04 #@! TA.AperFunction,SMDPad,CuDef*
G36*
G01*
X197741800Y-124850000D02*
X197741800Y-124750000D01*
G75*
G02*
X197791800Y-124700000I50000J0D01*
G01*
X198491800Y-124700000D01*
G75*
G02*
X198541800Y-124750000I0J-50000D01*
G01*
X198541800Y-124850000D01*
G75*
G02*
X198491800Y-124900000I-50000J0D01*
G01*
X197791800Y-124900000D01*
G75*
G02*
X197741800Y-124850000I0J50000D01*
G01*
G37*
G04 #@! TD.AperFunction*
G04 #@! TO.P,U2,10*
G04 #@! TO.N,+5V*
G04 #@! TA.AperFunction,SMDPad,CuDef*
G36*
G01*
X197741800Y-124450000D02*
X197741800Y-124350000D01*
G75*
G02*
X197791800Y-124300000I50000J0D01*
G01*
X198491800Y-124300000D01*
G75*
G02*
X198541800Y-124350000I0J-50000D01*
G01*
X198541800Y-124450000D01*
G75*
G02*
X198491800Y-124500000I-50000J0D01*
G01*
X197791800Y-124500000D01*
G75*
G02*
X197741800Y-124450000I0J50000D01*
G01*
G37*
G04 #@! TD.AperFunction*
G04 #@! TO.P,U2,9*
G04 #@! TO.N,+3V3*
G04 #@! TA.AperFunction,SMDPad,CuDef*
G36*
G01*
X197741800Y-124050000D02*
X197741800Y-123950000D01*
G75*
G02*
X197791800Y-123900000I50000J0D01*
G01*
X198491800Y-123900000D01*
G75*
G02*
X198541800Y-123950000I0J-50000D01*
G01*
X198541800Y-124050000D01*
G75*
G02*
X198491800Y-124100000I-50000J0D01*
G01*
X197791800Y-124100000D01*
G75*
G02*
X197741800Y-124050000I0J50000D01*
G01*
G37*
G04 #@! TD.AperFunction*
G04 #@! TO.P,U2,8*
G04 #@! TO.N,Net-(R19-Pad1)*
G04 #@! TA.AperFunction,SMDPad,CuDef*
G36*
G01*
X197741800Y-123650000D02*
X197741800Y-123550000D01*
G75*
G02*
X197791800Y-123500000I50000J0D01*
G01*
X198491800Y-123500000D01*
G75*
G02*
X198541800Y-123550000I0J-50000D01*
G01*
X198541800Y-123650000D01*
G75*
G02*
X198491800Y-123700000I-50000J0D01*
G01*
X197791800Y-123700000D01*
G75*
G02*
X197741800Y-123650000I0J50000D01*
G01*
G37*
G04 #@! TD.AperFunction*
G04 #@! TO.P,U2,7*
G04 #@! TO.N,Net-(D10-Pad1)*
G04 #@! TA.AperFunction,SMDPad,CuDef*
G36*
G01*
X197741800Y-123250000D02*
X197741800Y-123150000D01*
G75*
G02*
X197791800Y-123100000I50000J0D01*
G01*
X198491800Y-123100000D01*
G75*
G02*
X198541800Y-123150000I0J-50000D01*
G01*
X198541800Y-123250000D01*
G75*
G02*
X198491800Y-123300000I-50000J0D01*
G01*
X197791800Y-123300000D01*
G75*
G02*
X197741800Y-123250000I0J50000D01*
G01*
G37*
G04 #@! TD.AperFunction*
G04 #@! TO.P,U2,6*
G04 #@! TO.N,Net-(D11-Pad1)*
G04 #@! TA.AperFunction,SMDPad,CuDef*
G36*
G01*
X197741800Y-122850000D02*
X197741800Y-122750000D01*
G75*
G02*
X197791800Y-122700000I50000J0D01*
G01*
X198491800Y-122700000D01*
G75*
G02*
X198541800Y-122750000I0J-50000D01*
G01*
X198541800Y-122850000D01*
G75*
G02*
X198491800Y-122900000I-50000J0D01*
G01*
X197791800Y-122900000D01*
G75*
G02*
X197741800Y-122850000I0J50000D01*
G01*
G37*
G04 #@! TD.AperFunction*
G04 #@! TO.P,U2,5*
G04 #@! TO.N,+3V3*
G04 #@! TA.AperFunction,SMDPad,CuDef*
G36*
G01*
X197741800Y-122450000D02*
X197741800Y-122350000D01*
G75*
G02*
X197791800Y-122300000I50000J0D01*
G01*
X198491800Y-122300000D01*
G75*
G02*
X198541800Y-122350000I0J-50000D01*
G01*
X198541800Y-122450000D01*
G75*
G02*
X198491800Y-122500000I-50000J0D01*
G01*
X197791800Y-122500000D01*
G75*
G02*
X197741800Y-122450000I0J50000D01*
G01*
G37*
G04 #@! TD.AperFunction*
G04 #@! TO.P,U2,4*
G04 #@! TO.N,Net-(D19-Pad1)*
G04 #@! TA.AperFunction,SMDPad,CuDef*
G36*
G01*
X197741800Y-122050000D02*
X197741800Y-121950000D01*
G75*
G02*
X197791800Y-121900000I50000J0D01*
G01*
X198491800Y-121900000D01*
G75*
G02*
X198541800Y-121950000I0J-50000D01*
G01*
X198541800Y-122050000D01*
G75*
G02*
X198491800Y-122100000I-50000J0D01*
G01*
X197791800Y-122100000D01*
G75*
G02*
X197741800Y-122050000I0J50000D01*
G01*
G37*
G04 #@! TD.AperFunction*
G04 #@! TO.P,U2,3*
G04 #@! TO.N,+5V*
G04 #@! TA.AperFunction,SMDPad,CuDef*
G36*
G01*
X197741800Y-121650000D02*
X197741800Y-121550000D01*
G75*
G02*
X197791800Y-121500000I50000J0D01*
G01*
X198491800Y-121500000D01*
G75*
G02*
X198541800Y-121550000I0J-50000D01*
G01*
X198541800Y-121650000D01*
G75*
G02*
X198491800Y-121700000I-50000J0D01*
G01*
X197791800Y-121700000D01*
G75*
G02*
X197741800Y-121650000I0J50000D01*
G01*
G37*
G04 #@! TD.AperFunction*
G04 #@! TO.P,U2,2*
G04 #@! TO.N,Net-(L1-Pad2)*
G04 #@! TA.AperFunction,SMDPad,CuDef*
G36*
G01*
X197741800Y-121250000D02*
X197741800Y-121150000D01*
G75*
G02*
X197791800Y-121100000I50000J0D01*
G01*
X198491800Y-121100000D01*
G75*
G02*
X198541800Y-121150000I0J-50000D01*
G01*
X198541800Y-121250000D01*
G75*
G02*
X198491800Y-121300000I-50000J0D01*
G01*
X197791800Y-121300000D01*
G75*
G02*
X197741800Y-121250000I0J50000D01*
G01*
G37*
G04 #@! TD.AperFunction*
G04 #@! TO.P,U2,1*
G04 #@! TO.N,GND*
G04 #@! TA.AperFunction,SMDPad,CuDef*
G36*
G01*
X197741800Y-120850000D02*
X197741800Y-120750000D01*
G75*
G02*
X197791800Y-120700000I50000J0D01*
G01*
X198491800Y-120700000D01*
G75*
G02*
X198541800Y-120750000I0J-50000D01*
G01*
X198541800Y-120850000D01*
G75*
G02*
X198491800Y-120900000I-50000J0D01*
G01*
X197791800Y-120900000D01*
G75*
G02*
X197741800Y-120850000I0J50000D01*
G01*
G37*
G04 #@! TD.AperFunction*
G04 #@! TD*
G04 #@! TO.P,C7,2*
G04 #@! TO.N,/DN_SSTX-*
G04 #@! TA.AperFunction,SMDPad,CuDef*
G36*
G01*
X204733150Y-129785014D02*
X204733150Y-130260014D01*
G75*
G02*
X204495650Y-130497514I-237500J0D01*
G01*
X203895650Y-130497514D01*
G75*
G02*
X203658150Y-130260014I0J237500D01*
G01*
X203658150Y-129785014D01*
G75*
G02*
X203895650Y-129547514I237500J0D01*
G01*
X204495650Y-129547514D01*
G75*
G02*
X204733150Y-129785014I0J-237500D01*
G01*
G37*
G04 #@! TD.AperFunction*
G04 #@! TO.P,C7,1*
G04 #@! TO.N,/DN_TX_AC-*
G04 #@! TA.AperFunction,SMDPad,CuDef*
G36*
G01*
X206458150Y-129785014D02*
X206458150Y-130260014D01*
G75*
G02*
X206220650Y-130497514I-237500J0D01*
G01*
X205620650Y-130497514D01*
G75*
G02*
X205383150Y-130260014I0J237500D01*
G01*
X205383150Y-129785014D01*
G75*
G02*
X205620650Y-129547514I237500J0D01*
G01*
X206220650Y-129547514D01*
G75*
G02*
X206458150Y-129785014I0J-237500D01*
G01*
G37*
G04 #@! TD.AperFunction*
G04 #@! TD*
G04 #@! TO.P,C8,1*
G04 #@! TO.N,/DN_TX_AC+*
G04 #@! TA.AperFunction,SMDPad,CuDef*
G36*
G01*
X206458150Y-128285011D02*
X206458150Y-128760011D01*
G75*
G02*
X206220650Y-128997511I-237500J0D01*
G01*
X205620650Y-128997511D01*
G75*
G02*
X205383150Y-128760011I0J237500D01*
G01*
X205383150Y-128285011D01*
G75*
G02*
X205620650Y-128047511I237500J0D01*
G01*
X206220650Y-128047511D01*
G75*
G02*
X206458150Y-128285011I0J-237500D01*
G01*
G37*
G04 #@! TD.AperFunction*
G04 #@! TO.P,C8,2*
G04 #@! TO.N,/DN_SSTX+*
G04 #@! TA.AperFunction,SMDPad,CuDef*
G36*
G01*
X204733150Y-128285011D02*
X204733150Y-128760011D01*
G75*
G02*
X204495650Y-128997511I-237500J0D01*
G01*
X203895650Y-128997511D01*
G75*
G02*
X203658150Y-128760011I0J237500D01*
G01*
X203658150Y-128285011D01*
G75*
G02*
X203895650Y-128047511I237500J0D01*
G01*
X204495650Y-128047511D01*
G75*
G02*
X204733150Y-128285011I0J-237500D01*
G01*
G37*
G04 #@! TD.AperFunction*
G04 #@! TD*
G04 #@! TO.P,C10,1*
G04 #@! TO.N,Net-(C10-Pad1)*
G04 #@! TA.AperFunction,SMDPad,CuDef*
G36*
G01*
X210150000Y-120462500D02*
X210150000Y-120937500D01*
G75*
G02*
X209912500Y-121175000I-237500J0D01*
G01*
X209312500Y-121175000D01*
G75*
G02*
X209075000Y-120937500I0J237500D01*
G01*
X209075000Y-120462500D01*
G75*
G02*
X209312500Y-120225000I237500J0D01*
G01*
X209912500Y-120225000D01*
G75*
G02*
X210150000Y-120462500I0J-237500D01*
G01*
G37*
G04 #@! TD.AperFunction*
G04 #@! TO.P,C10,2*
G04 #@! TO.N,GND*
G04 #@! TA.AperFunction,SMDPad,CuDef*
G36*
G01*
X208425000Y-120462500D02*
X208425000Y-120937500D01*
G75*
G02*
X208187500Y-121175000I-237500J0D01*
G01*
X207587500Y-121175000D01*
G75*
G02*
X207350000Y-120937500I0J237500D01*
G01*
X207350000Y-120462500D01*
G75*
G02*
X207587500Y-120225000I237500J0D01*
G01*
X208187500Y-120225000D01*
G75*
G02*
X208425000Y-120462500I0J-237500D01*
G01*
G37*
G04 #@! TD.AperFunction*
G04 #@! TD*
G04 #@! TO.P,C11,2*
G04 #@! TO.N,GND*
G04 #@! TA.AperFunction,SMDPad,CuDef*
G36*
G01*
X209075000Y-125937500D02*
X209075000Y-125462500D01*
G75*
G02*
X209312500Y-125225000I237500J0D01*
G01*
X209912500Y-125225000D01*
G75*
G02*
X210150000Y-125462500I0J-237500D01*
G01*
X210150000Y-125937500D01*
G75*
G02*
X209912500Y-126175000I-237500J0D01*
G01*
X209312500Y-126175000D01*
G75*
G02*
X209075000Y-125937500I0J237500D01*
G01*
G37*
G04 #@! TD.AperFunction*
G04 #@! TO.P,C11,1*
G04 #@! TO.N,Net-(C11-Pad1)*
G04 #@! TA.AperFunction,SMDPad,CuDef*
G36*
G01*
X207350000Y-125937500D02*
X207350000Y-125462500D01*
G75*
G02*
X207587500Y-125225000I237500J0D01*
G01*
X208187500Y-125225000D01*
G75*
G02*
X208425000Y-125462500I0J-237500D01*
G01*
X208425000Y-125937500D01*
G75*
G02*
X208187500Y-126175000I-237500J0D01*
G01*
X207587500Y-126175000D01*
G75*
G02*
X207350000Y-125937500I0J237500D01*
G01*
G37*
G04 #@! TD.AperFunction*
G04 #@! TD*
G04 #@! TO.P,C13,2*
G04 #@! TO.N,GND*
G04 #@! TA.AperFunction,SMDPad,CuDef*
G36*
G01*
X201250000Y-112762500D02*
X201250000Y-113237500D01*
G75*
G02*
X201012500Y-113475000I-237500J0D01*
G01*
X200412500Y-113475000D01*
G75*
G02*
X200175000Y-113237500I0J237500D01*
G01*
X200175000Y-112762500D01*
G75*
G02*
X200412500Y-112525000I237500J0D01*
G01*
X201012500Y-112525000D01*
G75*
G02*
X201250000Y-112762500I0J-237500D01*
G01*
G37*
G04 #@! TD.AperFunction*
G04 #@! TO.P,C13,1*
G04 #@! TO.N,~EXT_RESET*
G04 #@! TA.AperFunction,SMDPad,CuDef*
G36*
G01*
X202975000Y-112762500D02*
X202975000Y-113237500D01*
G75*
G02*
X202737500Y-113475000I-237500J0D01*
G01*
X202137500Y-113475000D01*
G75*
G02*
X201900000Y-113237500I0J237500D01*
G01*
X201900000Y-112762500D01*
G75*
G02*
X202137500Y-112525000I237500J0D01*
G01*
X202737500Y-112525000D01*
G75*
G02*
X202975000Y-112762500I0J-237500D01*
G01*
G37*
G04 #@! TD.AperFunction*
G04 #@! TD*
G04 #@! TO.P,C19,1*
G04 #@! TO.N,+5V*
G04 #@! TA.AperFunction,SMDPad,CuDef*
G36*
G01*
X212200000Y-125937500D02*
X212200000Y-125462500D01*
G75*
G02*
X212437500Y-125225000I237500J0D01*
G01*
X213037500Y-125225000D01*
G75*
G02*
X213275000Y-125462500I0J-237500D01*
G01*
X213275000Y-125937500D01*
G75*
G02*
X213037500Y-126175000I-237500J0D01*
G01*
X212437500Y-126175000D01*
G75*
G02*
X212200000Y-125937500I0J237500D01*
G01*
G37*
G04 #@! TD.AperFunction*
G04 #@! TO.P,C19,2*
G04 #@! TO.N,Net-(C19-Pad2)*
G04 #@! TA.AperFunction,SMDPad,CuDef*
G36*
G01*
X213925000Y-125937500D02*
X213925000Y-125462500D01*
G75*
G02*
X214162500Y-125225000I237500J0D01*
G01*
X214762500Y-125225000D01*
G75*
G02*
X215000000Y-125462500I0J-237500D01*
G01*
X215000000Y-125937500D01*
G75*
G02*
X214762500Y-126175000I-237500J0D01*
G01*
X214162500Y-126175000D01*
G75*
G02*
X213925000Y-125937500I0J237500D01*
G01*
G37*
G04 #@! TD.AperFunction*
G04 #@! TD*
G04 #@! TO.P,C44,1*
G04 #@! TO.N,+1V5*
G04 #@! TA.AperFunction,SMDPad,CuDef*
G36*
G01*
X197712500Y-117737500D02*
X197712500Y-117262500D01*
G75*
G02*
X197950000Y-117025000I237500J0D01*
G01*
X198550000Y-117025000D01*
G75*
G02*
X198787500Y-117262500I0J-237500D01*
G01*
X198787500Y-117737500D01*
G75*
G02*
X198550000Y-117975000I-237500J0D01*
G01*
X197950000Y-117975000D01*
G75*
G02*
X197712500Y-117737500I0J237500D01*
G01*
G37*
G04 #@! TD.AperFunction*
G04 #@! TO.P,C44,2*
G04 #@! TO.N,GND*
G04 #@! TA.AperFunction,SMDPad,CuDef*
G36*
G01*
X199437500Y-117737500D02*
X199437500Y-117262500D01*
G75*
G02*
X199675000Y-117025000I237500J0D01*
G01*
X200275000Y-117025000D01*
G75*
G02*
X200512500Y-117262500I0J-237500D01*
G01*
X200512500Y-117737500D01*
G75*
G02*
X200275000Y-117975000I-237500J0D01*
G01*
X199675000Y-117975000D01*
G75*
G02*
X199437500Y-117737500I0J237500D01*
G01*
G37*
G04 #@! TD.AperFunction*
G04 #@! TD*
G04 #@! TO.P,C51,1*
G04 #@! TO.N,+5V*
G04 #@! TA.AperFunction,SMDPad,CuDef*
G36*
G01*
X197000000Y-125262500D02*
X197000000Y-125737500D01*
G75*
G02*
X196762500Y-125975000I-237500J0D01*
G01*
X196162500Y-125975000D01*
G75*
G02*
X195925000Y-125737500I0J237500D01*
G01*
X195925000Y-125262500D01*
G75*
G02*
X196162500Y-125025000I237500J0D01*
G01*
X196762500Y-125025000D01*
G75*
G02*
X197000000Y-125262500I0J-237500D01*
G01*
G37*
G04 #@! TD.AperFunction*
G04 #@! TO.P,C51,2*
G04 #@! TO.N,GND*
G04 #@! TA.AperFunction,SMDPad,CuDef*
G36*
G01*
X195275000Y-125262500D02*
X195275000Y-125737500D01*
G75*
G02*
X195037500Y-125975000I-237500J0D01*
G01*
X194437500Y-125975000D01*
G75*
G02*
X194200000Y-125737500I0J237500D01*
G01*
X194200000Y-125262500D01*
G75*
G02*
X194437500Y-125025000I237500J0D01*
G01*
X195037500Y-125025000D01*
G75*
G02*
X195275000Y-125262500I0J-237500D01*
G01*
G37*
G04 #@! TD.AperFunction*
G04 #@! TD*
G04 #@! TO.P,D2,2*
G04 #@! TO.N,Net-(D2-Pad2)*
G04 #@! TA.AperFunction,SMDPad,CuDef*
G36*
G01*
X190500000Y-116987500D02*
X190500000Y-116512500D01*
G75*
G02*
X190737500Y-116275000I237500J0D01*
G01*
X191312500Y-116275000D01*
G75*
G02*
X191550000Y-116512500I0J-237500D01*
G01*
X191550000Y-116987500D01*
G75*
G02*
X191312500Y-117225000I-237500J0D01*
G01*
X190737500Y-117225000D01*
G75*
G02*
X190500000Y-116987500I0J237500D01*
G01*
G37*
G04 #@! TD.AperFunction*
G04 #@! TO.P,D2,1*
G04 #@! TO.N,GND*
G04 #@! TA.AperFunction,SMDPad,CuDef*
G36*
G01*
X188750000Y-116987500D02*
X188750000Y-116512500D01*
G75*
G02*
X188987500Y-116275000I237500J0D01*
G01*
X189562500Y-116275000D01*
G75*
G02*
X189800000Y-116512500I0J-237500D01*
G01*
X189800000Y-116987500D01*
G75*
G02*
X189562500Y-117225000I-237500J0D01*
G01*
X188987500Y-117225000D01*
G75*
G02*
X188750000Y-116987500I0J237500D01*
G01*
G37*
G04 #@! TD.AperFunction*
G04 #@! TD*
G04 #@! TO.P,L1,1*
G04 #@! TO.N,+1V5*
G04 #@! TA.AperFunction,SMDPad,CuDef*
G36*
G01*
X195150000Y-116925000D02*
X196850000Y-116925000D01*
G75*
G02*
X197100000Y-117175000I0J-250000D01*
G01*
X197100000Y-118100000D01*
G75*
G02*
X196850000Y-118350000I-250000J0D01*
G01*
X195150000Y-118350000D01*
G75*
G02*
X194900000Y-118100000I0J250000D01*
G01*
X194900000Y-117175000D01*
G75*
G02*
X195150000Y-116925000I250000J0D01*
G01*
G37*
G04 #@! TD.AperFunction*
G04 #@! TO.P,L1,2*
G04 #@! TO.N,Net-(L1-Pad2)*
G04 #@! TA.AperFunction,SMDPad,CuDef*
G36*
G01*
X195150000Y-119250000D02*
X196850000Y-119250000D01*
G75*
G02*
X197100000Y-119500000I0J-250000D01*
G01*
X197100000Y-120425000D01*
G75*
G02*
X196850000Y-120675000I-250000J0D01*
G01*
X195150000Y-120675000D01*
G75*
G02*
X194900000Y-120425000I0J250000D01*
G01*
X194900000Y-119500000D01*
G75*
G02*
X195150000Y-119250000I250000J0D01*
G01*
G37*
G04 #@! TD.AperFunction*
G04 #@! TD*
G04 #@! TO.P,R3,1*
G04 #@! TO.N,+3V3*
G04 #@! TA.AperFunction,SMDPad,CuDef*
G36*
G01*
X226500000Y-112062500D02*
X226500000Y-112537500D01*
G75*
G02*
X226262500Y-112775000I-237500J0D01*
G01*
X225762500Y-112775000D01*
G75*
G02*
X225525000Y-112537500I0J237500D01*
G01*
X225525000Y-112062500D01*
G75*
G02*
X225762500Y-111825000I237500J0D01*
G01*
X226262500Y-111825000D01*
G75*
G02*
X226500000Y-112062500I0J-237500D01*
G01*
G37*
G04 #@! TD.AperFunction*
G04 #@! TO.P,R3,2*
G04 #@! TO.N,~EXT_RESET*
G04 #@! TA.AperFunction,SMDPad,CuDef*
G36*
G01*
X224675000Y-112062500D02*
X224675000Y-112537500D01*
G75*
G02*
X224437500Y-112775000I-237500J0D01*
G01*
X223937500Y-112775000D01*
G75*
G02*
X223700000Y-112537500I0J237500D01*
G01*
X223700000Y-112062500D01*
G75*
G02*
X223937500Y-111825000I237500J0D01*
G01*
X224437500Y-111825000D01*
G75*
G02*
X224675000Y-112062500I0J-237500D01*
G01*
G37*
G04 #@! TD.AperFunction*
G04 #@! TD*
G04 #@! TO.P,R4,2*
G04 #@! TO.N,~EXT_RESET*
G04 #@! TA.AperFunction,SMDPad,CuDef*
G36*
G01*
X202000000Y-111637500D02*
X202000000Y-111162500D01*
G75*
G02*
X202237500Y-110925000I237500J0D01*
G01*
X202737500Y-110925000D01*
G75*
G02*
X202975000Y-111162500I0J-237500D01*
G01*
X202975000Y-111637500D01*
G75*
G02*
X202737500Y-111875000I-237500J0D01*
G01*
X202237500Y-111875000D01*
G75*
G02*
X202000000Y-111637500I0J237500D01*
G01*
G37*
G04 #@! TD.AperFunction*
G04 #@! TO.P,R4,1*
G04 #@! TO.N,+3V3*
G04 #@! TA.AperFunction,SMDPad,CuDef*
G36*
G01*
X200175000Y-111637500D02*
X200175000Y-111162500D01*
G75*
G02*
X200412500Y-110925000I237500J0D01*
G01*
X200912500Y-110925000D01*
G75*
G02*
X201150000Y-111162500I0J-237500D01*
G01*
X201150000Y-111637500D01*
G75*
G02*
X200912500Y-111875000I-237500J0D01*
G01*
X200412500Y-111875000D01*
G75*
G02*
X200175000Y-111637500I0J237500D01*
G01*
G37*
G04 #@! TD.AperFunction*
G04 #@! TD*
D26*
G04 #@! TO.P,U4,1*
G04 #@! TO.N,+5V_SW*
X214950000Y-124050000D03*
G04 #@! TO.P,U4,2*
G04 #@! TO.N,GND*
X214950000Y-123100000D03*
G04 #@! TO.P,U4,3*
G04 #@! TO.N,Net-(U4-Pad3)*
X214950000Y-122150000D03*
G04 #@! TO.P,U4,4*
G04 #@! TO.N,Net-(R15-Pad1)*
X212250000Y-122150000D03*
G04 #@! TO.P,U4,5*
G04 #@! TO.N,+5V*
X212250000Y-124050000D03*
G04 #@! TD*
D27*
G04 #@! TO.P,Y1,1*
G04 #@! TO.N,Net-(C11-Pad1)*
X207700000Y-124050000D03*
G04 #@! TO.P,Y1,2*
G04 #@! TO.N,GND*
X209900000Y-124050000D03*
G04 #@! TO.P,Y1,3*
G04 #@! TO.N,Net-(C10-Pad1)*
X209900000Y-122350000D03*
G04 #@! TO.P,Y1,4*
G04 #@! TO.N,GND*
X207700000Y-122350000D03*
G04 #@! TD*
G04 #@! TO.P,R19,2*
G04 #@! TO.N,GND*
G04 #@! TA.AperFunction,SMDPad,CuDef*
G36*
G01*
X195175000Y-123762500D02*
X195175000Y-124237500D01*
G75*
G02*
X194937500Y-124475000I-237500J0D01*
G01*
X194437500Y-124475000D01*
G75*
G02*
X194200000Y-124237500I0J237500D01*
G01*
X194200000Y-123762500D01*
G75*
G02*
X194437500Y-123525000I237500J0D01*
G01*
X194937500Y-123525000D01*
G75*
G02*
X195175000Y-123762500I0J-237500D01*
G01*
G37*
G04 #@! TD.AperFunction*
G04 #@! TO.P,R19,1*
G04 #@! TO.N,Net-(R19-Pad1)*
G04 #@! TA.AperFunction,SMDPad,CuDef*
G36*
G01*
X197000000Y-123762500D02*
X197000000Y-124237500D01*
G75*
G02*
X196762500Y-124475000I-237500J0D01*
G01*
X196262500Y-124475000D01*
G75*
G02*
X196025000Y-124237500I0J237500D01*
G01*
X196025000Y-123762500D01*
G75*
G02*
X196262500Y-123525000I237500J0D01*
G01*
X196762500Y-123525000D01*
G75*
G02*
X197000000Y-123762500I0J-237500D01*
G01*
G37*
G04 #@! TD.AperFunction*
G04 #@! TD*
D19*
G04 #@! TO.P,FID1,*
G04 #@! TO.N,*
X173736000Y-116205000D03*
G04 #@! TD*
D28*
G04 #@! TO.P,FID2,*
G04 #@! TO.N,*
X175768000Y-116967000D03*
G04 #@! TD*
D19*
G04 #@! TO.P,FID3,*
G04 #@! TO.N,*
X233886000Y-110998000D03*
G04 #@! TD*
D28*
G04 #@! TO.P,FID4,*
G04 #@! TO.N,*
X175768000Y-129413000D03*
G04 #@! TD*
D19*
G04 #@! TO.P,FID5,*
G04 #@! TO.N,*
X173736000Y-130556000D03*
G04 #@! TD*
D28*
G04 #@! TO.P,FID6,*
G04 #@! TO.N,*
X233886000Y-114000000D03*
G04 #@! TD*
D19*
G04 #@! TO.P,FID7,*
G04 #@! TO.N,*
X233886000Y-129318000D03*
G04 #@! TD*
D28*
G04 #@! TO.P,FID8,*
G04 #@! TO.N,*
X233886000Y-126000000D03*
G04 #@! TD*
D29*
G04 #@! TO.N,*
X235118000Y-129318000D03*
X173736000Y-115064000D03*
X175768000Y-116032000D03*
X173736000Y-131736000D03*
X235198000Y-110998000D03*
X234800000Y-114000000D03*
X234800000Y-126000000D03*
X174213000Y-129413000D03*
G04 #@! TO.N,GND*
X199650000Y-121300000D03*
X200600000Y-123650000D03*
X200300000Y-124850000D03*
X201300000Y-122750000D03*
X202575000Y-124650000D03*
X203000000Y-121400000D03*
X199700000Y-118160000D03*
X219130000Y-120158000D03*
X219140000Y-127086000D03*
X207887500Y-121512500D03*
X209900000Y-124950000D03*
X198141800Y-120458200D03*
X195400000Y-124079000D03*
X211045000Y-119555000D03*
X210650000Y-117100000D03*
X200700000Y-121400000D03*
X203825000Y-125775000D03*
X206567500Y-125382500D03*
X199600000Y-127400000D03*
X202917500Y-127332500D03*
X195483990Y-125496010D03*
X197160000Y-126400000D03*
X205850000Y-116800000D03*
X212850000Y-123000000D03*
X202429010Y-121800000D03*
X198950000Y-129850000D03*
X216575000Y-118075000D03*
X213800000Y-120500000D03*
X221854300Y-119890000D03*
X221851500Y-122890000D03*
X210375500Y-109121990D03*
X203771500Y-109121990D03*
X216979500Y-109121990D03*
X207073500Y-109121990D03*
X213677500Y-109121990D03*
X177660000Y-110299500D03*
X180263500Y-110299500D03*
X182930500Y-110299500D03*
X185470500Y-110299500D03*
X187947000Y-110299500D03*
X190550500Y-110299500D03*
X215923960Y-123100000D03*
X213650000Y-122050000D03*
X216500000Y-123100000D03*
X202348500Y-109051500D03*
X195900000Y-109156500D03*
X175000000Y-110300000D03*
X189350000Y-117575000D03*
X217850000Y-125000000D03*
X229500000Y-112300000D03*
X216800000Y-127000000D03*
X172500000Y-103500000D03*
X172500000Y-137500000D03*
X236500000Y-137500000D03*
X236500000Y-103500000D03*
X172500000Y-105500000D03*
X172500000Y-107500000D03*
X172500000Y-109500000D03*
X172500000Y-111500000D03*
X172500000Y-113500000D03*
X172500000Y-115500000D03*
X172500000Y-117500000D03*
X172500000Y-119500000D03*
X172500000Y-121500000D03*
X172500000Y-123500000D03*
X172500000Y-125500000D03*
X172500000Y-127500000D03*
X172500000Y-129500000D03*
X172500000Y-131500000D03*
X172500000Y-133500000D03*
X172500000Y-135500000D03*
X174500000Y-137500000D03*
X176500000Y-137500000D03*
X178500000Y-137500000D03*
X180500000Y-137500000D03*
X182500000Y-137500000D03*
X184500000Y-137500000D03*
X186500000Y-137500000D03*
X188500000Y-137500000D03*
X190500000Y-137500000D03*
X192500000Y-137500000D03*
X194500000Y-137500000D03*
X196500000Y-137500000D03*
X198500000Y-137500000D03*
X200500000Y-137500000D03*
X202500000Y-137500000D03*
X204500000Y-137500000D03*
X206500000Y-137500000D03*
X208500000Y-137500000D03*
X210500000Y-137500000D03*
X212500000Y-137500000D03*
X214500000Y-137500000D03*
X216500000Y-137500000D03*
X218500000Y-137500000D03*
X220500000Y-137500000D03*
X222500000Y-137500000D03*
X224500000Y-137500000D03*
X226500000Y-137500000D03*
X228500000Y-137500000D03*
X230500000Y-137500000D03*
X232500000Y-137500000D03*
X234500000Y-137500000D03*
X236500000Y-135500000D03*
X236500000Y-133500000D03*
X236500000Y-131500000D03*
X236500000Y-129500000D03*
X236500000Y-127500000D03*
X236500000Y-125500000D03*
X236500000Y-123500000D03*
X236500000Y-121500000D03*
X236500000Y-119500000D03*
X236500000Y-117500000D03*
X236500000Y-115500000D03*
X236500000Y-113500000D03*
X236500000Y-111500000D03*
X236500000Y-109500000D03*
X236500000Y-107500000D03*
X236500000Y-105500000D03*
X234500000Y-103500000D03*
X232500000Y-103500000D03*
X230500000Y-103500000D03*
X228500000Y-103500000D03*
X226500000Y-103500000D03*
X224500000Y-103500000D03*
X222500000Y-103500000D03*
X220500000Y-103500000D03*
X218500000Y-103500000D03*
X216500000Y-103500000D03*
X214500000Y-103500000D03*
X212500000Y-103500000D03*
X210500000Y-103500000D03*
X208500000Y-103500000D03*
X206500000Y-103500000D03*
X204500000Y-103500000D03*
X202500000Y-103500000D03*
X200500000Y-103500000D03*
X198500000Y-103500000D03*
X196500000Y-103500000D03*
X194500000Y-103500000D03*
X192500000Y-103500000D03*
X190500000Y-103500000D03*
X188500000Y-103500000D03*
X186500000Y-103500000D03*
X184500000Y-103500000D03*
X182500000Y-103500000D03*
X180500000Y-103500000D03*
X178500000Y-103500000D03*
X176500000Y-103500000D03*
X174500000Y-103500000D03*
X184000000Y-131800000D03*
X191100000Y-118850000D03*
X191100000Y-120900000D03*
X189150000Y-123250000D03*
X191060000Y-125540000D03*
X191060000Y-127587500D03*
X197400000Y-133100000D03*
X197400000Y-135050000D03*
X197300000Y-130850000D03*
X197300000Y-132550000D03*
G04 #@! TO.N,+3V3*
X206400000Y-126150000D03*
X205320000Y-124640000D03*
X205232000Y-119989600D03*
X200490000Y-118570000D03*
X196400000Y-122200000D03*
X201450000Y-111506000D03*
X197367770Y-124092113D03*
X204250000Y-127500000D03*
X199582500Y-128467500D03*
X203050000Y-128200000D03*
X210125000Y-115175000D03*
X214200000Y-114900000D03*
X216612500Y-117037500D03*
X205250000Y-114500000D03*
X226700000Y-112300000D03*
X190180000Y-129300000D03*
X189650000Y-119000000D03*
X189650000Y-120800000D03*
X189582500Y-127550000D03*
X189550000Y-125700000D03*
X195665000Y-135585000D03*
X195665000Y-132485000D03*
X199350000Y-130450000D03*
X199350000Y-132950000D03*
G04 #@! TO.N,+1V5*
X197675500Y-125730000D03*
X199650000Y-126733200D03*
X201691800Y-126733200D03*
X198850000Y-118850000D03*
G04 #@! TO.N,+1V2*
X206400000Y-123000000D03*
X199740000Y-119000000D03*
X206800000Y-132200000D03*
G04 #@! TO.N,+5V*
X194494000Y-109156500D03*
X196400000Y-121200000D03*
D30*
X222700000Y-110000000D03*
D29*
X211700000Y-126600000D03*
X212700000Y-126600000D03*
X211700000Y-126000000D03*
X212700000Y-125000000D03*
X211700000Y-125362500D03*
G04 #@! TO.N,Net-(D2-Pad2)*
X190250000Y-117000000D03*
G04 #@! TO.N,/eeprom/ISP_MOSI*
X208950000Y-116200000D03*
X216500000Y-111220000D03*
G04 #@! TO.N,/eeprom/ISP_SCK*
X213350000Y-116400000D03*
G04 #@! TO.N,Net-(R5-Pad1)*
X197400000Y-127600000D03*
G04 #@! TO.N,Net-(R6-Pad1)*
X205700000Y-121250000D03*
G04 #@! TO.N,Net-(R7-Pad1)*
X206400000Y-121750000D03*
G04 #@! TO.N,Net-(R8-Pad1)*
X205700000Y-122300000D03*
G04 #@! TO.N,Net-(R10-Pad2)*
X208900000Y-118600000D03*
X214550000Y-118050000D03*
G04 #@! TO.N,/eeprom/~ISP_CS*
X211750000Y-115250000D03*
G04 #@! TO.N,+5V_SW*
X221488000Y-127000000D03*
X223868000Y-125890000D03*
X219250000Y-125250000D03*
G04 #@! TO.N,Net-(D7-Pad1)*
X204600000Y-119500000D03*
G04 #@! TO.N,Net-(D8-Pad1)*
X203050000Y-118400000D03*
G04 #@! TO.N,Net-(D9-Pad1)*
X203849982Y-117750000D03*
G04 #@! TO.N,Net-(D10-Pad1)*
X185400000Y-111100000D03*
G04 #@! TO.N,Net-(D11-Pad1)*
X188000000Y-111100000D03*
G04 #@! TO.N,Net-(D12-Pad1)*
X190400000Y-111100000D03*
X194900000Y-114200000D03*
X192400000Y-114200000D03*
G04 #@! TO.N,+5VP*
X185797500Y-133402500D03*
X186375000Y-133400000D03*
X186925000Y-133400000D03*
G04 #@! TO.N,~EXT_RESET*
X202400000Y-113700000D03*
X206400000Y-120600000D03*
X205850000Y-116200000D03*
X208822222Y-115327778D03*
X219233500Y-111156500D03*
G04 #@! TO.N,Net-(D19-Pad1)*
X195600000Y-121700000D03*
G04 #@! TO.N,Net-(D20-Pad1)*
X219700000Y-123550000D03*
X227600000Y-112300000D03*
G04 #@! TO.N,/SSTX-*
X201655104Y-128169290D03*
X189350712Y-119520104D03*
X196950710Y-132055104D03*
G04 #@! TO.N,/SSTX+*
X200945104Y-128169288D03*
X196950712Y-131345104D03*
X189350710Y-120230104D03*
G04 #@! TO.N,/SSRX-*
X189350712Y-126265104D03*
G04 #@! TO.N,/SSRX+*
X189350710Y-126975104D03*
G04 #@! TO.N,/D_DC-*
X204809159Y-125950000D03*
X197300000Y-133730841D03*
G04 #@! TO.N,/D_DC+*
X205519159Y-125950000D03*
X197300000Y-134440841D03*
G04 #@! TD*
D31*
G04 #@! TO.N,*
X233886000Y-129318000D02*
X235118000Y-129318000D01*
X235118000Y-129318000D02*
X235118000Y-129318000D01*
X173736000Y-116205000D02*
X173736000Y-115064000D01*
X173736000Y-115064000D02*
X173736000Y-115064000D01*
X175768000Y-116967000D02*
X175768000Y-116032000D01*
X175768000Y-116032000D02*
X175768000Y-116032000D01*
X173736000Y-130556000D02*
X173736000Y-131736000D01*
X173736000Y-131736000D02*
X173736000Y-131736000D01*
X233886000Y-110998000D02*
X235198000Y-110998000D01*
X235198000Y-110998000D02*
X235198000Y-110998000D01*
X233886000Y-114000000D02*
X234800000Y-114000000D01*
X233886000Y-126000000D02*
X234800000Y-126000000D01*
X234800000Y-126000000D02*
X234800000Y-126000000D01*
X175768000Y-129413000D02*
X174213000Y-129413000D01*
X174213000Y-129413000D02*
X174213000Y-129413000D01*
D32*
G04 #@! TO.N,GND*
X172500000Y-103500000D02*
X172500000Y-103500000D01*
X172500000Y-103500000D02*
X172500000Y-105500000D01*
X172500000Y-110000000D02*
X172500000Y-111500000D01*
X172500000Y-137500000D02*
X172500000Y-137500000D01*
X236500000Y-137500000D02*
X236500000Y-137500000D01*
X213650000Y-121300000D02*
X213650000Y-121493999D01*
D31*
X198891800Y-120800000D02*
X201091800Y-123000000D01*
X198141800Y-120800000D02*
X198891800Y-120800000D01*
X207550000Y-120612500D02*
X207487500Y-120550000D01*
D32*
X207887500Y-122162500D02*
X207700000Y-122350000D01*
X207887500Y-120700000D02*
X207887500Y-121512500D01*
X209900000Y-125412500D02*
X209612500Y-125700000D01*
X209900000Y-124050000D02*
X209900000Y-124950000D01*
D33*
X219597500Y-127086000D02*
X219140000Y-127086000D01*
D32*
X207887500Y-121512500D02*
X207887500Y-122162500D01*
X209900000Y-124950000D02*
X209900000Y-125412500D01*
X199700000Y-117775000D02*
X199975000Y-117500000D01*
X199700000Y-118160000D02*
X199700000Y-117775000D01*
D31*
X198141800Y-120800000D02*
X198141800Y-120558200D01*
X198141800Y-120558200D02*
X198141800Y-120458200D01*
X198141800Y-120458200D02*
X198141800Y-120458200D01*
X210650000Y-116900000D02*
X210650000Y-117100000D01*
X210950000Y-116750000D02*
X210800000Y-116750000D01*
X210650000Y-116900000D02*
X210650000Y-116750000D01*
X210650000Y-117100000D02*
X210650000Y-117100000D01*
D33*
X219130000Y-120158000D02*
X219597500Y-120158000D01*
D32*
X194737500Y-125500000D02*
X195420000Y-125500000D01*
X195423990Y-125496010D02*
X195420000Y-125500000D01*
X195483990Y-125496010D02*
X195423990Y-125496010D01*
X194837500Y-124150000D02*
X194687500Y-124000000D01*
D31*
X205900000Y-116750000D02*
X205850000Y-116800000D01*
X206450000Y-116750000D02*
X205900000Y-116750000D01*
D32*
X215950000Y-118762500D02*
X215950000Y-118700000D01*
X215950000Y-118700000D02*
X216575000Y-118075000D01*
X214512500Y-120500000D02*
X213800000Y-120500000D01*
D33*
X219597500Y-127063500D02*
X220402500Y-127063500D01*
X220402500Y-120142000D02*
X219597500Y-120142000D01*
D32*
X194766500Y-124079000D02*
X194687500Y-124000000D01*
X195400000Y-124079000D02*
X194766500Y-124079000D01*
D31*
X222865000Y-119890000D02*
X222415000Y-119890000D01*
X222865000Y-122890000D02*
X222415000Y-122890000D01*
D32*
X222865000Y-119890000D02*
X221854300Y-119890000D01*
X222865000Y-122890000D02*
X221851500Y-122890000D01*
X214950000Y-123100000D02*
X215923960Y-123100000D01*
D34*
X213650000Y-121250000D02*
X213650000Y-123100000D01*
D31*
X198600000Y-113000000D02*
X198000000Y-112400000D01*
X200712500Y-113000000D02*
X198600000Y-113000000D01*
D32*
X218062500Y-125700000D02*
X218062500Y-125212500D01*
X218062500Y-125212500D02*
X217850000Y-125000000D01*
D31*
X230225000Y-112300000D02*
X229500000Y-112300000D01*
D32*
X172500000Y-103500000D02*
X174500000Y-103500000D01*
X172500000Y-137500000D02*
X174500000Y-137500000D01*
X236500000Y-137500000D02*
X236500000Y-135500000D01*
X236500000Y-103500000D02*
X236500000Y-103500000D01*
X172500000Y-105500000D02*
X172500000Y-107500000D01*
X172500000Y-107500000D02*
X172500000Y-109500000D01*
X172500000Y-109500000D02*
X172500000Y-110000000D01*
X172500000Y-111500000D02*
X172500000Y-113500000D01*
X172500000Y-113500000D02*
X172500000Y-115500000D01*
X172500000Y-115500000D02*
X172500000Y-117500000D01*
X172500000Y-117500000D02*
X172500000Y-119500000D01*
X172500000Y-119500000D02*
X172500000Y-121500000D01*
X172500000Y-121500000D02*
X172500000Y-123500000D01*
X172500000Y-123500000D02*
X172500000Y-125500000D01*
X172500000Y-125500000D02*
X172500000Y-127500000D01*
X172500000Y-127500000D02*
X172500000Y-129500000D01*
X172500000Y-129500000D02*
X172500000Y-131500000D01*
X172500000Y-131500000D02*
X172500000Y-133500000D01*
X172500000Y-133500000D02*
X172500000Y-135500000D01*
X172500000Y-135500000D02*
X172500000Y-137500000D01*
X174500000Y-137500000D02*
X176500000Y-137500000D01*
X176500000Y-137500000D02*
X178500000Y-137500000D01*
X178500000Y-137500000D02*
X180500000Y-137500000D01*
X180500000Y-137500000D02*
X182500000Y-137500000D01*
X182500000Y-137500000D02*
X184500000Y-137500000D01*
X184500000Y-137500000D02*
X186500000Y-137500000D01*
X186500000Y-137500000D02*
X188500000Y-137500000D01*
X188500000Y-137500000D02*
X190500000Y-137500000D01*
X190500000Y-137500000D02*
X192500000Y-137500000D01*
X192500000Y-137500000D02*
X194500000Y-137500000D01*
X194500000Y-137500000D02*
X196500000Y-137500000D01*
X196500000Y-137500000D02*
X198500000Y-137500000D01*
X198500000Y-137500000D02*
X200500000Y-137500000D01*
X200500000Y-137500000D02*
X202500000Y-137500000D01*
X202500000Y-137500000D02*
X204500000Y-137500000D01*
X204500000Y-137500000D02*
X206500000Y-137500000D01*
X206500000Y-137500000D02*
X208500000Y-137500000D01*
X208500000Y-137500000D02*
X210500000Y-137500000D01*
X210500000Y-137500000D02*
X212500000Y-137500000D01*
X212500000Y-137500000D02*
X214500000Y-137500000D01*
X214500000Y-137500000D02*
X216500000Y-137500000D01*
X216500000Y-137500000D02*
X218500000Y-137500000D01*
X218500000Y-137500000D02*
X220500000Y-137500000D01*
X220500000Y-137500000D02*
X222500000Y-137500000D01*
X222500000Y-137500000D02*
X224500000Y-137500000D01*
X224500000Y-137500000D02*
X226500000Y-137500000D01*
X226500000Y-137500000D02*
X228500000Y-137500000D01*
X228500000Y-137500000D02*
X230500000Y-137500000D01*
X230500000Y-137500000D02*
X232500000Y-137500000D01*
X232500000Y-137500000D02*
X234500000Y-137500000D01*
X234500000Y-137500000D02*
X236500000Y-137500000D01*
X236500000Y-135500000D02*
X236500000Y-133500000D01*
X236500000Y-133500000D02*
X236500000Y-131500000D01*
X236500000Y-131500000D02*
X236500000Y-129500000D01*
X236500000Y-129500000D02*
X236500000Y-127500000D01*
X236500000Y-127500000D02*
X236500000Y-125500000D01*
X236500000Y-125500000D02*
X236500000Y-123500000D01*
X236500000Y-123500000D02*
X236500000Y-121500000D01*
X236500000Y-121500000D02*
X236500000Y-119500000D01*
X236500000Y-119500000D02*
X236500000Y-117500000D01*
X236500000Y-117500000D02*
X236500000Y-115500000D01*
X236500000Y-115500000D02*
X236500000Y-113500000D01*
X236500000Y-113500000D02*
X236500000Y-111500000D01*
X236500000Y-111500000D02*
X236500000Y-109500000D01*
X236500000Y-109500000D02*
X236500000Y-107500000D01*
X236500000Y-107500000D02*
X236500000Y-105500000D01*
X236500000Y-105500000D02*
X236500000Y-103500000D01*
X234500000Y-103500000D02*
X236500000Y-103500000D01*
X232500000Y-103500000D02*
X234500000Y-103500000D01*
X230500000Y-103500000D02*
X232500000Y-103500000D01*
X228500000Y-103500000D02*
X230500000Y-103500000D01*
X226500000Y-103500000D02*
X228500000Y-103500000D01*
X224500000Y-103500000D02*
X226500000Y-103500000D01*
X222500000Y-103500000D02*
X224500000Y-103500000D01*
X220500000Y-103500000D02*
X222500000Y-103500000D01*
X218500000Y-103500000D02*
X220500000Y-103500000D01*
X216500000Y-103500000D02*
X218500000Y-103500000D01*
X214500000Y-103500000D02*
X216500000Y-103500000D01*
X212500000Y-103500000D02*
X214500000Y-103500000D01*
X210500000Y-103500000D02*
X212500000Y-103500000D01*
X208500000Y-103500000D02*
X210500000Y-103500000D01*
X206500000Y-103500000D02*
X208500000Y-103500000D01*
X204500000Y-103500000D02*
X206500000Y-103500000D01*
X202500000Y-103500000D02*
X204500000Y-103500000D01*
X200500000Y-103500000D02*
X202500000Y-103500000D01*
X198500000Y-103500000D02*
X200500000Y-103500000D01*
X196500000Y-103500000D02*
X198500000Y-103500000D01*
X194500000Y-103500000D02*
X196500000Y-103500000D01*
X192500000Y-103500000D02*
X194500000Y-103500000D01*
X190500000Y-103500000D02*
X192500000Y-103500000D01*
X188500000Y-103500000D02*
X190500000Y-103500000D01*
X186500000Y-103500000D02*
X188500000Y-103500000D01*
X184500000Y-103500000D02*
X186500000Y-103500000D01*
X182500000Y-103500000D02*
X184500000Y-103500000D01*
X180500000Y-103500000D02*
X182500000Y-103500000D01*
X178500000Y-103500000D02*
X180500000Y-103500000D01*
X176500000Y-103500000D02*
X178500000Y-103500000D01*
X174500000Y-103500000D02*
X176500000Y-103500000D01*
D33*
X189797500Y-123250000D02*
X190602500Y-123250000D01*
X184000000Y-132597500D02*
X184000000Y-133402500D01*
X184000000Y-132597500D02*
X184000000Y-132000000D01*
X184000000Y-132000000D02*
X184000000Y-131800000D01*
X189797500Y-123250000D02*
X189150000Y-123250000D01*
D31*
X189350000Y-116825000D02*
X189275000Y-116750000D01*
X189350000Y-117575000D02*
X189350000Y-116825000D01*
G04 #@! TO.N,+3V3*
X204041800Y-124400000D02*
X205080000Y-124400000D01*
X205080000Y-124400000D02*
X205320000Y-124640000D01*
X205320000Y-124640000D02*
X205320000Y-124640000D01*
X204041800Y-121200000D02*
X204441800Y-121200000D01*
X200491800Y-118571800D02*
X200490000Y-118570000D01*
X200491800Y-120050000D02*
X200491800Y-118571800D01*
X196600000Y-122400000D02*
X196400000Y-122200000D01*
X198141800Y-122400000D02*
X196600000Y-122400000D01*
X197450000Y-124000000D02*
X197375000Y-124075000D01*
X198141800Y-124000000D02*
X197450000Y-124000000D01*
X210050000Y-115250000D02*
X210125000Y-115175000D01*
X209550000Y-115250000D02*
X210050000Y-115250000D01*
X214050000Y-115250000D02*
X214100000Y-115250000D01*
X214200000Y-114900000D02*
X214200000Y-114900000D01*
X214200000Y-114900000D02*
X214200000Y-115250000D01*
D32*
X215950000Y-117037500D02*
X216612500Y-117037500D01*
D31*
X226012500Y-112300000D02*
X226700000Y-112300000D01*
X205232000Y-120078500D02*
X205232000Y-120396000D01*
X204041800Y-121200000D02*
X204491500Y-121200000D01*
X204491500Y-121200000D02*
X205232000Y-120459500D01*
X205232000Y-119989600D02*
X205232000Y-120243600D01*
X205232000Y-120243600D02*
X205232000Y-120078500D01*
X205232000Y-120459500D02*
X205232000Y-120243600D01*
X200768500Y-111506000D02*
X200662500Y-111400000D01*
X201450000Y-111506000D02*
X200768500Y-111506000D01*
X190180000Y-128405000D02*
X190175000Y-128400000D01*
D33*
X190175000Y-129295000D02*
X190180000Y-129300000D01*
X190175000Y-128400000D02*
X190175000Y-129295000D01*
D32*
G04 #@! TO.N,+1V5*
X195700000Y-117937500D02*
X196000000Y-117637500D01*
X198112500Y-117637500D02*
X198250000Y-117500000D01*
X196000000Y-117637500D02*
X198112500Y-117637500D01*
D31*
X198891800Y-118891800D02*
X198850000Y-118850000D01*
X198891800Y-119033200D02*
X198950000Y-118975000D01*
X199291800Y-120050000D02*
X199291800Y-119591800D01*
X199291800Y-119591800D02*
X199291800Y-119441800D01*
X199291800Y-119441800D02*
X198950000Y-119100000D01*
X201691800Y-126733200D02*
X201691800Y-125950000D01*
X198150000Y-125208200D02*
X198141800Y-125200000D01*
X199691800Y-126691400D02*
X199650000Y-126733200D01*
X199691800Y-125950000D02*
X199691800Y-126691400D01*
X198300000Y-119900000D02*
X198200000Y-119800000D01*
X198883600Y-119900000D02*
X198300000Y-119900000D01*
X198891800Y-119891800D02*
X198883600Y-119900000D01*
X198891800Y-120050000D02*
X198891800Y-119891800D01*
X198850000Y-118850000D02*
X198800000Y-118800000D01*
X198141800Y-125200000D02*
X197933200Y-125200000D01*
X197675500Y-125730000D02*
X198141800Y-125200000D01*
X197800000Y-115400000D02*
X196000000Y-115400000D01*
X198250000Y-115850000D02*
X197800000Y-115400000D01*
X198250000Y-117500000D02*
X198250000Y-115850000D01*
G04 #@! TO.N,+1V2*
X206200000Y-123200000D02*
X206400000Y-123000000D01*
X204041800Y-123200000D02*
X206200000Y-123200000D01*
X199691800Y-120050000D02*
X199660000Y-120018200D01*
X199691800Y-119048200D02*
X199740000Y-119000000D01*
X199691800Y-120050000D02*
X199691800Y-119048200D01*
X206800000Y-132200000D02*
X206800000Y-133000000D01*
G04 #@! TO.N,+5V*
X196950000Y-121600000D02*
X198141800Y-121600000D01*
X196550000Y-121200000D02*
X196950000Y-121600000D01*
X196400000Y-121200000D02*
X196550000Y-121200000D01*
X198734469Y-121849483D02*
X198484986Y-121600000D01*
X198734469Y-124265531D02*
X198734469Y-121849483D01*
X198600000Y-124400000D02*
X198734469Y-124265531D01*
X198484986Y-121600000D02*
X198141800Y-121600000D01*
X198141800Y-124400000D02*
X198600000Y-124400000D01*
D32*
X212737500Y-125700000D02*
X212737500Y-125362500D01*
X212737500Y-124012500D02*
X212750000Y-124000000D01*
D33*
X196462500Y-125500000D02*
X196500000Y-125500000D01*
X196500000Y-125500000D02*
X197400000Y-124600000D01*
D31*
X197450000Y-124600000D02*
X197400000Y-124600000D01*
X197650000Y-124400000D02*
X197450000Y-124600000D01*
X198141800Y-124400000D02*
X197650000Y-124400000D01*
D33*
X196400000Y-121200000D02*
X194700000Y-121200000D01*
X194700000Y-121200000D02*
X194125033Y-120625033D01*
X194125033Y-119175033D02*
X194125033Y-119066111D01*
X194125033Y-120625033D02*
X194125033Y-119175033D01*
X193204461Y-118145539D02*
X193050000Y-117991078D01*
X194125033Y-119066111D02*
X193204461Y-118145539D01*
D32*
X212737500Y-125700000D02*
X212000000Y-125700000D01*
X212000000Y-125700000D02*
X211700000Y-125700000D01*
X212737500Y-125362500D02*
X212737500Y-124012500D01*
D35*
X222700000Y-110000000D02*
X198750000Y-110000000D01*
X198741499Y-110008501D02*
X193808501Y-110008501D01*
X198750000Y-110000000D02*
X198741499Y-110008501D01*
D32*
X194143500Y-109156500D02*
X194494000Y-109156500D01*
X193572960Y-109727040D02*
X194143500Y-109156500D01*
X193572960Y-117027040D02*
X193572960Y-109727040D01*
X193096882Y-117503118D02*
X193572960Y-117027040D01*
X193096882Y-118037960D02*
X193096882Y-117503118D01*
D31*
G04 #@! TO.N,Net-(D2-Pad2)*
X190775000Y-117000000D02*
X191025000Y-116750000D01*
X190250000Y-117000000D02*
X190775000Y-117000000D01*
X191025000Y-116750000D02*
X191025000Y-116125000D01*
G04 #@! TO.N,/eeprom/ISP_MISO*
X211360000Y-113750000D02*
X212710000Y-112400000D01*
X209050000Y-113750000D02*
X211360000Y-113750000D01*
X207050000Y-115750000D02*
X209050000Y-113750000D01*
X206450000Y-115750000D02*
X207050000Y-115750000D01*
G04 #@! TO.N,/eeprom/ISP_MOSI*
X208850000Y-116250000D02*
X208800000Y-116200000D01*
X209550000Y-116250000D02*
X208850000Y-116250000D01*
X216500000Y-113500000D02*
X216500000Y-111220000D01*
X209200000Y-114275000D02*
X215725000Y-114275000D01*
X215725000Y-114275000D02*
X216500000Y-113500000D01*
X208400000Y-115800000D02*
X208400000Y-115075000D01*
X208400000Y-115075000D02*
X209200000Y-114275000D01*
X208800000Y-116200000D02*
X208400000Y-115800000D01*
X216500000Y-111220000D02*
X216500000Y-111220000D01*
G04 #@! TO.N,/eeprom/ISP_SCK*
X213500000Y-116250000D02*
X213350000Y-116400000D01*
X214050000Y-116250000D02*
X213500000Y-116250000D01*
G04 #@! TO.N,Net-(L1-Pad2)*
X196502500Y-119962500D02*
X196000000Y-119962500D01*
X197740000Y-121200000D02*
X196502500Y-119962500D01*
X198141800Y-121200000D02*
X197740000Y-121200000D01*
G04 #@! TO.N,Net-(R5-Pad1)*
X197400000Y-127400000D02*
X197400000Y-127600000D01*
X198599131Y-126200869D02*
X197400000Y-127400000D01*
X198599131Y-125499483D02*
X198599131Y-126200869D01*
X198734469Y-124992669D02*
X198734469Y-125364145D01*
X198541800Y-124800000D02*
X198734469Y-124992669D01*
X198734469Y-125364145D02*
X198599131Y-125499483D01*
X198141800Y-124800000D02*
X198541800Y-124800000D01*
G04 #@! TO.N,Net-(R6-Pad1)*
X204700000Y-122000000D02*
X204041800Y-122000000D01*
X205450000Y-121250000D02*
X204700000Y-122000000D01*
X205700000Y-121250000D02*
X205450000Y-121250000D01*
G04 #@! TO.N,Net-(R7-Pad1)*
X205450000Y-121750000D02*
X205650000Y-121750000D01*
X204800000Y-122400000D02*
X205450000Y-121750000D01*
X204041800Y-122400000D02*
X204800000Y-122400000D01*
X205650000Y-121750000D02*
X206400000Y-121750000D01*
G04 #@! TO.N,Net-(R8-Pad1)*
X204061800Y-122780000D02*
X204041800Y-122800000D01*
X205200000Y-122800000D02*
X205700000Y-122300000D01*
X204041800Y-122800000D02*
X205200000Y-122800000D01*
G04 #@! TO.N,Net-(R10-Pad2)*
X208900000Y-118600000D02*
X210700000Y-118600000D01*
X210700000Y-118600000D02*
X210700000Y-118600000D01*
X210700000Y-118600000D02*
X214000000Y-118600000D01*
X214000000Y-118600000D02*
X214550000Y-118050000D01*
G04 #@! TO.N,/eeprom/MISO*
X205900000Y-115400000D02*
X206050000Y-115250000D01*
X202000000Y-115400000D02*
X205900000Y-115400000D01*
X201200000Y-118600000D02*
X201200000Y-116200000D01*
X200925000Y-118875000D02*
X201200000Y-118600000D01*
X201200000Y-116200000D02*
X202000000Y-115400000D01*
X200925000Y-120016800D02*
X200925000Y-118875000D01*
X206050000Y-115250000D02*
X206450000Y-115250000D01*
X200891800Y-120050000D02*
X200925000Y-120016800D01*
G04 #@! TO.N,/eeprom/MOSI*
X209082340Y-117217660D02*
X209550000Y-116750000D01*
X205617660Y-117217660D02*
X209082340Y-117217660D01*
X205300000Y-116900000D02*
X205617660Y-117217660D01*
X205300000Y-116050000D02*
X205300000Y-116900000D01*
X205100000Y-115850000D02*
X205300000Y-116050000D01*
X201650000Y-116400000D02*
X202200000Y-115850000D01*
X202200000Y-115850000D02*
X205100000Y-115850000D01*
X201650000Y-118575000D02*
X201650000Y-116400000D01*
X201291800Y-118933200D02*
X201650000Y-118575000D01*
X201291800Y-120050000D02*
X201291800Y-118933200D01*
G04 #@! TO.N,/eeprom/SCK*
X213300000Y-118000000D02*
X214000000Y-117300000D01*
X205250000Y-118000000D02*
X213300000Y-118000000D01*
X204400000Y-117150000D02*
X205250000Y-118000000D01*
X202750000Y-116750000D02*
X204300000Y-116750000D01*
X214000000Y-116800000D02*
X214050000Y-116750000D01*
X214000000Y-117300000D02*
X214000000Y-116800000D01*
X204400000Y-116850000D02*
X204400000Y-117150000D01*
X204300000Y-116750000D02*
X204400000Y-116850000D01*
X202574984Y-116925016D02*
X202750000Y-116750000D01*
X202574984Y-118625016D02*
X202574984Y-116925016D01*
X202091800Y-119108200D02*
X202574984Y-118625016D01*
X202091800Y-120050000D02*
X202091800Y-119108200D01*
G04 #@! TO.N,Net-(C10-Pad1)*
X209250000Y-120487500D02*
X209212500Y-120450000D01*
X204041800Y-123600000D02*
X204059460Y-123617660D01*
X204041800Y-123600000D02*
X204071800Y-123630000D01*
D32*
X209612500Y-122062500D02*
X209900000Y-122350000D01*
X209612500Y-120700000D02*
X209612500Y-122062500D01*
D31*
X209107340Y-123142660D02*
X209900000Y-122350000D01*
X207007340Y-123142660D02*
X209107340Y-123142660D01*
X206575000Y-123575000D02*
X207007340Y-123142660D01*
X204066800Y-123575000D02*
X206575000Y-123575000D01*
X204041800Y-123600000D02*
X204066800Y-123575000D01*
G04 #@! TO.N,Net-(C11-Pad1)*
X207450000Y-124000000D02*
X207700000Y-124250000D01*
X204041800Y-124000000D02*
X207450000Y-124000000D01*
D32*
X207887500Y-124237500D02*
X207700000Y-124050000D01*
X207887500Y-125700000D02*
X207887500Y-124237500D01*
D31*
G04 #@! TO.N,/eeprom/~ISP_CS*
X211600000Y-115750000D02*
X210950000Y-115750000D01*
X211750000Y-115600000D02*
X211600000Y-115750000D01*
X211750000Y-115250000D02*
X211750000Y-115600000D01*
G04 #@! TO.N,/eeprom/~CS*
X210200000Y-115700000D02*
X210650000Y-115250000D01*
X209900000Y-117600000D02*
X210200000Y-117300000D01*
X210200000Y-117300000D02*
X210200000Y-115700000D01*
X204800000Y-116950000D02*
X205450000Y-117600000D01*
X210650000Y-115250000D02*
X210950000Y-115250000D01*
X204800000Y-116400000D02*
X204800000Y-116950000D01*
X204700000Y-116300000D02*
X204800000Y-116400000D01*
X202400000Y-116300000D02*
X204700000Y-116300000D01*
X202100000Y-118600000D02*
X202100000Y-116600000D01*
X205450000Y-117600000D02*
X209900000Y-117600000D01*
X202100000Y-116600000D02*
X202400000Y-116300000D01*
X201691800Y-119008200D02*
X202100000Y-118600000D01*
X201691800Y-120050000D02*
X201691800Y-119008200D01*
G04 #@! TO.N,/DN_D-*
X222865000Y-123890000D02*
X222415000Y-123890000D01*
X220402500Y-127563500D02*
X219597500Y-127563500D01*
X225168841Y-123370501D02*
X224817499Y-123019159D01*
X224817499Y-123019159D02*
X224185841Y-123019159D01*
X223315000Y-123890000D02*
X222865000Y-123890000D01*
X225168841Y-126946499D02*
X225168841Y-123370501D01*
X220898342Y-127684341D02*
X224430999Y-127684341D01*
X224185841Y-123019159D02*
X223315000Y-123890000D01*
X224430999Y-127684341D02*
X225168841Y-126946499D01*
X220402500Y-127563500D02*
X220777501Y-127563500D01*
X220777501Y-127563500D02*
X220898342Y-127684341D01*
X203291800Y-126308200D02*
X203291800Y-125950000D01*
X203220959Y-126379041D02*
X203291800Y-126308200D01*
X203220959Y-126628299D02*
X203220959Y-126379041D01*
X203363501Y-126770841D02*
X203220959Y-126628299D01*
X219101658Y-127684341D02*
X210734501Y-127684341D01*
X209821001Y-126770841D02*
X203363501Y-126770841D01*
X219597500Y-127563500D02*
X219222499Y-127563500D01*
X210734501Y-127684341D02*
X209821001Y-126770841D01*
X219222499Y-127563500D02*
X219101658Y-127684341D01*
G04 #@! TO.N,/DN_D+*
X220402500Y-128063500D02*
X219597500Y-128063500D01*
X220898342Y-127942659D02*
X224538001Y-127942659D01*
X220777501Y-128063500D02*
X220898342Y-127942659D01*
X223315000Y-121890000D02*
X222865000Y-121890000D01*
X224185841Y-122760841D02*
X223315000Y-121890000D01*
X220402500Y-128063500D02*
X220777501Y-128063500D01*
X225427159Y-127053501D02*
X225427159Y-123263499D01*
X224538001Y-127942659D02*
X225427159Y-127053501D01*
X225427159Y-123263499D02*
X224924501Y-122760841D01*
X224924501Y-122760841D02*
X224185841Y-122760841D01*
X202962641Y-126735301D02*
X202962641Y-126362641D01*
X219222499Y-128063500D02*
X219101658Y-127942659D01*
X219101658Y-127942659D02*
X210627499Y-127942659D01*
X210627499Y-127942659D02*
X209713999Y-127029159D01*
X203256499Y-127029159D02*
X202962641Y-126735301D01*
X209713999Y-127029159D02*
X203256499Y-127029159D01*
X202962641Y-126362641D02*
X202891800Y-126291800D01*
X219597500Y-128063500D02*
X219222499Y-128063500D01*
X202891800Y-126291800D02*
X202891800Y-125950000D01*
G04 #@! TO.N,+5V_SW*
X222415000Y-125890000D02*
X222865000Y-125890000D01*
X223315000Y-125890000D02*
X222865000Y-125890000D01*
X220402500Y-126063500D02*
X219597500Y-126063500D01*
X220402500Y-126563500D02*
X219597500Y-126563500D01*
X219597500Y-126563500D02*
X219597500Y-126063500D01*
X219597500Y-126063500D02*
X219597500Y-125537700D01*
D32*
X222865000Y-125890000D02*
X223868000Y-125890000D01*
D31*
X220551500Y-126063500D02*
X221488000Y-127000000D01*
X220402500Y-126063500D02*
X220551500Y-126063500D01*
X221051500Y-126563500D02*
X221488000Y-127000000D01*
X220402500Y-126563500D02*
X221051500Y-126563500D01*
X219597500Y-125537700D02*
X219597500Y-125397500D01*
X219597500Y-125397500D02*
X219597500Y-125261900D01*
D32*
X219600000Y-124974706D02*
X219600000Y-125000000D01*
D35*
X219600000Y-125000000D02*
X219275000Y-125000000D01*
X219275000Y-125000000D02*
X218337500Y-124062500D01*
X218337500Y-124062500D02*
X216462500Y-124062500D01*
D32*
X214962500Y-124062500D02*
X214950000Y-124050000D01*
X216462500Y-124062500D02*
X214962500Y-124062500D01*
D31*
G04 #@! TO.N,Net-(D7-Pad1)*
X176725500Y-112400000D02*
X176550000Y-112400000D01*
X204041800Y-120800000D02*
X204041800Y-120058200D01*
X204041800Y-120058200D02*
X204600000Y-119500000D01*
X204600000Y-119500000D02*
X204600000Y-119500000D01*
G04 #@! TO.N,Net-(D8-Pad1)*
X202491800Y-120050000D02*
X202491800Y-119258200D01*
X203050000Y-118700000D02*
X203050000Y-118400000D01*
X202491800Y-119258200D02*
X203050000Y-118700000D01*
G04 #@! TO.N,Net-(D9-Pad1)*
X202891800Y-119608200D02*
X203849982Y-118650018D01*
X202891800Y-120050000D02*
X202891800Y-119608200D01*
X203849982Y-118650018D02*
X203849982Y-117750000D01*
G04 #@! TO.N,Net-(D10-Pad1)*
X185400000Y-111200000D02*
X185400000Y-111200000D01*
X185400000Y-111100000D02*
X185400000Y-111300000D01*
X185400000Y-111300000D02*
X185400000Y-111200000D01*
X190300000Y-114400000D02*
X192000000Y-116100000D01*
X192000000Y-116100000D02*
X192000000Y-118900000D01*
X185400000Y-113800000D02*
X185400000Y-111300000D01*
X195350000Y-123200000D02*
X198141800Y-123200000D01*
X193400000Y-121250000D02*
X195350000Y-123200000D01*
X185500000Y-113900000D02*
X185400000Y-113800000D01*
X193400000Y-120300000D02*
X193400000Y-121250000D01*
X186000000Y-114400000D02*
X190300000Y-114400000D01*
X192000000Y-118900000D02*
X193400000Y-120300000D01*
X186000000Y-114400000D02*
X185500000Y-113900000D01*
G04 #@! TO.N,Net-(D11-Pad1)*
X188000000Y-111100000D02*
X188000000Y-111100000D01*
X190465332Y-114000000D02*
X192450000Y-115984668D01*
X193750000Y-120050000D02*
X193750000Y-121000000D01*
X195550000Y-122800000D02*
X198141800Y-122800000D01*
X193750000Y-121000000D02*
X195550000Y-122800000D01*
X188000000Y-113600000D02*
X188400000Y-114000000D01*
X192450000Y-118750000D02*
X193750000Y-120050000D01*
X192450000Y-115984668D02*
X192450000Y-118750000D01*
X188400000Y-114000000D02*
X190465332Y-114000000D01*
X188000000Y-111100000D02*
X188000000Y-113600000D01*
G04 #@! TO.N,Net-(D12-Pad1)*
X189220000Y-112400000D02*
X189220000Y-112920000D01*
X199900000Y-114200000D02*
X195400000Y-114200000D01*
X200095843Y-118395842D02*
X200165281Y-118265281D01*
X200091800Y-119650000D02*
X200200000Y-119541800D01*
X200200000Y-119541800D02*
X200200000Y-119000000D01*
X200120000Y-118780000D02*
X200040000Y-118660000D01*
X200733333Y-115033333D02*
X199900000Y-114200000D01*
X200040000Y-118660000D02*
X200031947Y-118531947D01*
X200031947Y-118531947D02*
X200095843Y-118395842D01*
X200091800Y-120050000D02*
X200091800Y-119650000D01*
X200200000Y-119000000D02*
X200120000Y-118780000D01*
X200165281Y-118265281D02*
X200325000Y-118175000D01*
X200325000Y-118175000D02*
X200575000Y-118125000D01*
X200575000Y-118125000D02*
X200733333Y-118033333D01*
X200733333Y-118033333D02*
X200733333Y-115033333D01*
X195400000Y-114200000D02*
X194900000Y-114200000D01*
X192400000Y-114200000D02*
X191200000Y-114200000D01*
X191200000Y-114200000D02*
X190500000Y-113500000D01*
X190500000Y-113500000D02*
X190500000Y-111200000D01*
X190500000Y-111200000D02*
X190400000Y-111100000D01*
D35*
G04 #@! TO.N,+5VP*
X185000000Y-124500000D02*
X185000000Y-131400000D01*
D31*
X185000000Y-132597500D02*
X185000000Y-131400000D01*
X184500000Y-131900000D02*
X185000000Y-131400000D01*
X184500000Y-132597500D02*
X184500000Y-131900000D01*
X184500000Y-133402500D02*
X185797500Y-133402500D01*
X185000000Y-132597500D02*
X185000000Y-133402500D01*
X184500000Y-132597500D02*
X184500000Y-133402500D01*
X185797500Y-133402500D02*
X185797500Y-133402500D01*
D35*
X186922500Y-133402500D02*
X186925000Y-133400000D01*
X185797500Y-133402500D02*
X186922500Y-133402500D01*
D31*
G04 #@! TO.N,Net-(R15-Pad1)*
X212687500Y-120500000D02*
X212687500Y-122112500D01*
X212687500Y-122112500D02*
X212650000Y-122150000D01*
X212687500Y-119687500D02*
X212687500Y-120500000D01*
X212137340Y-119137340D02*
X212687500Y-119687500D01*
X206737340Y-119137340D02*
X212137340Y-119137340D01*
X206400000Y-118800000D02*
X206737340Y-119137340D01*
X204400000Y-118800000D02*
X206400000Y-118800000D01*
X203291800Y-119908200D02*
X204400000Y-118800000D01*
X203291800Y-120050000D02*
X203291800Y-119908200D01*
G04 #@! TO.N,Net-(R19-Pad1)*
X198141800Y-123600000D02*
X196912500Y-123600000D01*
X196912500Y-123600000D02*
X196512500Y-124000000D01*
G04 #@! TO.N,/DN_SSTX-*
X204195647Y-130022513D02*
X204195647Y-130022511D01*
X202969013Y-129401673D02*
X202162641Y-128595301D01*
X203574806Y-129401673D02*
X202969013Y-129401673D01*
X204195647Y-130022514D02*
X203574806Y-129401673D01*
X202162641Y-128595301D02*
X202162641Y-126387359D01*
X202091800Y-126316518D02*
X202162641Y-126387359D01*
X202091800Y-125950000D02*
X202091800Y-126316518D01*
G04 #@! TO.N,/DN_TX_AC+*
X223315000Y-124890000D02*
X222865000Y-124890000D01*
X220402500Y-120642000D02*
X219597500Y-120642000D01*
X219222499Y-120642000D02*
X219597500Y-120642000D01*
X218191841Y-120762841D02*
X219101658Y-120762841D01*
X219101658Y-120762841D02*
X219222499Y-120642000D01*
X229232841Y-114988501D02*
X228419499Y-114175159D01*
X219446001Y-114175159D02*
X217603959Y-116017201D01*
X206541491Y-129143352D02*
X206923012Y-129143352D01*
X229232841Y-130502499D02*
X229232841Y-114988501D01*
X206923012Y-129143352D02*
X209552701Y-131773041D01*
X205920650Y-128522511D02*
X206541491Y-129143352D01*
X209552701Y-131773041D02*
X227962299Y-131773041D01*
X227962299Y-131773041D02*
X229232841Y-130502499D01*
X217603959Y-116017201D02*
X217603959Y-120174959D01*
X228419499Y-114175159D02*
X219446001Y-114175159D01*
X217603959Y-120174959D02*
X218191841Y-120762841D01*
X220777501Y-120642000D02*
X220898342Y-120762841D01*
X220898342Y-120762841D02*
X221212001Y-120762841D01*
X220402500Y-120642000D02*
X220777501Y-120642000D01*
X222415000Y-124890000D02*
X222865000Y-124890000D01*
X221544159Y-125760841D02*
X222415000Y-124890000D01*
X221212001Y-120762841D02*
X221629859Y-121180699D01*
X221544159Y-125760841D02*
X221320501Y-125760841D01*
X221320501Y-125760841D02*
X221007559Y-125447899D01*
X221007559Y-125447899D02*
X221007559Y-122481501D01*
X221629859Y-121859201D02*
X221629859Y-121180699D01*
X221007559Y-122481501D02*
X221629859Y-121859201D01*
G04 #@! TO.N,/DN_TX_AC-*
X222653400Y-127101600D02*
X222865000Y-126890000D01*
X222619400Y-126644400D02*
X222865000Y-126890000D01*
X220402500Y-121142000D02*
X219597500Y-121142000D01*
X219222499Y-121142000D02*
X219597500Y-121142000D01*
X218084839Y-121021159D02*
X219101658Y-121021159D01*
X217345641Y-120281961D02*
X218084839Y-121021159D01*
X219338999Y-113916841D02*
X217345641Y-115910199D01*
X229491159Y-114881499D02*
X228526501Y-113916841D01*
X229491159Y-130609501D02*
X229491159Y-114881499D01*
X217345641Y-115910199D02*
X217345641Y-120281961D01*
X228069301Y-132031359D02*
X229491159Y-130609501D01*
X206816010Y-129401670D02*
X209445699Y-132031359D01*
X205920647Y-130022514D02*
X206541491Y-129401670D01*
X209445699Y-132031359D02*
X228069301Y-132031359D01*
X219101658Y-121021159D02*
X219222499Y-121142000D01*
X228526501Y-113916841D02*
X219338999Y-113916841D01*
X206541491Y-129401670D02*
X206816010Y-129401670D01*
X221544159Y-126019159D02*
X222415000Y-126890000D01*
X222415000Y-126890000D02*
X222865000Y-126890000D01*
X220777501Y-121142000D02*
X220898342Y-121021159D01*
X220402500Y-121142000D02*
X220777501Y-121142000D01*
X221104999Y-121021159D02*
X221371541Y-121287701D01*
X220898342Y-121021159D02*
X221104999Y-121021159D01*
X221544159Y-126019159D02*
X221213499Y-126019159D01*
X221213499Y-126019159D02*
X220749241Y-125554901D01*
X220749241Y-125554901D02*
X220749241Y-122374499D01*
X221371541Y-121752199D02*
X221371541Y-121287701D01*
X220749241Y-122374499D02*
X221371541Y-121752199D01*
G04 #@! TO.N,/DN_SSTX+*
X203076015Y-129143355D02*
X202420959Y-128488299D01*
X203574806Y-129143355D02*
X203076015Y-129143355D01*
X204195650Y-128522511D02*
X203574806Y-129143355D01*
X202420959Y-128488299D02*
X202420959Y-126370959D01*
X202491800Y-126300118D02*
X202420959Y-126370959D01*
X202491800Y-125950000D02*
X202491800Y-126300118D01*
G04 #@! TO.N,/DN_SSRX-*
X220402500Y-119642000D02*
X219597500Y-119642000D01*
X222605000Y-119150000D02*
X222865000Y-118890000D01*
X222625000Y-118650000D02*
X222865000Y-118890000D01*
X222865000Y-118890000D02*
X222415000Y-118890000D01*
X220402500Y-119642000D02*
X220527500Y-119642000D01*
X223315000Y-118890000D02*
X222865000Y-118890000D01*
X224185841Y-119760841D02*
X223315000Y-118890000D01*
X225041841Y-119580499D02*
X224861499Y-119760841D01*
X225041841Y-118417501D02*
X225041841Y-119580499D01*
X221173901Y-119521159D02*
X221579059Y-119116001D01*
X220898342Y-119521159D02*
X221173901Y-119521159D01*
X220777501Y-119642000D02*
X220898342Y-119521159D01*
X224861499Y-119760841D02*
X224185841Y-119760841D01*
X220402500Y-119642000D02*
X220777501Y-119642000D01*
X221579059Y-119116001D02*
X221579059Y-118392101D01*
X225041841Y-118417501D02*
X224723799Y-118099459D01*
X224723799Y-118099459D02*
X221871701Y-118099459D01*
X221871701Y-118099459D02*
X221579059Y-118392101D01*
X201216099Y-131243959D02*
X200162641Y-130190501D01*
X205188439Y-130886361D02*
X204830841Y-131243959D01*
X205188439Y-127845981D02*
X205188439Y-130886361D01*
X205387101Y-127647319D02*
X205188439Y-127845981D01*
X207220659Y-127647319D02*
X205387101Y-127647319D01*
X204830841Y-131243959D02*
X201216099Y-131243959D01*
X209524439Y-129951099D02*
X207220659Y-127647319D01*
X221157639Y-129951099D02*
X209524439Y-129951099D01*
X222145699Y-130939159D02*
X221157639Y-129951099D01*
X200091800Y-126291800D02*
X200091800Y-125950000D01*
X227383501Y-130939159D02*
X222145699Y-130939159D01*
X228030659Y-115325999D02*
X228030659Y-130292001D01*
X227637501Y-114932841D02*
X228030659Y-115325999D01*
X219910499Y-114932841D02*
X227637501Y-114932841D01*
X200162641Y-130190501D02*
X200162641Y-126362641D01*
X228030659Y-130292001D02*
X227383501Y-130939159D01*
X200162641Y-126362641D02*
X200091800Y-126291800D01*
X219222499Y-119642000D02*
X219101658Y-119521159D01*
X219101658Y-119521159D02*
X218793909Y-119521159D01*
X218793909Y-119521159D02*
X218310841Y-119038091D01*
X219597500Y-119642000D02*
X219222499Y-119642000D01*
X218310841Y-116532499D02*
X219910499Y-114932841D01*
X218310841Y-119038091D02*
X218310841Y-116532499D01*
G04 #@! TO.N,/DN_SSRX+*
X220402500Y-119142000D02*
X219597500Y-119142000D01*
X222865000Y-120890000D02*
X222415000Y-120890000D01*
X220402500Y-119142000D02*
X220527500Y-119142000D01*
X224185841Y-120019159D02*
X223315000Y-120890000D01*
X221066899Y-119262841D02*
X221320741Y-119008999D01*
X220402500Y-119142000D02*
X220777501Y-119142000D01*
X220777501Y-119142000D02*
X220898342Y-119262841D01*
X220898342Y-119262841D02*
X221066899Y-119262841D01*
X224968501Y-120019159D02*
X224185841Y-120019159D01*
X225300159Y-119687501D02*
X224968501Y-120019159D01*
X223315000Y-120890000D02*
X222865000Y-120890000D01*
X225300159Y-118310499D02*
X225300159Y-119687501D01*
X221320741Y-119008999D02*
X221320741Y-118285099D01*
X225300159Y-118310499D02*
X224830801Y-117841141D01*
X221764699Y-117841141D02*
X221320741Y-118285099D01*
X224830801Y-117841141D02*
X221764699Y-117841141D01*
X227772341Y-130184999D02*
X227276499Y-130680841D01*
X200420959Y-130083499D02*
X200420959Y-126379041D01*
X227530499Y-115191159D02*
X227772341Y-115433001D01*
X218569159Y-116639501D02*
X220017501Y-115191159D01*
X218900911Y-119262841D02*
X218569159Y-118931089D01*
X219101658Y-119262841D02*
X218900911Y-119262841D01*
X227772341Y-115433001D02*
X227772341Y-130184999D01*
X219222499Y-119142000D02*
X219101658Y-119262841D01*
X227276499Y-130680841D02*
X222252701Y-130680841D01*
X219597500Y-119142000D02*
X219222499Y-119142000D01*
X205280099Y-127389001D02*
X204930121Y-127738979D01*
X201323101Y-130985641D02*
X200420959Y-130083499D01*
X218569159Y-118931089D02*
X218569159Y-116639501D01*
X221264641Y-129692781D02*
X209631441Y-129692781D01*
X209631441Y-129692781D02*
X207327661Y-127389001D01*
X222252701Y-130680841D02*
X221264641Y-129692781D01*
X207327661Y-127389001D02*
X205280099Y-127389001D01*
X204930121Y-127738979D02*
X204930121Y-130779359D01*
X204930121Y-130779359D02*
X204723839Y-130985641D01*
X220017501Y-115191159D02*
X227530499Y-115191159D01*
X204723839Y-130985641D02*
X201323101Y-130985641D01*
X200420959Y-126379041D02*
X200491800Y-126308200D01*
X200491800Y-126308200D02*
X200491800Y-125950000D01*
G04 #@! TO.N,~EXT_RESET*
X204500000Y-121600000D02*
X204041800Y-121600000D01*
X205450000Y-120650000D02*
X204500000Y-121600000D01*
X206350000Y-120650000D02*
X205450000Y-120650000D01*
X202487500Y-112950000D02*
X202437500Y-113000000D01*
X202487500Y-111400000D02*
X202487500Y-112327500D01*
X206400000Y-120600000D02*
X206350000Y-120650000D01*
X202487500Y-112327500D02*
X202487500Y-112950000D01*
X210950000Y-116250000D02*
X212250000Y-116250000D01*
X212750000Y-115750000D02*
X214050000Y-115750000D01*
X212250000Y-116250000D02*
X212750000Y-115750000D01*
X219200000Y-111190000D02*
X219233500Y-111156500D01*
X216650000Y-115750000D02*
X219200000Y-113200000D01*
X219200000Y-113200000D02*
X219200000Y-111190000D01*
X214050000Y-115750000D02*
X216650000Y-115750000D01*
X209244444Y-115750000D02*
X208822222Y-115327778D01*
X209550000Y-115750000D02*
X209244444Y-115750000D01*
X208822222Y-115130989D02*
X209203211Y-114750000D01*
X208822222Y-115327778D02*
X208822222Y-115130989D01*
X209203211Y-114750000D02*
X212450000Y-114750000D01*
X212750000Y-115050000D02*
X212750000Y-115750000D01*
X212450000Y-114750000D02*
X212750000Y-115050000D01*
X205900000Y-116250000D02*
X205850000Y-116200000D01*
X206450000Y-116250000D02*
X205900000Y-116250000D01*
X223037500Y-111150000D02*
X224187500Y-112300000D01*
X219240000Y-111150000D02*
X223037500Y-111150000D01*
X219233500Y-111156500D02*
X219240000Y-111150000D01*
X202400000Y-113037500D02*
X202437500Y-113000000D01*
X202400000Y-113700000D02*
X202400000Y-113037500D01*
D32*
G04 #@! TO.N,Net-(C19-Pad2)*
X214462500Y-125700000D02*
X216237500Y-125700000D01*
D31*
G04 #@! TO.N,Net-(D19-Pad1)*
X196650000Y-121700000D02*
X195600000Y-121700000D01*
X196950000Y-122000000D02*
X196650000Y-121700000D01*
X198141800Y-122000000D02*
X196950000Y-122000000D01*
G04 #@! TO.N,Net-(D20-Pad1)*
X219700000Y-122775000D02*
X219700000Y-123550000D01*
X219700000Y-123550000D02*
X219700000Y-123550000D01*
X228400000Y-112300000D02*
X227600000Y-112300000D01*
G04 #@! TO.N,/SSTX-*
X201429262Y-127943448D02*
X201655104Y-128169290D01*
X201429262Y-127156602D02*
X201429262Y-127943448D01*
X201220959Y-126948299D02*
X201429262Y-127156602D01*
X201220959Y-126370959D02*
X201220959Y-126948299D01*
X201291800Y-126300118D02*
X201220959Y-126370959D01*
X201291800Y-125950000D02*
X201291800Y-126300118D01*
X189797500Y-122750000D02*
X190602500Y-122750000D01*
X192846499Y-122629159D02*
X191098342Y-122629159D01*
X193470841Y-126853501D02*
X193470841Y-123253501D01*
X196046604Y-131829264D02*
X195470736Y-131253396D01*
X196724870Y-131829264D02*
X196046604Y-131829264D01*
X196950710Y-132055104D02*
X196724870Y-131829264D01*
X195470736Y-131253396D02*
X195470736Y-127753396D01*
X195470736Y-127753396D02*
X195146499Y-127429159D01*
X194046499Y-127429159D02*
X193470841Y-126853501D01*
X191098342Y-122629159D02*
X190977501Y-122750000D01*
X195146499Y-127429159D02*
X194046499Y-127429159D01*
X193470841Y-123253501D02*
X192846499Y-122629159D01*
X190977501Y-122750000D02*
X190602500Y-122750000D01*
X189124870Y-119745946D02*
X188671394Y-119745946D01*
X189350712Y-119520104D02*
X189124870Y-119745946D01*
X188671394Y-119745946D02*
X188270841Y-120146499D01*
X189301658Y-122629159D02*
X188846499Y-122629159D01*
X189422499Y-122750000D02*
X189301658Y-122629159D01*
X189797500Y-122750000D02*
X189422499Y-122750000D01*
X188270841Y-122053501D02*
X188270841Y-120146499D01*
X188846499Y-122629159D02*
X188270841Y-122053501D01*
G04 #@! TO.N,/SSTX+*
X201170944Y-127943448D02*
X200945104Y-128169288D01*
X201170944Y-127263604D02*
X201170944Y-127943448D01*
X200962641Y-127055301D02*
X201170944Y-127263604D01*
X200962641Y-126387359D02*
X200962641Y-127055301D01*
X200891800Y-126316518D02*
X200962641Y-126387359D01*
X200891800Y-125950000D02*
X200891800Y-126316518D01*
X187450000Y-120300000D02*
X187000000Y-120750000D01*
X189797500Y-122250000D02*
X190602500Y-122250000D01*
X191098342Y-122370841D02*
X190977501Y-122250000D01*
X195729054Y-131146394D02*
X195729054Y-127646394D01*
X196153606Y-131570946D02*
X195729054Y-131146394D01*
X196724870Y-131570946D02*
X196153606Y-131570946D01*
X195253501Y-127170841D02*
X194153501Y-127170841D01*
X196950712Y-131345104D02*
X196724870Y-131570946D01*
X193729159Y-123146499D02*
X192953501Y-122370841D01*
X195729054Y-127646394D02*
X195253501Y-127170841D01*
X192953501Y-122370841D02*
X191098342Y-122370841D01*
X194153501Y-127170841D02*
X193729159Y-126746499D01*
X193729159Y-126746499D02*
X193729159Y-123146499D01*
X190977501Y-122250000D02*
X190602500Y-122250000D01*
X189124870Y-120004264D02*
X188778396Y-120004264D01*
X189350710Y-120230104D02*
X189124870Y-120004264D01*
X188778396Y-120004264D02*
X188529159Y-120253501D01*
X189301658Y-122370841D02*
X188953501Y-122370841D01*
X189422499Y-122250000D02*
X189301658Y-122370841D01*
X189797500Y-122250000D02*
X189422499Y-122250000D01*
X188529159Y-121946499D02*
X188529159Y-120253501D01*
X188953501Y-122370841D02*
X188529159Y-121946499D01*
G04 #@! TO.N,/D-*
X183857402Y-123429159D02*
X184129159Y-123157402D01*
X180979159Y-123653501D02*
X181203501Y-123429159D01*
X180979159Y-125596499D02*
X180979159Y-123653501D01*
X183379159Y-127996499D02*
X180979159Y-125596499D01*
X183379159Y-132101658D02*
X183379159Y-127996499D01*
X184129159Y-122870841D02*
X185000000Y-122000000D01*
X183500000Y-132597500D02*
X183500000Y-132222499D01*
X184129159Y-123157402D02*
X184129159Y-122870841D01*
X183500000Y-132222499D02*
X183379159Y-132101658D01*
X183500000Y-132597500D02*
X183500000Y-133402500D01*
X194076659Y-133907618D02*
X194687500Y-133296777D01*
X193709722Y-133907618D02*
X194076659Y-133907618D01*
X192996499Y-134620841D02*
X193709722Y-133907618D01*
X183379159Y-133898342D02*
X183379159Y-134196499D01*
X183803501Y-134620841D02*
X192996499Y-134620841D01*
X183500000Y-133402500D02*
X183500000Y-133777501D01*
X183500000Y-133777501D02*
X183379159Y-133898342D01*
X183379159Y-134196499D02*
X183803501Y-134620841D01*
X181203501Y-123429159D02*
X183857402Y-123429159D01*
G04 #@! TO.N,/D+*
X180720841Y-125703501D02*
X180720841Y-123546499D01*
X183870841Y-123050400D02*
X183870841Y-122870841D01*
X183000000Y-132597500D02*
X183000000Y-132222499D01*
X183000000Y-132222499D02*
X183120841Y-132101658D01*
X183120841Y-132101658D02*
X183120841Y-128103501D01*
X183120841Y-128103501D02*
X180720841Y-125703501D01*
X180720841Y-123546499D02*
X181096499Y-123170841D01*
X183750400Y-123170841D02*
X183870841Y-123050400D01*
X183870841Y-122870841D02*
X183000000Y-122000000D01*
X183000000Y-132597500D02*
X183000000Y-133402500D01*
X183000000Y-133402500D02*
X183000000Y-133777501D01*
X183000000Y-133777501D02*
X183120841Y-133898342D01*
X183120841Y-133898342D02*
X183120841Y-134303501D01*
X183120841Y-134303501D02*
X183696499Y-134879159D01*
X183696499Y-134879159D02*
X193103501Y-134879159D01*
X193103501Y-134879159D02*
X193816724Y-134165936D01*
X194076659Y-134165936D02*
X194687500Y-134776777D01*
X193816724Y-134165936D02*
X194076659Y-134165936D01*
X181096499Y-123170841D02*
X183750400Y-123170841D01*
G04 #@! TO.N,/SSRX-*
X189797500Y-124250000D02*
X190602500Y-124250000D01*
X192270841Y-124653501D02*
X191746499Y-124129159D01*
X194737500Y-130000000D02*
X194116659Y-129379159D01*
X192270841Y-128853501D02*
X192270841Y-124653501D01*
X194116659Y-129379159D02*
X192796499Y-129379159D01*
X191746499Y-124129159D02*
X191098342Y-124129159D01*
X191098342Y-124129159D02*
X190977501Y-124250000D01*
X192796499Y-129379159D02*
X192270841Y-128853501D01*
X190977501Y-124250000D02*
X190602500Y-124250000D01*
X189301658Y-124129159D02*
X188853501Y-124129159D01*
X189422499Y-124250000D02*
X189301658Y-124129159D01*
X189797500Y-124250000D02*
X189422499Y-124250000D01*
X188853501Y-124129159D02*
X188529159Y-124453501D01*
X188529159Y-124453501D02*
X188529159Y-126346499D01*
X189124870Y-126490946D02*
X189350712Y-126265104D01*
X188673606Y-126490946D02*
X189124870Y-126490946D01*
X188529159Y-126346499D02*
X188673606Y-126490946D01*
G04 #@! TO.N,/SSRX+*
X189797500Y-123750000D02*
X190602500Y-123750000D01*
X190977501Y-123750000D02*
X190602500Y-123750000D01*
X191853501Y-123870841D02*
X191098342Y-123870841D01*
X191098342Y-123870841D02*
X190977501Y-123750000D01*
X192529159Y-124546499D02*
X191853501Y-123870841D01*
X192529159Y-128746499D02*
X192529159Y-124546499D01*
X194737500Y-128500000D02*
X194116659Y-129120841D01*
X194116659Y-129120841D02*
X192903501Y-129120841D01*
X192903501Y-129120841D02*
X192529159Y-128746499D01*
X189301658Y-123870841D02*
X188746499Y-123870841D01*
X189422499Y-123750000D02*
X189301658Y-123870841D01*
X189797500Y-123750000D02*
X189422499Y-123750000D01*
X188746499Y-123870841D02*
X188270841Y-124346499D01*
X188270841Y-124346499D02*
X188270841Y-126453501D01*
X189124870Y-126749264D02*
X189350710Y-126975104D01*
X188566604Y-126749264D02*
X189124870Y-126749264D01*
X188270841Y-126453501D02*
X188566604Y-126749264D01*
G04 #@! TO.N,/SSRX_DC-*
X198908670Y-125966870D02*
X198891800Y-125950000D01*
X198908670Y-126458670D02*
X198908670Y-125966870D01*
X198690841Y-126676499D02*
X198908670Y-126458670D01*
X198690841Y-128625070D02*
X198690841Y-126676499D01*
X198195070Y-129120841D02*
X198690841Y-128625070D01*
X197083341Y-129120841D02*
X198195070Y-129120841D01*
X196462500Y-128500000D02*
X197083341Y-129120841D01*
G04 #@! TO.N,/SSRX_DC+*
X198949159Y-126783501D02*
X199291800Y-126440860D01*
X198949159Y-128732072D02*
X198949159Y-126783501D01*
X199291800Y-126440860D02*
X199291800Y-125950000D01*
X198302072Y-129379159D02*
X198949159Y-128732072D01*
X197083341Y-129379159D02*
X198302072Y-129379159D01*
X196462500Y-130000000D02*
X197083341Y-129379159D01*
G04 #@! TO.N,/D_DC-*
X205035000Y-125724159D02*
X204809159Y-125950000D01*
X205035000Y-125457660D02*
X205035000Y-125724159D01*
X204041800Y-125200000D02*
X204071800Y-125170000D01*
X204706499Y-125129159D02*
X205035000Y-125457660D01*
X204529159Y-125129159D02*
X204706499Y-125129159D01*
X204458318Y-125200000D02*
X204529159Y-125129159D01*
X204041800Y-125200000D02*
X204458318Y-125200000D01*
X196865936Y-133296777D02*
X197300000Y-133730841D01*
X196512500Y-133296777D02*
X196865936Y-133296777D01*
G04 #@! TO.N,/D_DC+*
X205293318Y-125724159D02*
X205519159Y-125950000D01*
X205293318Y-125350658D02*
X205293318Y-125724159D01*
X204813501Y-124870841D02*
X205293318Y-125350658D01*
X204529159Y-124870841D02*
X204813501Y-124870841D01*
X204458318Y-124800000D02*
X204529159Y-124870841D01*
X204041800Y-124800000D02*
X204458318Y-124800000D01*
X196964064Y-134776777D02*
X197300000Y-134440841D01*
X196512500Y-134776777D02*
X196964064Y-134776777D01*
G04 #@! TD*
D33*
G04 #@! TO.N,+1V5*
X199123000Y-116726995D02*
X199123000Y-119172965D01*
X198550035Y-119172808D01*
X198525258Y-119175241D01*
X198501431Y-119182462D01*
X198479472Y-119194192D01*
X198460222Y-119209981D01*
X198444423Y-119229222D01*
X198432681Y-119251175D01*
X198425447Y-119274997D01*
X198423014Y-119301709D01*
X198433064Y-119973000D01*
X198288008Y-119973000D01*
X198191479Y-119953800D01*
X198092121Y-119953800D01*
X197995592Y-119973000D01*
X197427000Y-119973000D01*
X197427000Y-118500000D01*
X197424560Y-118475224D01*
X197417333Y-118451399D01*
X197405597Y-118429443D01*
X197389803Y-118410197D01*
X197370557Y-118394403D01*
X197348601Y-118382667D01*
X197324776Y-118375440D01*
X197300000Y-118373000D01*
X194758597Y-118373000D01*
X194752473Y-116726813D01*
X199123000Y-116726995D01*
G04 #@! TA.AperFunction,Conductor*
D36*
G36*
X199123000Y-116726995D02*
G01*
X199123000Y-119172965D01*
X198550035Y-119172808D01*
X198525258Y-119175241D01*
X198501431Y-119182462D01*
X198479472Y-119194192D01*
X198460222Y-119209981D01*
X198444423Y-119229222D01*
X198432681Y-119251175D01*
X198425447Y-119274997D01*
X198423014Y-119301709D01*
X198433064Y-119973000D01*
X198288008Y-119973000D01*
X198191479Y-119953800D01*
X198092121Y-119953800D01*
X197995592Y-119973000D01*
X197427000Y-119973000D01*
X197427000Y-118500000D01*
X197424560Y-118475224D01*
X197417333Y-118451399D01*
X197405597Y-118429443D01*
X197389803Y-118410197D01*
X197370557Y-118394403D01*
X197348601Y-118382667D01*
X197324776Y-118375440D01*
X197300000Y-118373000D01*
X194758597Y-118373000D01*
X194752473Y-116726813D01*
X199123000Y-116726995D01*
G37*
G04 #@! TD.AperFunction*
G04 #@! TD*
D33*
G04 #@! TO.N,+5V*
X213273000Y-127223000D02*
X211227000Y-127223000D01*
X211227000Y-123827000D01*
X213273000Y-123827000D01*
X213273000Y-127223000D01*
G04 #@! TA.AperFunction,Conductor*
D36*
G36*
X213273000Y-127223000D02*
G01*
X211227000Y-127223000D01*
X211227000Y-123827000D01*
X213273000Y-123827000D01*
X213273000Y-127223000D01*
G37*
G04 #@! TD.AperFunction*
G04 #@! TD*
D33*
G04 #@! TO.N,GND*
X216623000Y-123283100D02*
X216424211Y-123283100D01*
X216309711Y-123294377D01*
X216215353Y-123323000D01*
X211427000Y-123323000D01*
X211427000Y-122827000D01*
X216623000Y-122827000D01*
X216623000Y-123283100D01*
G04 #@! TA.AperFunction,Conductor*
D36*
G36*
X216623000Y-123283100D02*
G01*
X216424211Y-123283100D01*
X216309711Y-123294377D01*
X216215353Y-123323000D01*
X211427000Y-123323000D01*
X211427000Y-122827000D01*
X216623000Y-122827000D01*
X216623000Y-123283100D01*
G37*
G04 #@! TD.AperFunction*
G04 #@! TD*
M02*
