G04 #@! TF.GenerationSoftware,KiCad,Pcbnew,5.1.10-6.fc33*
G04 #@! TF.CreationDate,2021-10-31T18:53:52+00:00*
G04 #@! TF.ProjectId,vl670,766c3637-302e-46b6-9963-61645f706362,rev?*
G04 #@! TF.SameCoordinates,Original*
G04 #@! TF.FileFunction,Soldermask,Bot*
G04 #@! TF.FilePolarity,Negative*
%FSLAX46Y46*%
G04 Gerber Fmt 4.6, Leading zero omitted, Abs format (unit mm)*
G04 Created by KiCad (PCBNEW 5.1.10-6.fc33) date 2021-10-31 18:53:52*
%MOMM*%
%LPD*%
G01*
G04 APERTURE LIST*
%ADD10C,0.508000*%
%ADD11C,1.400000*%
%ADD12C,3.500000*%
%ADD13C,1.700000*%
%ADD14C,0.100000*%
%ADD15C,0.800000*%
%ADD16C,5.000000*%
%ADD17O,1.700000X1.700000*%
%ADD18R,1.700000X1.700000*%
%ADD19R,0.600000X0.700000*%
%ADD20O,4.000000X1.600000*%
G04 APERTURE END LIST*
D10*
X172500000Y-103500000D02*
X236500000Y-103500000D01*
X172500000Y-137500000D02*
X172500000Y-103500000D01*
X236500000Y-137500000D02*
X172500000Y-137500000D01*
X236500000Y-103500000D02*
X236500000Y-137500000D01*
D11*
G04 #@! TO.C,J2*
X187000000Y-125750000D03*
X187000000Y-127500000D03*
X187000000Y-119000000D03*
X187000000Y-120750000D03*
X187000000Y-123250000D03*
D12*
X180290000Y-129270000D03*
X180290000Y-117230000D03*
D13*
X185000000Y-122000000D03*
X185000000Y-124500000D03*
X183000000Y-124500000D03*
X183000000Y-122000000D03*
G04 #@! TD*
D14*
G04 #@! TO.C,JP2*
G36*
X190800000Y-131100000D02*
G01*
X190800000Y-131600000D01*
X190799398Y-131600000D01*
X190799398Y-131624534D01*
X190794588Y-131673365D01*
X190785016Y-131721490D01*
X190770772Y-131768445D01*
X190751995Y-131813778D01*
X190728864Y-131857051D01*
X190701604Y-131897850D01*
X190670476Y-131935779D01*
X190635779Y-131970476D01*
X190597850Y-132001604D01*
X190557051Y-132028864D01*
X190513778Y-132051995D01*
X190468445Y-132070772D01*
X190421490Y-132085016D01*
X190373365Y-132094588D01*
X190324534Y-132099398D01*
X190300000Y-132099398D01*
X190300000Y-132100000D01*
X189800000Y-132100000D01*
X189800000Y-132099398D01*
X189775466Y-132099398D01*
X189726635Y-132094588D01*
X189678510Y-132085016D01*
X189631555Y-132070772D01*
X189586222Y-132051995D01*
X189542949Y-132028864D01*
X189502150Y-132001604D01*
X189464221Y-131970476D01*
X189429524Y-131935779D01*
X189398396Y-131897850D01*
X189371136Y-131857051D01*
X189348005Y-131813778D01*
X189329228Y-131768445D01*
X189314984Y-131721490D01*
X189305412Y-131673365D01*
X189300602Y-131624534D01*
X189300602Y-131600000D01*
X189300000Y-131600000D01*
X189300000Y-131100000D01*
X190800000Y-131100000D01*
G37*
G36*
X189300602Y-130300000D02*
G01*
X189300602Y-130275466D01*
X189305412Y-130226635D01*
X189314984Y-130178510D01*
X189329228Y-130131555D01*
X189348005Y-130086222D01*
X189371136Y-130042949D01*
X189398396Y-130002150D01*
X189429524Y-129964221D01*
X189464221Y-129929524D01*
X189502150Y-129898396D01*
X189542949Y-129871136D01*
X189586222Y-129848005D01*
X189631555Y-129829228D01*
X189678510Y-129814984D01*
X189726635Y-129805412D01*
X189775466Y-129800602D01*
X189800000Y-129800602D01*
X189800000Y-129800000D01*
X190300000Y-129800000D01*
X190300000Y-129800602D01*
X190324534Y-129800602D01*
X190373365Y-129805412D01*
X190421490Y-129814984D01*
X190468445Y-129829228D01*
X190513778Y-129848005D01*
X190557051Y-129871136D01*
X190597850Y-129898396D01*
X190635779Y-129929524D01*
X190670476Y-129964221D01*
X190701604Y-130002150D01*
X190728864Y-130042949D01*
X190751995Y-130086222D01*
X190770772Y-130131555D01*
X190785016Y-130178510D01*
X190794588Y-130226635D01*
X190799398Y-130275466D01*
X190799398Y-130300000D01*
X190800000Y-130300000D01*
X190800000Y-130800000D01*
X189300000Y-130800000D01*
X189300000Y-130300000D01*
X189300602Y-130300000D01*
G37*
G04 #@! TD*
G04 #@! TO.C,FB1*
G36*
G01*
X188350000Y-133162500D02*
X188350000Y-133637500D01*
G75*
G02*
X188112500Y-133875000I-237500J0D01*
G01*
X187537500Y-133875000D01*
G75*
G02*
X187300000Y-133637500I0J237500D01*
G01*
X187300000Y-133162500D01*
G75*
G02*
X187537500Y-132925000I237500J0D01*
G01*
X188112500Y-132925000D01*
G75*
G02*
X188350000Y-133162500I0J-237500D01*
G01*
G37*
G36*
G01*
X190100000Y-133162500D02*
X190100000Y-133637500D01*
G75*
G02*
X189862500Y-133875000I-237500J0D01*
G01*
X189287500Y-133875000D01*
G75*
G02*
X189050000Y-133637500I0J237500D01*
G01*
X189050000Y-133162500D01*
G75*
G02*
X189287500Y-132925000I237500J0D01*
G01*
X189862500Y-132925000D01*
G75*
G02*
X190100000Y-133162500I0J-237500D01*
G01*
G37*
G04 #@! TD*
G04 #@! TO.C,C82*
G36*
G01*
X198280000Y-132245000D02*
X198280000Y-132555000D01*
G75*
G02*
X198125000Y-132710000I-155000J0D01*
G01*
X197700000Y-132710000D01*
G75*
G02*
X197545000Y-132555000I0J155000D01*
G01*
X197545000Y-132245000D01*
G75*
G02*
X197700000Y-132090000I155000J0D01*
G01*
X198125000Y-132090000D01*
G75*
G02*
X198280000Y-132245000I0J-155000D01*
G01*
G37*
G36*
G01*
X199415000Y-132245000D02*
X199415000Y-132555000D01*
G75*
G02*
X199260000Y-132710000I-155000J0D01*
G01*
X198835000Y-132710000D01*
G75*
G02*
X198680000Y-132555000I0J155000D01*
G01*
X198680000Y-132245000D01*
G75*
G02*
X198835000Y-132090000I155000J0D01*
G01*
X199260000Y-132090000D01*
G75*
G02*
X199415000Y-132245000I0J-155000D01*
G01*
G37*
G04 #@! TD*
G04 #@! TO.C,C81*
G36*
G01*
X198280000Y-130845000D02*
X198280000Y-131155000D01*
G75*
G02*
X198125000Y-131310000I-155000J0D01*
G01*
X197700000Y-131310000D01*
G75*
G02*
X197545000Y-131155000I0J155000D01*
G01*
X197545000Y-130845000D01*
G75*
G02*
X197700000Y-130690000I155000J0D01*
G01*
X198125000Y-130690000D01*
G75*
G02*
X198280000Y-130845000I0J-155000D01*
G01*
G37*
G36*
G01*
X199415000Y-130845000D02*
X199415000Y-131155000D01*
G75*
G02*
X199260000Y-131310000I-155000J0D01*
G01*
X198835000Y-131310000D01*
G75*
G02*
X198680000Y-131155000I0J155000D01*
G01*
X198680000Y-130845000D01*
G75*
G02*
X198835000Y-130690000I155000J0D01*
G01*
X199260000Y-130690000D01*
G75*
G02*
X199415000Y-130845000I0J-155000D01*
G01*
G37*
G04 #@! TD*
G04 #@! TO.C,C80*
G36*
G01*
X196432500Y-133255000D02*
X196432500Y-132945000D01*
G75*
G02*
X196587500Y-132790000I155000J0D01*
G01*
X197012500Y-132790000D01*
G75*
G02*
X197167500Y-132945000I0J-155000D01*
G01*
X197167500Y-133255000D01*
G75*
G02*
X197012500Y-133410000I-155000J0D01*
G01*
X196587500Y-133410000D01*
G75*
G02*
X196432500Y-133255000I0J155000D01*
G01*
G37*
G36*
G01*
X195297500Y-133255000D02*
X195297500Y-132945000D01*
G75*
G02*
X195452500Y-132790000I155000J0D01*
G01*
X195877500Y-132790000D01*
G75*
G02*
X196032500Y-132945000I0J-155000D01*
G01*
X196032500Y-133255000D01*
G75*
G02*
X195877500Y-133410000I-155000J0D01*
G01*
X195452500Y-133410000D01*
G75*
G02*
X195297500Y-133255000I0J155000D01*
G01*
G37*
G04 #@! TD*
G04 #@! TO.C,C79*
G36*
G01*
X196432500Y-135205000D02*
X196432500Y-134895000D01*
G75*
G02*
X196587500Y-134740000I155000J0D01*
G01*
X197012500Y-134740000D01*
G75*
G02*
X197167500Y-134895000I0J-155000D01*
G01*
X197167500Y-135205000D01*
G75*
G02*
X197012500Y-135360000I-155000J0D01*
G01*
X196587500Y-135360000D01*
G75*
G02*
X196432500Y-135205000I0J155000D01*
G01*
G37*
G36*
G01*
X195297500Y-135205000D02*
X195297500Y-134895000D01*
G75*
G02*
X195452500Y-134740000I155000J0D01*
G01*
X195877500Y-134740000D01*
G75*
G02*
X196032500Y-134895000I0J-155000D01*
G01*
X196032500Y-135205000D01*
G75*
G02*
X195877500Y-135360000I-155000J0D01*
G01*
X195452500Y-135360000D01*
G75*
G02*
X195297500Y-135205000I0J155000D01*
G01*
G37*
G04 #@! TD*
G04 #@! TO.C,C74*
G36*
G01*
X190900000Y-126235000D02*
X190900000Y-125925000D01*
G75*
G02*
X191055000Y-125770000I155000J0D01*
G01*
X191480000Y-125770000D01*
G75*
G02*
X191635000Y-125925000I0J-155000D01*
G01*
X191635000Y-126235000D01*
G75*
G02*
X191480000Y-126390000I-155000J0D01*
G01*
X191055000Y-126390000D01*
G75*
G02*
X190900000Y-126235000I0J155000D01*
G01*
G37*
G36*
G01*
X189765000Y-126235000D02*
X189765000Y-125925000D01*
G75*
G02*
X189920000Y-125770000I155000J0D01*
G01*
X190345000Y-125770000D01*
G75*
G02*
X190500000Y-125925000I0J-155000D01*
G01*
X190500000Y-126235000D01*
G75*
G02*
X190345000Y-126390000I-155000J0D01*
G01*
X189920000Y-126390000D01*
G75*
G02*
X189765000Y-126235000I0J155000D01*
G01*
G37*
G04 #@! TD*
G04 #@! TO.C,C73*
G36*
G01*
X190900000Y-127205000D02*
X190900000Y-126895000D01*
G75*
G02*
X191055000Y-126740000I155000J0D01*
G01*
X191480000Y-126740000D01*
G75*
G02*
X191635000Y-126895000I0J-155000D01*
G01*
X191635000Y-127205000D01*
G75*
G02*
X191480000Y-127360000I-155000J0D01*
G01*
X191055000Y-127360000D01*
G75*
G02*
X190900000Y-127205000I0J155000D01*
G01*
G37*
G36*
G01*
X189765000Y-127205000D02*
X189765000Y-126895000D01*
G75*
G02*
X189920000Y-126740000I155000J0D01*
G01*
X190345000Y-126740000D01*
G75*
G02*
X190500000Y-126895000I0J-155000D01*
G01*
X190500000Y-127205000D01*
G75*
G02*
X190345000Y-127360000I-155000J0D01*
G01*
X189920000Y-127360000D01*
G75*
G02*
X189765000Y-127205000I0J155000D01*
G01*
G37*
G04 #@! TD*
D15*
G04 #@! TO.C,H4*
X235325825Y-133674175D03*
X234000000Y-133125000D03*
X232674175Y-133674175D03*
X232125000Y-135000000D03*
X232674175Y-136325825D03*
X234000000Y-136875000D03*
X235325825Y-136325825D03*
X235875000Y-135000000D03*
D16*
X234000000Y-135000000D03*
G04 #@! TD*
D15*
G04 #@! TO.C,H3*
X235325825Y-104674175D03*
X234000000Y-104125000D03*
X232674175Y-104674175D03*
X232125000Y-106000000D03*
X232674175Y-107325825D03*
X234000000Y-107875000D03*
X235325825Y-107325825D03*
X235875000Y-106000000D03*
D16*
X234000000Y-106000000D03*
G04 #@! TD*
D15*
G04 #@! TO.C,H2*
X176325825Y-133674175D03*
X175000000Y-133125000D03*
X173674175Y-133674175D03*
X173125000Y-135000000D03*
X173674175Y-136325825D03*
X175000000Y-136875000D03*
X176325825Y-136325825D03*
X176875000Y-135000000D03*
D16*
X175000000Y-135000000D03*
G04 #@! TD*
D15*
G04 #@! TO.C,H1*
X176325825Y-104674175D03*
X175000000Y-104125000D03*
X173674175Y-104674175D03*
X173125000Y-106000000D03*
X173674175Y-107325825D03*
X175000000Y-107875000D03*
X176325825Y-107325825D03*
X176875000Y-106000000D03*
D16*
X175000000Y-106000000D03*
G04 #@! TD*
D17*
G04 #@! TO.C,J3*
X191740000Y-112400000D03*
X189200000Y-112400000D03*
X186660000Y-112400000D03*
X184120000Y-112400000D03*
X181580000Y-112400000D03*
X179040000Y-112400000D03*
X176500000Y-112400000D03*
D18*
X173960000Y-112400000D03*
G04 #@! TD*
G04 #@! TO.C,R13*
G36*
G01*
X188362500Y-118325000D02*
X188837500Y-118325000D01*
G75*
G02*
X189075000Y-118562500I0J-237500D01*
G01*
X189075000Y-119062500D01*
G75*
G02*
X188837500Y-119300000I-237500J0D01*
G01*
X188362500Y-119300000D01*
G75*
G02*
X188125000Y-119062500I0J237500D01*
G01*
X188125000Y-118562500D01*
G75*
G02*
X188362500Y-118325000I237500J0D01*
G01*
G37*
G36*
G01*
X188362500Y-116500000D02*
X188837500Y-116500000D01*
G75*
G02*
X189075000Y-116737500I0J-237500D01*
G01*
X189075000Y-117237500D01*
G75*
G02*
X188837500Y-117475000I-237500J0D01*
G01*
X188362500Y-117475000D01*
G75*
G02*
X188125000Y-117237500I0J237500D01*
G01*
X188125000Y-116737500D01*
G75*
G02*
X188362500Y-116500000I237500J0D01*
G01*
G37*
G04 #@! TD*
D19*
G04 #@! TO.C,D19*
X173600000Y-109728000D03*
X175000000Y-109728000D03*
G04 #@! TD*
G04 #@! TO.C,R23*
G36*
G01*
X216915000Y-126775000D02*
X216440000Y-126775000D01*
G75*
G02*
X216202500Y-126537500I0J237500D01*
G01*
X216202500Y-126037500D01*
G75*
G02*
X216440000Y-125800000I237500J0D01*
G01*
X216915000Y-125800000D01*
G75*
G02*
X217152500Y-126037500I0J-237500D01*
G01*
X217152500Y-126537500D01*
G75*
G02*
X216915000Y-126775000I-237500J0D01*
G01*
G37*
G36*
G01*
X216915000Y-128600000D02*
X216440000Y-128600000D01*
G75*
G02*
X216202500Y-128362500I0J237500D01*
G01*
X216202500Y-127862500D01*
G75*
G02*
X216440000Y-127625000I237500J0D01*
G01*
X216915000Y-127625000D01*
G75*
G02*
X217152500Y-127862500I0J-237500D01*
G01*
X217152500Y-128362500D01*
G75*
G02*
X216915000Y-128600000I-237500J0D01*
G01*
G37*
G04 #@! TD*
D20*
G04 #@! TO.C,J4*
X224815000Y-129290000D03*
X224815000Y-116490000D03*
G04 #@! TD*
G04 #@! TO.C,R21*
G36*
G01*
X201911000Y-113089500D02*
X201911000Y-112614500D01*
G75*
G02*
X202148500Y-112377000I237500J0D01*
G01*
X202648500Y-112377000D01*
G75*
G02*
X202886000Y-112614500I0J-237500D01*
G01*
X202886000Y-113089500D01*
G75*
G02*
X202648500Y-113327000I-237500J0D01*
G01*
X202148500Y-113327000D01*
G75*
G02*
X201911000Y-113089500I0J237500D01*
G01*
G37*
G36*
G01*
X200086000Y-113089500D02*
X200086000Y-112614500D01*
G75*
G02*
X200323500Y-112377000I237500J0D01*
G01*
X200823500Y-112377000D01*
G75*
G02*
X201061000Y-112614500I0J-237500D01*
G01*
X201061000Y-113089500D01*
G75*
G02*
X200823500Y-113327000I-237500J0D01*
G01*
X200323500Y-113327000D01*
G75*
G02*
X200086000Y-113089500I0J237500D01*
G01*
G37*
G04 #@! TD*
G04 #@! TO.C,R20*
G36*
G01*
X201911000Y-111537500D02*
X201911000Y-111062500D01*
G75*
G02*
X202148500Y-110825000I237500J0D01*
G01*
X202648500Y-110825000D01*
G75*
G02*
X202886000Y-111062500I0J-237500D01*
G01*
X202886000Y-111537500D01*
G75*
G02*
X202648500Y-111775000I-237500J0D01*
G01*
X202148500Y-111775000D01*
G75*
G02*
X201911000Y-111537500I0J237500D01*
G01*
G37*
G36*
G01*
X200086000Y-111537500D02*
X200086000Y-111062500D01*
G75*
G02*
X200323500Y-110825000I237500J0D01*
G01*
X200823500Y-110825000D01*
G75*
G02*
X201061000Y-111062500I0J-237500D01*
G01*
X201061000Y-111537500D01*
G75*
G02*
X200823500Y-111775000I-237500J0D01*
G01*
X200323500Y-111775000D01*
G75*
G02*
X200086000Y-111537500I0J237500D01*
G01*
G37*
G04 #@! TD*
D19*
G04 #@! TO.C,D18*
X194500000Y-109728000D03*
X195900000Y-109728000D03*
G04 #@! TD*
G04 #@! TO.C,D17*
X218505000Y-109764000D03*
X217105000Y-109764000D03*
G04 #@! TD*
G04 #@! TO.C,D16*
X211901000Y-109764000D03*
X210501000Y-109764000D03*
G04 #@! TD*
G04 #@! TO.C,D15*
X215203000Y-109764000D03*
X213803000Y-109764000D03*
G04 #@! TD*
G04 #@! TO.C,D14*
X205297000Y-109728000D03*
X203897000Y-109728000D03*
G04 #@! TD*
G04 #@! TO.C,D13*
X208599000Y-109764000D03*
X207199000Y-109764000D03*
G04 #@! TD*
G04 #@! TO.C,D12*
X189130000Y-109728000D03*
X190530000Y-109728000D03*
G04 #@! TD*
G04 #@! TO.C,D11*
X186550000Y-109728000D03*
X187950000Y-109728000D03*
G04 #@! TD*
G04 #@! TO.C,D10*
X184040000Y-109728000D03*
X185440000Y-109728000D03*
G04 #@! TD*
G04 #@! TO.C,D9*
X181520000Y-109728000D03*
X182920000Y-109728000D03*
G04 #@! TD*
G04 #@! TO.C,D8*
X178880000Y-109728000D03*
X180280000Y-109728000D03*
G04 #@! TD*
G04 #@! TO.C,D7*
X176240000Y-109728000D03*
X177640000Y-109728000D03*
G04 #@! TD*
G04 #@! TO.C,R5*
G36*
G01*
X197984300Y-127462500D02*
X198459300Y-127462500D01*
G75*
G02*
X198696800Y-127700000I0J-237500D01*
G01*
X198696800Y-128200000D01*
G75*
G02*
X198459300Y-128437500I-237500J0D01*
G01*
X197984300Y-128437500D01*
G75*
G02*
X197746800Y-128200000I0J237500D01*
G01*
X197746800Y-127700000D01*
G75*
G02*
X197984300Y-127462500I237500J0D01*
G01*
G37*
G36*
G01*
X197984300Y-129287500D02*
X198459300Y-129287500D01*
G75*
G02*
X198696800Y-129525000I0J-237500D01*
G01*
X198696800Y-130025000D01*
G75*
G02*
X198459300Y-130262500I-237500J0D01*
G01*
X197984300Y-130262500D01*
G75*
G02*
X197746800Y-130025000I0J237500D01*
G01*
X197746800Y-129525000D01*
G75*
G02*
X197984300Y-129287500I237500J0D01*
G01*
G37*
G04 #@! TD*
G04 #@! TO.C,R7*
G36*
G01*
X211500000Y-123037500D02*
X211500000Y-122562500D01*
G75*
G02*
X211737500Y-122325000I237500J0D01*
G01*
X212237500Y-122325000D01*
G75*
G02*
X212475000Y-122562500I0J-237500D01*
G01*
X212475000Y-123037500D01*
G75*
G02*
X212237500Y-123275000I-237500J0D01*
G01*
X211737500Y-123275000D01*
G75*
G02*
X211500000Y-123037500I0J237500D01*
G01*
G37*
G36*
G01*
X213325000Y-123037500D02*
X213325000Y-122562500D01*
G75*
G02*
X213562500Y-122325000I237500J0D01*
G01*
X214062500Y-122325000D01*
G75*
G02*
X214300000Y-122562500I0J-237500D01*
G01*
X214300000Y-123037500D01*
G75*
G02*
X214062500Y-123275000I-237500J0D01*
G01*
X213562500Y-123275000D01*
G75*
G02*
X213325000Y-123037500I0J237500D01*
G01*
G37*
G04 #@! TD*
G04 #@! TO.C,R10*
G36*
G01*
X215175000Y-116962500D02*
X215175000Y-117437500D01*
G75*
G02*
X214937500Y-117675000I-237500J0D01*
G01*
X214437500Y-117675000D01*
G75*
G02*
X214200000Y-117437500I0J237500D01*
G01*
X214200000Y-116962500D01*
G75*
G02*
X214437500Y-116725000I237500J0D01*
G01*
X214937500Y-116725000D01*
G75*
G02*
X215175000Y-116962500I0J-237500D01*
G01*
G37*
G36*
G01*
X217000000Y-116962500D02*
X217000000Y-117437500D01*
G75*
G02*
X216762500Y-117675000I-237500J0D01*
G01*
X216262500Y-117675000D01*
G75*
G02*
X216025000Y-117437500I0J237500D01*
G01*
X216025000Y-116962500D01*
G75*
G02*
X216262500Y-116725000I237500J0D01*
G01*
X216762500Y-116725000D01*
G75*
G02*
X217000000Y-116962500I0J-237500D01*
G01*
G37*
G04 #@! TD*
D17*
G04 #@! TO.C,J5*
X198000000Y-112400000D03*
D18*
X195460000Y-112400000D03*
G04 #@! TD*
D17*
G04 #@! TO.C,J1*
X220330000Y-112400000D03*
X217790000Y-112400000D03*
X215250000Y-112400000D03*
X212710000Y-112400000D03*
X210170000Y-112400000D03*
X207630000Y-112400000D03*
D18*
X205090000Y-112400000D03*
G04 #@! TD*
G04 #@! TO.C,C20*
G36*
G01*
X217962500Y-127525000D02*
X218437500Y-127525000D01*
G75*
G02*
X218675000Y-127762500I0J-237500D01*
G01*
X218675000Y-128362500D01*
G75*
G02*
X218437500Y-128600000I-237500J0D01*
G01*
X217962500Y-128600000D01*
G75*
G02*
X217725000Y-128362500I0J237500D01*
G01*
X217725000Y-127762500D01*
G75*
G02*
X217962500Y-127525000I237500J0D01*
G01*
G37*
G36*
G01*
X217962500Y-125800000D02*
X218437500Y-125800000D01*
G75*
G02*
X218675000Y-126037500I0J-237500D01*
G01*
X218675000Y-126637500D01*
G75*
G02*
X218437500Y-126875000I-237500J0D01*
G01*
X217962500Y-126875000D01*
G75*
G02*
X217725000Y-126637500I0J237500D01*
G01*
X217725000Y-126037500D01*
G75*
G02*
X217962500Y-125800000I237500J0D01*
G01*
G37*
G04 #@! TD*
G04 #@! TO.C,C26*
G36*
G01*
X204762500Y-115100000D02*
X205237500Y-115100000D01*
G75*
G02*
X205475000Y-115337500I0J-237500D01*
G01*
X205475000Y-115937500D01*
G75*
G02*
X205237500Y-116175000I-237500J0D01*
G01*
X204762500Y-116175000D01*
G75*
G02*
X204525000Y-115937500I0J237500D01*
G01*
X204525000Y-115337500D01*
G75*
G02*
X204762500Y-115100000I237500J0D01*
G01*
G37*
G36*
G01*
X204762500Y-116825000D02*
X205237500Y-116825000D01*
G75*
G02*
X205475000Y-117062500I0J-237500D01*
G01*
X205475000Y-117662500D01*
G75*
G02*
X205237500Y-117900000I-237500J0D01*
G01*
X204762500Y-117900000D01*
G75*
G02*
X204525000Y-117662500I0J237500D01*
G01*
X204525000Y-117062500D01*
G75*
G02*
X204762500Y-116825000I237500J0D01*
G01*
G37*
G04 #@! TD*
G04 #@! TO.C,C32*
G36*
G01*
X203737500Y-123762500D02*
X203737500Y-124237500D01*
G75*
G02*
X203500000Y-124475000I-237500J0D01*
G01*
X202900000Y-124475000D01*
G75*
G02*
X202662500Y-124237500I0J237500D01*
G01*
X202662500Y-123762500D01*
G75*
G02*
X202900000Y-123525000I237500J0D01*
G01*
X203500000Y-123525000D01*
G75*
G02*
X203737500Y-123762500I0J-237500D01*
G01*
G37*
G36*
G01*
X205462500Y-123762500D02*
X205462500Y-124237500D01*
G75*
G02*
X205225000Y-124475000I-237500J0D01*
G01*
X204625000Y-124475000D01*
G75*
G02*
X204387500Y-124237500I0J237500D01*
G01*
X204387500Y-123762500D01*
G75*
G02*
X204625000Y-123525000I237500J0D01*
G01*
X205225000Y-123525000D01*
G75*
G02*
X205462500Y-123762500I0J-237500D01*
G01*
G37*
G04 #@! TD*
G04 #@! TO.C,C33*
G36*
G01*
X205400000Y-120462500D02*
X205400000Y-120937500D01*
G75*
G02*
X205162500Y-121175000I-237500J0D01*
G01*
X204562500Y-121175000D01*
G75*
G02*
X204325000Y-120937500I0J237500D01*
G01*
X204325000Y-120462500D01*
G75*
G02*
X204562500Y-120225000I237500J0D01*
G01*
X205162500Y-120225000D01*
G75*
G02*
X205400000Y-120462500I0J-237500D01*
G01*
G37*
G36*
G01*
X203675000Y-120462500D02*
X203675000Y-120937500D01*
G75*
G02*
X203437500Y-121175000I-237500J0D01*
G01*
X202837500Y-121175000D01*
G75*
G02*
X202600000Y-120937500I0J237500D01*
G01*
X202600000Y-120462500D01*
G75*
G02*
X202837500Y-120225000I237500J0D01*
G01*
X203437500Y-120225000D01*
G75*
G02*
X203675000Y-120462500I0J-237500D01*
G01*
G37*
G04 #@! TD*
G04 #@! TO.C,C34*
G36*
G01*
X200962500Y-120112500D02*
X201437500Y-120112500D01*
G75*
G02*
X201675000Y-120350000I0J-237500D01*
G01*
X201675000Y-120950000D01*
G75*
G02*
X201437500Y-121187500I-237500J0D01*
G01*
X200962500Y-121187500D01*
G75*
G02*
X200725000Y-120950000I0J237500D01*
G01*
X200725000Y-120350000D01*
G75*
G02*
X200962500Y-120112500I237500J0D01*
G01*
G37*
G36*
G01*
X200962500Y-118387500D02*
X201437500Y-118387500D01*
G75*
G02*
X201675000Y-118625000I0J-237500D01*
G01*
X201675000Y-119225000D01*
G75*
G02*
X201437500Y-119462500I-237500J0D01*
G01*
X200962500Y-119462500D01*
G75*
G02*
X200725000Y-119225000I0J237500D01*
G01*
X200725000Y-118625000D01*
G75*
G02*
X200962500Y-118387500I237500J0D01*
G01*
G37*
G04 #@! TD*
G04 #@! TO.C,C35*
G36*
G01*
X197700000Y-124540000D02*
X197700000Y-125015000D01*
G75*
G02*
X197462500Y-125252500I-237500J0D01*
G01*
X196862500Y-125252500D01*
G75*
G02*
X196625000Y-125015000I0J237500D01*
G01*
X196625000Y-124540000D01*
G75*
G02*
X196862500Y-124302500I237500J0D01*
G01*
X197462500Y-124302500D01*
G75*
G02*
X197700000Y-124540000I0J-237500D01*
G01*
G37*
G36*
G01*
X195975000Y-124540000D02*
X195975000Y-125015000D01*
G75*
G02*
X195737500Y-125252500I-237500J0D01*
G01*
X195137500Y-125252500D01*
G75*
G02*
X194900000Y-125015000I0J237500D01*
G01*
X194900000Y-124540000D01*
G75*
G02*
X195137500Y-124302500I237500J0D01*
G01*
X195737500Y-124302500D01*
G75*
G02*
X195975000Y-124540000I0J-237500D01*
G01*
G37*
G04 #@! TD*
G04 #@! TO.C,C41*
G36*
G01*
X201437500Y-126500000D02*
X200962500Y-126500000D01*
G75*
G02*
X200725000Y-126262500I0J237500D01*
G01*
X200725000Y-125662500D01*
G75*
G02*
X200962500Y-125425000I237500J0D01*
G01*
X201437500Y-125425000D01*
G75*
G02*
X201675000Y-125662500I0J-237500D01*
G01*
X201675000Y-126262500D01*
G75*
G02*
X201437500Y-126500000I-237500J0D01*
G01*
G37*
G36*
G01*
X201437500Y-124775000D02*
X200962500Y-124775000D01*
G75*
G02*
X200725000Y-124537500I0J237500D01*
G01*
X200725000Y-123937500D01*
G75*
G02*
X200962500Y-123700000I237500J0D01*
G01*
X201437500Y-123700000D01*
G75*
G02*
X201675000Y-123937500I0J-237500D01*
G01*
X201675000Y-124537500D01*
G75*
G02*
X201437500Y-124775000I-237500J0D01*
G01*
G37*
G04 #@! TD*
G04 #@! TO.C,C42*
G36*
G01*
X198700000Y-126162500D02*
X198700000Y-126637500D01*
G75*
G02*
X198462500Y-126875000I-237500J0D01*
G01*
X197862500Y-126875000D01*
G75*
G02*
X197625000Y-126637500I0J237500D01*
G01*
X197625000Y-126162500D01*
G75*
G02*
X197862500Y-125925000I237500J0D01*
G01*
X198462500Y-125925000D01*
G75*
G02*
X198700000Y-126162500I0J-237500D01*
G01*
G37*
G36*
G01*
X196975000Y-126162500D02*
X196975000Y-126637500D01*
G75*
G02*
X196737500Y-126875000I-237500J0D01*
G01*
X196137500Y-126875000D01*
G75*
G02*
X195900000Y-126637500I0J237500D01*
G01*
X195900000Y-126162500D01*
G75*
G02*
X196137500Y-125925000I237500J0D01*
G01*
X196737500Y-125925000D01*
G75*
G02*
X196975000Y-126162500I0J-237500D01*
G01*
G37*
G04 #@! TD*
G04 #@! TO.C,C43*
G36*
G01*
X199937500Y-124775000D02*
X199462500Y-124775000D01*
G75*
G02*
X199225000Y-124537500I0J237500D01*
G01*
X199225000Y-123937500D01*
G75*
G02*
X199462500Y-123700000I237500J0D01*
G01*
X199937500Y-123700000D01*
G75*
G02*
X200175000Y-123937500I0J-237500D01*
G01*
X200175000Y-124537500D01*
G75*
G02*
X199937500Y-124775000I-237500J0D01*
G01*
G37*
G36*
G01*
X199937500Y-126500000D02*
X199462500Y-126500000D01*
G75*
G02*
X199225000Y-126262500I0J237500D01*
G01*
X199225000Y-125662500D01*
G75*
G02*
X199462500Y-125425000I237500J0D01*
G01*
X199937500Y-125425000D01*
G75*
G02*
X200175000Y-125662500I0J-237500D01*
G01*
X200175000Y-126262500D01*
G75*
G02*
X199937500Y-126500000I-237500J0D01*
G01*
G37*
G04 #@! TD*
G04 #@! TO.C,C61*
G36*
G01*
X203562500Y-122162500D02*
X203562500Y-122637500D01*
G75*
G02*
X203325000Y-122875000I-237500J0D01*
G01*
X202725000Y-122875000D01*
G75*
G02*
X202487500Y-122637500I0J237500D01*
G01*
X202487500Y-122162500D01*
G75*
G02*
X202725000Y-121925000I237500J0D01*
G01*
X203325000Y-121925000D01*
G75*
G02*
X203562500Y-122162500I0J-237500D01*
G01*
G37*
G36*
G01*
X205287500Y-122162500D02*
X205287500Y-122637500D01*
G75*
G02*
X205050000Y-122875000I-237500J0D01*
G01*
X204450000Y-122875000D01*
G75*
G02*
X204212500Y-122637500I0J237500D01*
G01*
X204212500Y-122162500D01*
G75*
G02*
X204450000Y-121925000I237500J0D01*
G01*
X205050000Y-121925000D01*
G75*
G02*
X205287500Y-122162500I0J-237500D01*
G01*
G37*
G04 #@! TD*
G04 #@! TO.C,C62*
G36*
G01*
X199937500Y-120187500D02*
X199462500Y-120187500D01*
G75*
G02*
X199225000Y-119950000I0J237500D01*
G01*
X199225000Y-119350000D01*
G75*
G02*
X199462500Y-119112500I237500J0D01*
G01*
X199937500Y-119112500D01*
G75*
G02*
X200175000Y-119350000I0J-237500D01*
G01*
X200175000Y-119950000D01*
G75*
G02*
X199937500Y-120187500I-237500J0D01*
G01*
G37*
G36*
G01*
X199937500Y-118462500D02*
X199462500Y-118462500D01*
G75*
G02*
X199225000Y-118225000I0J237500D01*
G01*
X199225000Y-117625000D01*
G75*
G02*
X199462500Y-117387500I237500J0D01*
G01*
X199937500Y-117387500D01*
G75*
G02*
X200175000Y-117625000I0J-237500D01*
G01*
X200175000Y-118225000D01*
G75*
G02*
X199937500Y-118462500I-237500J0D01*
G01*
G37*
G04 #@! TD*
D14*
G04 #@! TO.C,JP1*
G36*
X216200000Y-121850000D02*
G01*
X215700000Y-121850000D01*
X215700000Y-121849398D01*
X215675466Y-121849398D01*
X215626635Y-121844588D01*
X215578510Y-121835016D01*
X215531555Y-121820772D01*
X215486222Y-121801995D01*
X215442949Y-121778864D01*
X215402150Y-121751604D01*
X215364221Y-121720476D01*
X215329524Y-121685779D01*
X215298396Y-121647850D01*
X215271136Y-121607051D01*
X215248005Y-121563778D01*
X215229228Y-121518445D01*
X215214984Y-121471490D01*
X215205412Y-121423365D01*
X215200602Y-121374534D01*
X215200602Y-121350000D01*
X215200000Y-121350000D01*
X215200000Y-120850000D01*
X215200602Y-120850000D01*
X215200602Y-120825466D01*
X215205412Y-120776635D01*
X215214984Y-120728510D01*
X215229228Y-120681555D01*
X215248005Y-120636222D01*
X215271136Y-120592949D01*
X215298396Y-120552150D01*
X215329524Y-120514221D01*
X215364221Y-120479524D01*
X215402150Y-120448396D01*
X215442949Y-120421136D01*
X215486222Y-120398005D01*
X215531555Y-120379228D01*
X215578510Y-120364984D01*
X215626635Y-120355412D01*
X215675466Y-120350602D01*
X215700000Y-120350602D01*
X215700000Y-120350000D01*
X216200000Y-120350000D01*
X216200000Y-121850000D01*
G37*
G36*
X217000000Y-120350602D02*
G01*
X217024534Y-120350602D01*
X217073365Y-120355412D01*
X217121490Y-120364984D01*
X217168445Y-120379228D01*
X217213778Y-120398005D01*
X217257051Y-120421136D01*
X217297850Y-120448396D01*
X217335779Y-120479524D01*
X217370476Y-120514221D01*
X217401604Y-120552150D01*
X217428864Y-120592949D01*
X217451995Y-120636222D01*
X217470772Y-120681555D01*
X217485016Y-120728510D01*
X217494588Y-120776635D01*
X217499398Y-120825466D01*
X217499398Y-120850000D01*
X217500000Y-120850000D01*
X217500000Y-121350000D01*
X217499398Y-121350000D01*
X217499398Y-121374534D01*
X217494588Y-121423365D01*
X217485016Y-121471490D01*
X217470772Y-121518445D01*
X217451995Y-121563778D01*
X217428864Y-121607051D01*
X217401604Y-121647850D01*
X217370476Y-121685779D01*
X217335779Y-121720476D01*
X217297850Y-121751604D01*
X217257051Y-121778864D01*
X217213778Y-121801995D01*
X217168445Y-121820772D01*
X217121490Y-121835016D01*
X217073365Y-121844588D01*
X217024534Y-121849398D01*
X217000000Y-121849398D01*
X217000000Y-121850000D01*
X216500000Y-121850000D01*
X216500000Y-120350000D01*
X217000000Y-120350000D01*
X217000000Y-120350602D01*
G37*
G04 #@! TD*
G04 #@! TO.C,R6*
G36*
G01*
X211500000Y-121537500D02*
X211500000Y-121062500D01*
G75*
G02*
X211737500Y-120825000I237500J0D01*
G01*
X212237500Y-120825000D01*
G75*
G02*
X212475000Y-121062500I0J-237500D01*
G01*
X212475000Y-121537500D01*
G75*
G02*
X212237500Y-121775000I-237500J0D01*
G01*
X211737500Y-121775000D01*
G75*
G02*
X211500000Y-121537500I0J237500D01*
G01*
G37*
G36*
G01*
X213325000Y-121537500D02*
X213325000Y-121062500D01*
G75*
G02*
X213562500Y-120825000I237500J0D01*
G01*
X214062500Y-120825000D01*
G75*
G02*
X214300000Y-121062500I0J-237500D01*
G01*
X214300000Y-121537500D01*
G75*
G02*
X214062500Y-121775000I-237500J0D01*
G01*
X213562500Y-121775000D01*
G75*
G02*
X213325000Y-121537500I0J237500D01*
G01*
G37*
G04 #@! TD*
G04 #@! TO.C,R8*
G36*
G01*
X213325000Y-124537500D02*
X213325000Y-124062500D01*
G75*
G02*
X213562500Y-123825000I237500J0D01*
G01*
X214062500Y-123825000D01*
G75*
G02*
X214300000Y-124062500I0J-237500D01*
G01*
X214300000Y-124537500D01*
G75*
G02*
X214062500Y-124775000I-237500J0D01*
G01*
X213562500Y-124775000D01*
G75*
G02*
X213325000Y-124537500I0J237500D01*
G01*
G37*
G36*
G01*
X211500000Y-124537500D02*
X211500000Y-124062500D01*
G75*
G02*
X211737500Y-123825000I237500J0D01*
G01*
X212237500Y-123825000D01*
G75*
G02*
X212475000Y-124062500I0J-237500D01*
G01*
X212475000Y-124537500D01*
G75*
G02*
X212237500Y-124775000I-237500J0D01*
G01*
X211737500Y-124775000D01*
G75*
G02*
X211500000Y-124537500I0J237500D01*
G01*
G37*
G04 #@! TD*
G04 #@! TO.C,R9*
G36*
G01*
X192375000Y-117237500D02*
X192375000Y-116762500D01*
G75*
G02*
X192612500Y-116525000I237500J0D01*
G01*
X193112500Y-116525000D01*
G75*
G02*
X193350000Y-116762500I0J-237500D01*
G01*
X193350000Y-117237500D01*
G75*
G02*
X193112500Y-117475000I-237500J0D01*
G01*
X192612500Y-117475000D01*
G75*
G02*
X192375000Y-117237500I0J237500D01*
G01*
G37*
G36*
G01*
X190550000Y-117237500D02*
X190550000Y-116762500D01*
G75*
G02*
X190787500Y-116525000I237500J0D01*
G01*
X191287500Y-116525000D01*
G75*
G02*
X191525000Y-116762500I0J-237500D01*
G01*
X191525000Y-117237500D01*
G75*
G02*
X191287500Y-117475000I-237500J0D01*
G01*
X190787500Y-117475000D01*
G75*
G02*
X190550000Y-117237500I0J237500D01*
G01*
G37*
G04 #@! TD*
G04 #@! TO.C,R11*
G36*
G01*
X215175000Y-118762500D02*
X215175000Y-119237500D01*
G75*
G02*
X214937500Y-119475000I-237500J0D01*
G01*
X214437500Y-119475000D01*
G75*
G02*
X214200000Y-119237500I0J237500D01*
G01*
X214200000Y-118762500D01*
G75*
G02*
X214437500Y-118525000I237500J0D01*
G01*
X214937500Y-118525000D01*
G75*
G02*
X215175000Y-118762500I0J-237500D01*
G01*
G37*
G36*
G01*
X217000000Y-118762500D02*
X217000000Y-119237500D01*
G75*
G02*
X216762500Y-119475000I-237500J0D01*
G01*
X216262500Y-119475000D01*
G75*
G02*
X216025000Y-119237500I0J237500D01*
G01*
X216025000Y-118762500D01*
G75*
G02*
X216262500Y-118525000I237500J0D01*
G01*
X216762500Y-118525000D01*
G75*
G02*
X217000000Y-118762500I0J-237500D01*
G01*
G37*
G04 #@! TD*
G04 #@! TO.C,U6*
G36*
G01*
X213250000Y-115595000D02*
X213250000Y-115895000D01*
G75*
G02*
X213100000Y-116045000I-150000J0D01*
G01*
X211450000Y-116045000D01*
G75*
G02*
X211300000Y-115895000I0J150000D01*
G01*
X211300000Y-115595000D01*
G75*
G02*
X211450000Y-115445000I150000J0D01*
G01*
X213100000Y-115445000D01*
G75*
G02*
X213250000Y-115595000I0J-150000D01*
G01*
G37*
G36*
G01*
X213250000Y-116865000D02*
X213250000Y-117165000D01*
G75*
G02*
X213100000Y-117315000I-150000J0D01*
G01*
X211450000Y-117315000D01*
G75*
G02*
X211300000Y-117165000I0J150000D01*
G01*
X211300000Y-116865000D01*
G75*
G02*
X211450000Y-116715000I150000J0D01*
G01*
X213100000Y-116715000D01*
G75*
G02*
X213250000Y-116865000I0J-150000D01*
G01*
G37*
G36*
G01*
X213250000Y-118135000D02*
X213250000Y-118435000D01*
G75*
G02*
X213100000Y-118585000I-150000J0D01*
G01*
X211450000Y-118585000D01*
G75*
G02*
X211300000Y-118435000I0J150000D01*
G01*
X211300000Y-118135000D01*
G75*
G02*
X211450000Y-117985000I150000J0D01*
G01*
X213100000Y-117985000D01*
G75*
G02*
X213250000Y-118135000I0J-150000D01*
G01*
G37*
G36*
G01*
X213250000Y-119405000D02*
X213250000Y-119705000D01*
G75*
G02*
X213100000Y-119855000I-150000J0D01*
G01*
X211450000Y-119855000D01*
G75*
G02*
X211300000Y-119705000I0J150000D01*
G01*
X211300000Y-119405000D01*
G75*
G02*
X211450000Y-119255000I150000J0D01*
G01*
X213100000Y-119255000D01*
G75*
G02*
X213250000Y-119405000I0J-150000D01*
G01*
G37*
G36*
G01*
X208300000Y-119405000D02*
X208300000Y-119705000D01*
G75*
G02*
X208150000Y-119855000I-150000J0D01*
G01*
X206500000Y-119855000D01*
G75*
G02*
X206350000Y-119705000I0J150000D01*
G01*
X206350000Y-119405000D01*
G75*
G02*
X206500000Y-119255000I150000J0D01*
G01*
X208150000Y-119255000D01*
G75*
G02*
X208300000Y-119405000I0J-150000D01*
G01*
G37*
G36*
G01*
X208300000Y-118135000D02*
X208300000Y-118435000D01*
G75*
G02*
X208150000Y-118585000I-150000J0D01*
G01*
X206500000Y-118585000D01*
G75*
G02*
X206350000Y-118435000I0J150000D01*
G01*
X206350000Y-118135000D01*
G75*
G02*
X206500000Y-117985000I150000J0D01*
G01*
X208150000Y-117985000D01*
G75*
G02*
X208300000Y-118135000I0J-150000D01*
G01*
G37*
G36*
G01*
X208300000Y-116865000D02*
X208300000Y-117165000D01*
G75*
G02*
X208150000Y-117315000I-150000J0D01*
G01*
X206500000Y-117315000D01*
G75*
G02*
X206350000Y-117165000I0J150000D01*
G01*
X206350000Y-116865000D01*
G75*
G02*
X206500000Y-116715000I150000J0D01*
G01*
X208150000Y-116715000D01*
G75*
G02*
X208300000Y-116865000I0J-150000D01*
G01*
G37*
G36*
G01*
X208300000Y-115595000D02*
X208300000Y-115895000D01*
G75*
G02*
X208150000Y-116045000I-150000J0D01*
G01*
X206500000Y-116045000D01*
G75*
G02*
X206350000Y-115895000I0J150000D01*
G01*
X206350000Y-115595000D01*
G75*
G02*
X206500000Y-115445000I150000J0D01*
G01*
X208150000Y-115445000D01*
G75*
G02*
X208300000Y-115595000I0J-150000D01*
G01*
G37*
G04 #@! TD*
G04 #@! TO.C,C52*
G36*
G01*
X196650000Y-121437500D02*
X196650000Y-120962500D01*
G75*
G02*
X196887500Y-120725000I237500J0D01*
G01*
X197487500Y-120725000D01*
G75*
G02*
X197725000Y-120962500I0J-237500D01*
G01*
X197725000Y-121437500D01*
G75*
G02*
X197487500Y-121675000I-237500J0D01*
G01*
X196887500Y-121675000D01*
G75*
G02*
X196650000Y-121437500I0J237500D01*
G01*
G37*
G36*
G01*
X198375000Y-121437500D02*
X198375000Y-120962500D01*
G75*
G02*
X198612500Y-120725000I237500J0D01*
G01*
X199212500Y-120725000D01*
G75*
G02*
X199450000Y-120962500I0J-237500D01*
G01*
X199450000Y-121437500D01*
G75*
G02*
X199212500Y-121675000I-237500J0D01*
G01*
X198612500Y-121675000D01*
G75*
G02*
X198375000Y-121437500I0J237500D01*
G01*
G37*
G04 #@! TD*
G04 #@! TO.C,C31*
G36*
G01*
X199975000Y-122937500D02*
X199975000Y-122462500D01*
G75*
G02*
X200212500Y-122225000I237500J0D01*
G01*
X200812500Y-122225000D01*
G75*
G02*
X201050000Y-122462500I0J-237500D01*
G01*
X201050000Y-122937500D01*
G75*
G02*
X200812500Y-123175000I-237500J0D01*
G01*
X200212500Y-123175000D01*
G75*
G02*
X199975000Y-122937500I0J237500D01*
G01*
G37*
G36*
G01*
X198250000Y-122937500D02*
X198250000Y-122462500D01*
G75*
G02*
X198487500Y-122225000I237500J0D01*
G01*
X199087500Y-122225000D01*
G75*
G02*
X199325000Y-122462500I0J-237500D01*
G01*
X199325000Y-122937500D01*
G75*
G02*
X199087500Y-123175000I-237500J0D01*
G01*
X198487500Y-123175000D01*
G75*
G02*
X198250000Y-122937500I0J237500D01*
G01*
G37*
G04 #@! TD*
G04 #@! TO.C,C71*
G36*
G01*
X206205000Y-126885000D02*
X205895000Y-126885000D01*
G75*
G02*
X205740000Y-126730000I0J155000D01*
G01*
X205740000Y-126305000D01*
G75*
G02*
X205895000Y-126150000I155000J0D01*
G01*
X206205000Y-126150000D01*
G75*
G02*
X206360000Y-126305000I0J-155000D01*
G01*
X206360000Y-126730000D01*
G75*
G02*
X206205000Y-126885000I-155000J0D01*
G01*
G37*
G36*
G01*
X206205000Y-125750000D02*
X205895000Y-125750000D01*
G75*
G02*
X205740000Y-125595000I0J155000D01*
G01*
X205740000Y-125170000D01*
G75*
G02*
X205895000Y-125015000I155000J0D01*
G01*
X206205000Y-125015000D01*
G75*
G02*
X206360000Y-125170000I0J-155000D01*
G01*
X206360000Y-125595000D01*
G75*
G02*
X206205000Y-125750000I-155000J0D01*
G01*
G37*
G04 #@! TD*
G04 #@! TO.C,C72*
G36*
G01*
X204405000Y-125750000D02*
X204095000Y-125750000D01*
G75*
G02*
X203940000Y-125595000I0J155000D01*
G01*
X203940000Y-125170000D01*
G75*
G02*
X204095000Y-125015000I155000J0D01*
G01*
X204405000Y-125015000D01*
G75*
G02*
X204560000Y-125170000I0J-155000D01*
G01*
X204560000Y-125595000D01*
G75*
G02*
X204405000Y-125750000I-155000J0D01*
G01*
G37*
G36*
G01*
X204405000Y-126885000D02*
X204095000Y-126885000D01*
G75*
G02*
X203940000Y-126730000I0J155000D01*
G01*
X203940000Y-126305000D01*
G75*
G02*
X204095000Y-126150000I155000J0D01*
G01*
X204405000Y-126150000D01*
G75*
G02*
X204560000Y-126305000I0J-155000D01*
G01*
X204560000Y-126730000D01*
G75*
G02*
X204405000Y-126885000I-155000J0D01*
G01*
G37*
G04 #@! TD*
G04 #@! TO.C,C78*
G36*
G01*
X189797500Y-119555000D02*
X189797500Y-119245000D01*
G75*
G02*
X189952500Y-119090000I155000J0D01*
G01*
X190377500Y-119090000D01*
G75*
G02*
X190532500Y-119245000I0J-155000D01*
G01*
X190532500Y-119555000D01*
G75*
G02*
X190377500Y-119710000I-155000J0D01*
G01*
X189952500Y-119710000D01*
G75*
G02*
X189797500Y-119555000I0J155000D01*
G01*
G37*
G36*
G01*
X190932500Y-119555000D02*
X190932500Y-119245000D01*
G75*
G02*
X191087500Y-119090000I155000J0D01*
G01*
X191512500Y-119090000D01*
G75*
G02*
X191667500Y-119245000I0J-155000D01*
G01*
X191667500Y-119555000D01*
G75*
G02*
X191512500Y-119710000I-155000J0D01*
G01*
X191087500Y-119710000D01*
G75*
G02*
X190932500Y-119555000I0J155000D01*
G01*
G37*
G04 #@! TD*
G04 #@! TO.C,C77*
G36*
G01*
X190932500Y-120505000D02*
X190932500Y-120195000D01*
G75*
G02*
X191087500Y-120040000I155000J0D01*
G01*
X191512500Y-120040000D01*
G75*
G02*
X191667500Y-120195000I0J-155000D01*
G01*
X191667500Y-120505000D01*
G75*
G02*
X191512500Y-120660000I-155000J0D01*
G01*
X191087500Y-120660000D01*
G75*
G02*
X190932500Y-120505000I0J155000D01*
G01*
G37*
G36*
G01*
X189797500Y-120505000D02*
X189797500Y-120195000D01*
G75*
G02*
X189952500Y-120040000I155000J0D01*
G01*
X190377500Y-120040000D01*
G75*
G02*
X190532500Y-120195000I0J-155000D01*
G01*
X190532500Y-120505000D01*
G75*
G02*
X190377500Y-120660000I-155000J0D01*
G01*
X189952500Y-120660000D01*
G75*
G02*
X189797500Y-120505000I0J155000D01*
G01*
G37*
G04 #@! TD*
G04 #@! TO.C,C75*
G36*
G01*
X202505000Y-128835000D02*
X202195000Y-128835000D01*
G75*
G02*
X202040000Y-128680000I0J155000D01*
G01*
X202040000Y-128255000D01*
G75*
G02*
X202195000Y-128100000I155000J0D01*
G01*
X202505000Y-128100000D01*
G75*
G02*
X202660000Y-128255000I0J-155000D01*
G01*
X202660000Y-128680000D01*
G75*
G02*
X202505000Y-128835000I-155000J0D01*
G01*
G37*
G36*
G01*
X202505000Y-127700000D02*
X202195000Y-127700000D01*
G75*
G02*
X202040000Y-127545000I0J155000D01*
G01*
X202040000Y-127120000D01*
G75*
G02*
X202195000Y-126965000I155000J0D01*
G01*
X202505000Y-126965000D01*
G75*
G02*
X202660000Y-127120000I0J-155000D01*
G01*
X202660000Y-127545000D01*
G75*
G02*
X202505000Y-127700000I-155000J0D01*
G01*
G37*
G04 #@! TD*
G04 #@! TO.C,C76*
G36*
G01*
X200405000Y-128835000D02*
X200095000Y-128835000D01*
G75*
G02*
X199940000Y-128680000I0J155000D01*
G01*
X199940000Y-128255000D01*
G75*
G02*
X200095000Y-128100000I155000J0D01*
G01*
X200405000Y-128100000D01*
G75*
G02*
X200560000Y-128255000I0J-155000D01*
G01*
X200560000Y-128680000D01*
G75*
G02*
X200405000Y-128835000I-155000J0D01*
G01*
G37*
G36*
G01*
X200405000Y-127700000D02*
X200095000Y-127700000D01*
G75*
G02*
X199940000Y-127545000I0J155000D01*
G01*
X199940000Y-127120000D01*
G75*
G02*
X200095000Y-126965000I155000J0D01*
G01*
X200405000Y-126965000D01*
G75*
G02*
X200560000Y-127120000I0J-155000D01*
G01*
X200560000Y-127545000D01*
G75*
G02*
X200405000Y-127700000I-155000J0D01*
G01*
G37*
G04 #@! TD*
G04 #@! TO.C,C22*
G36*
G01*
X201811000Y-109987500D02*
X201811000Y-109512500D01*
G75*
G02*
X202048500Y-109275000I237500J0D01*
G01*
X202648500Y-109275000D01*
G75*
G02*
X202886000Y-109512500I0J-237500D01*
G01*
X202886000Y-109987500D01*
G75*
G02*
X202648500Y-110225000I-237500J0D01*
G01*
X202048500Y-110225000D01*
G75*
G02*
X201811000Y-109987500I0J237500D01*
G01*
G37*
G36*
G01*
X200086000Y-109987500D02*
X200086000Y-109512500D01*
G75*
G02*
X200323500Y-109275000I237500J0D01*
G01*
X200923500Y-109275000D01*
G75*
G02*
X201161000Y-109512500I0J-237500D01*
G01*
X201161000Y-109987500D01*
G75*
G02*
X200923500Y-110225000I-237500J0D01*
G01*
X200323500Y-110225000D01*
G75*
G02*
X200086000Y-109987500I0J237500D01*
G01*
G37*
G04 #@! TD*
M02*
