G04 #@! TF.GenerationSoftware,KiCad,Pcbnew,5.1.10-6.fc33*
G04 #@! TF.CreationDate,2021-10-31T18:06:13+00:00*
G04 #@! TF.ProjectId,vl670,766c3637-302e-46b6-9963-61645f706362,rev?*
G04 #@! TF.SameCoordinates,Original*
G04 #@! TF.FileFunction,Legend,Top*
G04 #@! TF.FilePolarity,Positive*
%FSLAX46Y46*%
G04 Gerber Fmt 4.6, Leading zero omitted, Abs format (unit mm)*
G04 Created by KiCad (PCBNEW 5.1.10-6.fc33) date 2021-10-31 18:06:13*
%MOMM*%
%LPD*%
G01*
G04 APERTURE LIST*
%ADD10C,0.150000*%
%ADD11C,0.120000*%
G04 APERTURE END LIST*
D10*
X176157142Y-110061904D02*
X175700000Y-110061904D01*
X175928571Y-110061904D02*
X175928571Y-109261904D01*
X175852380Y-109376190D01*
X175776190Y-109452380D01*
X175700000Y-109490476D01*
X176500000Y-109985714D02*
X176538095Y-110023809D01*
X176500000Y-110061904D01*
X176461904Y-110023809D01*
X176500000Y-109985714D01*
X176500000Y-110061904D01*
X177300000Y-110061904D02*
X176842857Y-110061904D01*
X177071428Y-110061904D02*
X177071428Y-109261904D01*
X176995238Y-109376190D01*
X176919047Y-109452380D01*
X176842857Y-109490476D01*
X204390476Y-109300000D02*
X204314285Y-109261904D01*
X204200000Y-109261904D01*
X204085714Y-109300000D01*
X204009523Y-109376190D01*
X203971428Y-109452380D01*
X203933333Y-109604761D01*
X203933333Y-109719047D01*
X203971428Y-109871428D01*
X204009523Y-109947619D01*
X204085714Y-110023809D01*
X204200000Y-110061904D01*
X204276190Y-110061904D01*
X204390476Y-110023809D01*
X204428571Y-109985714D01*
X204428571Y-109719047D01*
X204276190Y-109719047D01*
X204771428Y-110061904D02*
X204771428Y-109261904D01*
X205228571Y-110061904D01*
X205228571Y-109261904D01*
X205609523Y-110061904D02*
X205609523Y-109261904D01*
X205800000Y-109261904D01*
X205914285Y-109300000D01*
X205990476Y-109376190D01*
X206028571Y-109452380D01*
X206066666Y-109604761D01*
X206066666Y-109719047D01*
X206028571Y-109871428D01*
X205990476Y-109947619D01*
X205914285Y-110023809D01*
X205800000Y-110061904D01*
X205609523Y-110061904D01*
X206721428Y-110023809D02*
X206835714Y-110061904D01*
X207026190Y-110061904D01*
X207102380Y-110023809D01*
X207140476Y-109985714D01*
X207178571Y-109909523D01*
X207178571Y-109833333D01*
X207140476Y-109757142D01*
X207102380Y-109719047D01*
X207026190Y-109680952D01*
X206873809Y-109642857D01*
X206797619Y-109604761D01*
X206759523Y-109566666D01*
X206721428Y-109490476D01*
X206721428Y-109414285D01*
X206759523Y-109338095D01*
X206797619Y-109300000D01*
X206873809Y-109261904D01*
X207064285Y-109261904D01*
X207178571Y-109300000D01*
X207978571Y-109985714D02*
X207940476Y-110023809D01*
X207826190Y-110061904D01*
X207750000Y-110061904D01*
X207635714Y-110023809D01*
X207559523Y-109947619D01*
X207521428Y-109871428D01*
X207483333Y-109719047D01*
X207483333Y-109604761D01*
X207521428Y-109452380D01*
X207559523Y-109376190D01*
X207635714Y-109300000D01*
X207750000Y-109261904D01*
X207826190Y-109261904D01*
X207940476Y-109300000D01*
X207978571Y-109338095D01*
X208321428Y-110061904D02*
X208321428Y-109261904D01*
X208778571Y-110061904D02*
X208435714Y-109604761D01*
X208778571Y-109261904D02*
X208321428Y-109719047D01*
X195347619Y-109261904D02*
X194966666Y-109261904D01*
X194928571Y-109642857D01*
X194966666Y-109604761D01*
X195042857Y-109566666D01*
X195233333Y-109566666D01*
X195309523Y-109604761D01*
X195347619Y-109642857D01*
X195385714Y-109719047D01*
X195385714Y-109909523D01*
X195347619Y-109985714D01*
X195309523Y-110023809D01*
X195233333Y-110061904D01*
X195042857Y-110061904D01*
X194966666Y-110023809D01*
X194928571Y-109985714D01*
X195614285Y-109261904D02*
X195880952Y-110061904D01*
X196147619Y-109261904D01*
X197390476Y-109300000D02*
X197314285Y-109261904D01*
X197200000Y-109261904D01*
X197085714Y-109300000D01*
X197009523Y-109376190D01*
X196971428Y-109452380D01*
X196933333Y-109604761D01*
X196933333Y-109719047D01*
X196971428Y-109871428D01*
X197009523Y-109947619D01*
X197085714Y-110023809D01*
X197200000Y-110061904D01*
X197276190Y-110061904D01*
X197390476Y-110023809D01*
X197428571Y-109985714D01*
X197428571Y-109719047D01*
X197276190Y-109719047D01*
X197771428Y-110061904D02*
X197771428Y-109261904D01*
X198228571Y-110061904D01*
X198228571Y-109261904D01*
X198609523Y-110061904D02*
X198609523Y-109261904D01*
X198800000Y-109261904D01*
X198914285Y-109300000D01*
X198990476Y-109376190D01*
X199028571Y-109452380D01*
X199066666Y-109604761D01*
X199066666Y-109719047D01*
X199028571Y-109871428D01*
X198990476Y-109947619D01*
X198914285Y-110023809D01*
X198800000Y-110061904D01*
X198609523Y-110061904D01*
X191140476Y-109300000D02*
X191064285Y-109261904D01*
X190950000Y-109261904D01*
X190835714Y-109300000D01*
X190759523Y-109376190D01*
X190721428Y-109452380D01*
X190683333Y-109604761D01*
X190683333Y-109719047D01*
X190721428Y-109871428D01*
X190759523Y-109947619D01*
X190835714Y-110023809D01*
X190950000Y-110061904D01*
X191026190Y-110061904D01*
X191140476Y-110023809D01*
X191178571Y-109985714D01*
X191178571Y-109719047D01*
X191026190Y-109719047D01*
X191521428Y-110061904D02*
X191521428Y-109261904D01*
X191978571Y-110061904D01*
X191978571Y-109261904D01*
X192359523Y-110061904D02*
X192359523Y-109261904D01*
X192550000Y-109261904D01*
X192664285Y-109300000D01*
X192740476Y-109376190D01*
X192778571Y-109452380D01*
X192816666Y-109604761D01*
X192816666Y-109719047D01*
X192778571Y-109871428D01*
X192740476Y-109947619D01*
X192664285Y-110023809D01*
X192550000Y-110061904D01*
X192359523Y-110061904D01*
X188161904Y-109261904D02*
X188657142Y-109261904D01*
X188390476Y-109566666D01*
X188504761Y-109566666D01*
X188580952Y-109604761D01*
X188619047Y-109642857D01*
X188657142Y-109719047D01*
X188657142Y-109909523D01*
X188619047Y-109985714D01*
X188580952Y-110023809D01*
X188504761Y-110061904D01*
X188276190Y-110061904D01*
X188200000Y-110023809D01*
X188161904Y-109985714D01*
X189000000Y-109985714D02*
X189038095Y-110023809D01*
X189000000Y-110061904D01*
X188961904Y-110023809D01*
X189000000Y-109985714D01*
X189000000Y-110061904D01*
X189800000Y-110061904D02*
X189342857Y-110061904D01*
X189571428Y-110061904D02*
X189571428Y-109261904D01*
X189495238Y-109376190D01*
X189419047Y-109452380D01*
X189342857Y-109490476D01*
X185990476Y-109261904D02*
X186447619Y-109261904D01*
X186219047Y-110061904D02*
X186219047Y-109261904D01*
X186638095Y-109261904D02*
X187171428Y-110061904D01*
X187171428Y-109261904D02*
X186638095Y-110061904D01*
X183866666Y-110061904D02*
X183600000Y-109680952D01*
X183409523Y-110061904D02*
X183409523Y-109261904D01*
X183714285Y-109261904D01*
X183790476Y-109300000D01*
X183828571Y-109338095D01*
X183866666Y-109414285D01*
X183866666Y-109528571D01*
X183828571Y-109604761D01*
X183790476Y-109642857D01*
X183714285Y-109680952D01*
X183409523Y-109680952D01*
X184133333Y-109261904D02*
X184666666Y-110061904D01*
X184666666Y-109261904D02*
X184133333Y-110061904D01*
X181157142Y-110061904D02*
X180700000Y-110061904D01*
X180928571Y-110061904D02*
X180928571Y-109261904D01*
X180852380Y-109376190D01*
X180776190Y-109452380D01*
X180700000Y-109490476D01*
X181500000Y-109985714D02*
X181538095Y-110023809D01*
X181500000Y-110061904D01*
X181461904Y-110023809D01*
X181500000Y-109985714D01*
X181500000Y-110061904D01*
X181842857Y-109338095D02*
X181880952Y-109300000D01*
X181957142Y-109261904D01*
X182147619Y-109261904D01*
X182223809Y-109300000D01*
X182261904Y-109338095D01*
X182300000Y-109414285D01*
X182300000Y-109490476D01*
X182261904Y-109604761D01*
X181804761Y-110061904D01*
X182300000Y-110061904D01*
X173161904Y-109261904D02*
X173657142Y-109261904D01*
X173390476Y-109566666D01*
X173504761Y-109566666D01*
X173580952Y-109604761D01*
X173619047Y-109642857D01*
X173657142Y-109719047D01*
X173657142Y-109909523D01*
X173619047Y-109985714D01*
X173580952Y-110023809D01*
X173504761Y-110061904D01*
X173276190Y-110061904D01*
X173200000Y-110023809D01*
X173161904Y-109985714D01*
X174000000Y-109985714D02*
X174038095Y-110023809D01*
X174000000Y-110061904D01*
X173961904Y-110023809D01*
X174000000Y-109985714D01*
X174000000Y-110061904D01*
X174533333Y-109261904D02*
X174609523Y-109261904D01*
X174685714Y-109300000D01*
X174723809Y-109338095D01*
X174761904Y-109414285D01*
X174800000Y-109566666D01*
X174800000Y-109757142D01*
X174761904Y-109909523D01*
X174723809Y-109985714D01*
X174685714Y-110023809D01*
X174609523Y-110061904D01*
X174533333Y-110061904D01*
X174457142Y-110023809D01*
X174419047Y-109985714D01*
X174380952Y-109909523D01*
X174342857Y-109757142D01*
X174342857Y-109566666D01*
X174380952Y-109414285D01*
X174419047Y-109338095D01*
X174457142Y-109300000D01*
X174533333Y-109261904D01*
X178657142Y-110061904D02*
X178200000Y-110061904D01*
X178428571Y-110061904D02*
X178428571Y-109261904D01*
X178352380Y-109376190D01*
X178276190Y-109452380D01*
X178200000Y-109490476D01*
X179000000Y-109985714D02*
X179038095Y-110023809D01*
X179000000Y-110061904D01*
X178961904Y-110023809D01*
X179000000Y-109985714D01*
X179000000Y-110061904D01*
X179533333Y-109261904D02*
X179609523Y-109261904D01*
X179685714Y-109300000D01*
X179723809Y-109338095D01*
X179761904Y-109414285D01*
X179800000Y-109566666D01*
X179800000Y-109757142D01*
X179761904Y-109909523D01*
X179723809Y-109985714D01*
X179685714Y-110023809D01*
X179609523Y-110061904D01*
X179533333Y-110061904D01*
X179457142Y-110023809D01*
X179419047Y-109985714D01*
X179380952Y-109909523D01*
X179342857Y-109757142D01*
X179342857Y-109566666D01*
X179380952Y-109414285D01*
X179419047Y-109338095D01*
X179457142Y-109300000D01*
X179533333Y-109261904D01*
X217519047Y-108929000D02*
X218242857Y-108929000D01*
X217709523Y-109642857D02*
X217976190Y-109642857D01*
X218090476Y-110061904D02*
X217709523Y-110061904D01*
X217709523Y-109261904D01*
X218090476Y-109261904D01*
X218242857Y-108929000D02*
X219080952Y-108929000D01*
X218433333Y-110061904D02*
X218433333Y-109261904D01*
X218890476Y-110061904D01*
X218890476Y-109261904D01*
X214392857Y-110061904D02*
X214392857Y-109261904D01*
X214659523Y-109833333D01*
X214926190Y-109261904D01*
X214926190Y-110061904D01*
X215459523Y-109261904D02*
X215611904Y-109261904D01*
X215688095Y-109300000D01*
X215764285Y-109376190D01*
X215802380Y-109528571D01*
X215802380Y-109795238D01*
X215764285Y-109947619D01*
X215688095Y-110023809D01*
X215611904Y-110061904D01*
X215459523Y-110061904D01*
X215383333Y-110023809D01*
X215307142Y-109947619D01*
X215269047Y-109795238D01*
X215269047Y-109528571D01*
X215307142Y-109376190D01*
X215383333Y-109300000D01*
X215459523Y-109261904D01*
X216107142Y-110023809D02*
X216221428Y-110061904D01*
X216411904Y-110061904D01*
X216488095Y-110023809D01*
X216526190Y-109985714D01*
X216564285Y-109909523D01*
X216564285Y-109833333D01*
X216526190Y-109757142D01*
X216488095Y-109719047D01*
X216411904Y-109680952D01*
X216259523Y-109642857D01*
X216183333Y-109604761D01*
X216145238Y-109566666D01*
X216107142Y-109490476D01*
X216107142Y-109414285D01*
X216145238Y-109338095D01*
X216183333Y-109300000D01*
X216259523Y-109261904D01*
X216450000Y-109261904D01*
X216564285Y-109300000D01*
X216907142Y-110061904D02*
X216907142Y-109261904D01*
X211292857Y-110061904D02*
X211292857Y-109261904D01*
X211559523Y-109833333D01*
X211826190Y-109261904D01*
X211826190Y-110061904D01*
X212207142Y-110061904D02*
X212207142Y-109261904D01*
X212550000Y-110023809D02*
X212664285Y-110061904D01*
X212854761Y-110061904D01*
X212930952Y-110023809D01*
X212969047Y-109985714D01*
X213007142Y-109909523D01*
X213007142Y-109833333D01*
X212969047Y-109757142D01*
X212930952Y-109719047D01*
X212854761Y-109680952D01*
X212702380Y-109642857D01*
X212626190Y-109604761D01*
X212588095Y-109566666D01*
X212550000Y-109490476D01*
X212550000Y-109414285D01*
X212588095Y-109338095D01*
X212626190Y-109300000D01*
X212702380Y-109261904D01*
X212892857Y-109261904D01*
X213007142Y-109300000D01*
X213502380Y-109261904D02*
X213654761Y-109261904D01*
X213730952Y-109300000D01*
X213807142Y-109376190D01*
X213845238Y-109528571D01*
X213845238Y-109795238D01*
X213807142Y-109947619D01*
X213730952Y-110023809D01*
X213654761Y-110061904D01*
X213502380Y-110061904D01*
X213426190Y-110023809D01*
X213350000Y-109947619D01*
X213311904Y-109795238D01*
X213311904Y-109528571D01*
X213350000Y-109376190D01*
X213426190Y-109300000D01*
X213502380Y-109261904D01*
X209916666Y-109985714D02*
X209878571Y-110023809D01*
X209764285Y-110061904D01*
X209688095Y-110061904D01*
X209573809Y-110023809D01*
X209497619Y-109947619D01*
X209459523Y-109871428D01*
X209421428Y-109719047D01*
X209421428Y-109604761D01*
X209459523Y-109452380D01*
X209497619Y-109376190D01*
X209573809Y-109300000D01*
X209688095Y-109261904D01*
X209764285Y-109261904D01*
X209878571Y-109300000D01*
X209916666Y-109338095D01*
X210221428Y-110023809D02*
X210335714Y-110061904D01*
X210526190Y-110061904D01*
X210602380Y-110023809D01*
X210640476Y-109985714D01*
X210678571Y-109909523D01*
X210678571Y-109833333D01*
X210640476Y-109757142D01*
X210602380Y-109719047D01*
X210526190Y-109680952D01*
X210373809Y-109642857D01*
X210297619Y-109604761D01*
X210259523Y-109566666D01*
X210221428Y-109490476D01*
X210221428Y-109414285D01*
X210259523Y-109338095D01*
X210297619Y-109300000D01*
X210373809Y-109261904D01*
X210564285Y-109261904D01*
X210678571Y-109300000D01*
X219940476Y-109300000D02*
X219864285Y-109261904D01*
X219750000Y-109261904D01*
X219635714Y-109300000D01*
X219559523Y-109376190D01*
X219521428Y-109452380D01*
X219483333Y-109604761D01*
X219483333Y-109719047D01*
X219521428Y-109871428D01*
X219559523Y-109947619D01*
X219635714Y-110023809D01*
X219750000Y-110061904D01*
X219826190Y-110061904D01*
X219940476Y-110023809D01*
X219978571Y-109985714D01*
X219978571Y-109719047D01*
X219826190Y-109719047D01*
X220321428Y-110061904D02*
X220321428Y-109261904D01*
X220778571Y-110061904D01*
X220778571Y-109261904D01*
X221159523Y-110061904D02*
X221159523Y-109261904D01*
X221350000Y-109261904D01*
X221464285Y-109300000D01*
X221540476Y-109376190D01*
X221578571Y-109452380D01*
X221616666Y-109604761D01*
X221616666Y-109719047D01*
X221578571Y-109871428D01*
X221540476Y-109947619D01*
X221464285Y-110023809D01*
X221350000Y-110061904D01*
X221159523Y-110061904D01*
D11*
G04 #@! TO.C,R24*
X229057776Y-111777500D02*
X229567224Y-111777500D01*
X229057776Y-112822500D02*
X229567224Y-112822500D01*
G04 #@! TO.C,D20*
X220435000Y-124450000D02*
X220435000Y-121990000D01*
X220435000Y-121990000D02*
X218965000Y-121990000D01*
X218965000Y-121990000D02*
X218965000Y-124450000D01*
G04 #@! TO.C,TP3*
X200100000Y-131800000D02*
G75*
G03*
X200100000Y-131800000I-700000J0D01*
G01*
G04 #@! TO.C,TP2*
X196700000Y-115400000D02*
G75*
G03*
X196700000Y-115400000I-700000J0D01*
G01*
G04 #@! TO.C,TP1*
X188700000Y-131800000D02*
G75*
G03*
X188700000Y-131800000I-700000J0D01*
G01*
G04 #@! TO.C,J3*
X193070000Y-113730000D02*
X193070000Y-111070000D01*
X175230000Y-113730000D02*
X193070000Y-113730000D01*
X175230000Y-111070000D02*
X193070000Y-111070000D01*
X175230000Y-113730000D02*
X175230000Y-111070000D01*
X173960000Y-113730000D02*
X172630000Y-113730000D01*
X172630000Y-113730000D02*
X172630000Y-112400000D01*
G04 #@! TO.C,R22*
X216895276Y-125177500D02*
X217404724Y-125177500D01*
X216895276Y-126222500D02*
X217404724Y-126222500D01*
G04 #@! TO.C,J4*
X221705000Y-127208000D02*
X221705000Y-126608000D01*
X223215000Y-127500000D02*
X223215000Y-128180000D01*
X223215000Y-118280000D02*
X223215000Y-117600000D01*
G04 #@! TO.C,D4*
X181050000Y-130247500D02*
X181050000Y-129747500D01*
X178350000Y-130247500D02*
X178350000Y-129247500D01*
G04 #@! TO.C,D1*
X178350000Y-116152500D02*
X178350000Y-116652500D01*
X181050000Y-116152500D02*
X181050000Y-117152500D01*
G04 #@! TO.C,D5*
X183500000Y-121900000D02*
X183000000Y-121900000D01*
X183500000Y-124600000D02*
X182500000Y-124600000D01*
G04 #@! TO.C,D6*
X219500000Y-121492000D02*
X220000000Y-121492000D01*
X219500000Y-118792000D02*
X220500000Y-118792000D01*
G04 #@! TO.C,D3*
X220500000Y-125713500D02*
X220000000Y-125713500D01*
X220500000Y-128413500D02*
X219500000Y-128413500D01*
G04 #@! TO.C,R12*
X190977500Y-129054724D02*
X190977500Y-128545276D01*
X192022500Y-129054724D02*
X192022500Y-128545276D01*
G04 #@! TO.C,U3*
X211200000Y-117200000D02*
X213800000Y-117200000D01*
X213800000Y-117200000D02*
X213800000Y-117000000D01*
X213800000Y-115000000D02*
X213800000Y-114800000D01*
X213800000Y-114800000D02*
X211200000Y-114800000D01*
X211200000Y-114800000D02*
X211200000Y-114900000D01*
X211200000Y-114900000D02*
X210800000Y-114900000D01*
X211200000Y-117200000D02*
X211200000Y-117000000D01*
G04 #@! TO.C,U5*
X206700000Y-117200000D02*
X206700000Y-117000000D01*
X206700000Y-114900000D02*
X206300000Y-114900000D01*
X206700000Y-114800000D02*
X206700000Y-114900000D01*
X209300000Y-114800000D02*
X206700000Y-114800000D01*
X209300000Y-115000000D02*
X209300000Y-114800000D01*
X209300000Y-117200000D02*
X209300000Y-117000000D01*
X206700000Y-117200000D02*
X209300000Y-117200000D01*
G04 #@! TO.C,U1*
X191900000Y-126300000D02*
X191000000Y-126300000D01*
X191800000Y-122000000D02*
X191800000Y-121700000D01*
X191800000Y-121700000D02*
X191000000Y-121700000D01*
X188200000Y-122000000D02*
X188200000Y-121700000D01*
X188200000Y-126300000D02*
X188200000Y-126000000D01*
X189000000Y-121700000D02*
X188200000Y-121700000D01*
X189000000Y-126300000D02*
X188200000Y-126300000D01*
G04 #@! TO.C,R15*
X213345276Y-119977500D02*
X213854724Y-119977500D01*
X213345276Y-121022500D02*
X213854724Y-121022500D01*
G04 #@! TO.C,C9*
X216460000Y-117753733D02*
X216460000Y-118046267D01*
X215440000Y-117753733D02*
X215440000Y-118046267D01*
G04 #@! TO.C,J5*
X199330000Y-113730000D02*
X199330000Y-111070000D01*
X196730000Y-113730000D02*
X199330000Y-113730000D01*
X196730000Y-111070000D02*
X199330000Y-111070000D01*
X196730000Y-113730000D02*
X196730000Y-111070000D01*
X195460000Y-113730000D02*
X194130000Y-113730000D01*
X194130000Y-113730000D02*
X194130000Y-112400000D01*
G04 #@! TO.C,J1*
X221660000Y-113730000D02*
X221660000Y-111070000D01*
X206360000Y-113730000D02*
X221660000Y-113730000D01*
X206360000Y-111070000D02*
X221660000Y-111070000D01*
X206360000Y-113730000D02*
X206360000Y-111070000D01*
X205090000Y-113730000D02*
X203760000Y-113730000D01*
X203760000Y-113730000D02*
X203760000Y-112400000D01*
G04 #@! TO.C,U2*
X203651800Y-119890000D02*
X204201800Y-119890000D01*
X204201800Y-119890000D02*
X204201800Y-120440000D01*
X198531800Y-126110000D02*
X197981800Y-126110000D01*
X197981800Y-126110000D02*
X197981800Y-125560000D01*
X203651800Y-126110000D02*
X204201800Y-126110000D01*
X204201800Y-126110000D02*
X204201800Y-125560000D01*
X198531800Y-119890000D02*
X197981800Y-119890000D01*
G04 #@! TO.C,C1*
X184389290Y-118775555D02*
X184389290Y-118483021D01*
X183369290Y-118775555D02*
X183369290Y-118483021D01*
G04 #@! TO.C,C2*
X184868860Y-118775556D02*
X184868860Y-118483022D01*
X185888860Y-118775556D02*
X185888860Y-118483022D01*
G04 #@! TO.C,C3*
X184868860Y-128603733D02*
X184868860Y-128896267D01*
X185888860Y-128603733D02*
X185888860Y-128896267D01*
G04 #@! TO.C,C4*
X184389290Y-128603733D02*
X184389290Y-128896267D01*
X183369290Y-128603733D02*
X183369290Y-128896267D01*
G04 #@! TO.C,C7*
X205204417Y-129512514D02*
X204911883Y-129512514D01*
X205204417Y-130532514D02*
X204911883Y-130532514D01*
G04 #@! TO.C,C8*
X205204417Y-129032511D02*
X204911883Y-129032511D01*
X205204417Y-128012511D02*
X204911883Y-128012511D01*
G04 #@! TO.C,C10*
X208896267Y-121210000D02*
X208603733Y-121210000D01*
X208896267Y-120190000D02*
X208603733Y-120190000D01*
G04 #@! TO.C,C11*
X208603733Y-126210000D02*
X208896267Y-126210000D01*
X208603733Y-125190000D02*
X208896267Y-125190000D01*
G04 #@! TO.C,C13*
X201721267Y-112490000D02*
X201428733Y-112490000D01*
X201721267Y-113510000D02*
X201428733Y-113510000D01*
G04 #@! TO.C,C19*
X213453733Y-125190000D02*
X213746267Y-125190000D01*
X213453733Y-126210000D02*
X213746267Y-126210000D01*
G04 #@! TO.C,C44*
X198966233Y-116990000D02*
X199258767Y-116990000D01*
X198966233Y-118010000D02*
X199258767Y-118010000D01*
G04 #@! TO.C,C51*
X195746267Y-124990000D02*
X195453733Y-124990000D01*
X195746267Y-126010000D02*
X195453733Y-126010000D01*
G04 #@! TO.C,D2*
X188490000Y-117485000D02*
X190950000Y-117485000D01*
X188490000Y-116015000D02*
X188490000Y-117485000D01*
X190950000Y-116015000D02*
X188490000Y-116015000D01*
G04 #@! TO.C,L1*
X197110000Y-118538748D02*
X197110000Y-119061252D01*
X194890000Y-118538748D02*
X194890000Y-119061252D01*
G04 #@! TO.C,R1*
X185963798Y-125372500D02*
X185454350Y-125372500D01*
X185963798Y-124327500D02*
X185454350Y-124327500D01*
G04 #@! TO.C,R2*
X185963798Y-122677500D02*
X185454350Y-122677500D01*
X185963798Y-123722500D02*
X185454350Y-123722500D01*
G04 #@! TO.C,R3*
X225354724Y-112822500D02*
X224845276Y-112822500D01*
X225354724Y-111777500D02*
X224845276Y-111777500D01*
G04 #@! TO.C,R4*
X201320276Y-111922500D02*
X201829724Y-111922500D01*
X201320276Y-110877500D02*
X201829724Y-110877500D01*
G04 #@! TO.C,R14*
X190477500Y-119754724D02*
X190477500Y-119245276D01*
X191522500Y-119754724D02*
X191522500Y-119245276D01*
G04 #@! TO.C,R16*
X194929879Y-131680000D02*
X195265121Y-131680000D01*
X194929879Y-130920000D02*
X195265121Y-130920000D01*
G04 #@! TO.C,R17*
X194929879Y-126920000D02*
X195265121Y-126920000D01*
X194929879Y-127680000D02*
X195265121Y-127680000D01*
G04 #@! TO.C,R18*
X190522500Y-129054724D02*
X190522500Y-128545276D01*
X189477500Y-129054724D02*
X189477500Y-128545276D01*
G04 #@! TO.C,U4*
X214500000Y-121490000D02*
X212700000Y-121490000D01*
X212700000Y-124710000D02*
X215150000Y-124710000D01*
G04 #@! TO.C,Y1*
X206800000Y-121550000D02*
X206800000Y-124850000D01*
X206800000Y-124850000D02*
X210800000Y-124850000D01*
G04 #@! TO.C,R19*
X195854724Y-123477500D02*
X195345276Y-123477500D01*
X195854724Y-124522500D02*
X195345276Y-124522500D01*
G04 #@! TO.C,C5*
X195793767Y-130532514D02*
X195501233Y-130532514D01*
X195793767Y-129512514D02*
X195501233Y-129512514D01*
G04 #@! TO.C,C6*
X195793767Y-128012511D02*
X195501233Y-128012511D01*
X195793767Y-129032511D02*
X195501233Y-129032511D01*
G04 #@! TO.C,J2*
X180670000Y-118440000D02*
X180670000Y-119940000D01*
X180670000Y-118440000D02*
X174800000Y-118440000D01*
X180670000Y-127940000D02*
X174800000Y-127940000D01*
X180670000Y-126440000D02*
X180670000Y-127940000D01*
G04 #@! TO.C,R24*
D10*
X228669642Y-111322380D02*
X228336309Y-110846190D01*
X228098214Y-111322380D02*
X228098214Y-110322380D01*
X228479166Y-110322380D01*
X228574404Y-110370000D01*
X228622023Y-110417619D01*
X228669642Y-110512857D01*
X228669642Y-110655714D01*
X228622023Y-110750952D01*
X228574404Y-110798571D01*
X228479166Y-110846190D01*
X228098214Y-110846190D01*
X229050595Y-110417619D02*
X229098214Y-110370000D01*
X229193452Y-110322380D01*
X229431547Y-110322380D01*
X229526785Y-110370000D01*
X229574404Y-110417619D01*
X229622023Y-110512857D01*
X229622023Y-110608095D01*
X229574404Y-110750952D01*
X229002976Y-111322380D01*
X229622023Y-111322380D01*
X230479166Y-110655714D02*
X230479166Y-111322380D01*
X230241071Y-110274761D02*
X230002976Y-110989047D01*
X230622023Y-110989047D01*
G04 #@! TO.C,D20*
X218702380Y-124464285D02*
X217702380Y-124464285D01*
X217702380Y-124226190D01*
X217750000Y-124083333D01*
X217845238Y-123988095D01*
X217940476Y-123940476D01*
X218130952Y-123892857D01*
X218273809Y-123892857D01*
X218464285Y-123940476D01*
X218559523Y-123988095D01*
X218654761Y-124083333D01*
X218702380Y-124226190D01*
X218702380Y-124464285D01*
X217797619Y-123511904D02*
X217750000Y-123464285D01*
X217702380Y-123369047D01*
X217702380Y-123130952D01*
X217750000Y-123035714D01*
X217797619Y-122988095D01*
X217892857Y-122940476D01*
X217988095Y-122940476D01*
X218130952Y-122988095D01*
X218702380Y-123559523D01*
X218702380Y-122940476D01*
X217702380Y-122321428D02*
X217702380Y-122226190D01*
X217750000Y-122130952D01*
X217797619Y-122083333D01*
X217892857Y-122035714D01*
X218083333Y-121988095D01*
X218321428Y-121988095D01*
X218511904Y-122035714D01*
X218607142Y-122083333D01*
X218654761Y-122130952D01*
X218702380Y-122226190D01*
X218702380Y-122321428D01*
X218654761Y-122416666D01*
X218607142Y-122464285D01*
X218511904Y-122511904D01*
X218321428Y-122559523D01*
X218083333Y-122559523D01*
X217892857Y-122511904D01*
X217797619Y-122464285D01*
X217750000Y-122416666D01*
X217702380Y-122321428D01*
G04 #@! TO.C,TP3*
X201380952Y-132252380D02*
X200809523Y-132252380D01*
X201095238Y-132252380D02*
X201095238Y-131252380D01*
X201000000Y-131395238D01*
X200904761Y-131490476D01*
X200809523Y-131538095D01*
X201666666Y-131252380D02*
X202000000Y-132252380D01*
X202333333Y-131252380D01*
X202619047Y-131347619D02*
X202666666Y-131300000D01*
X202761904Y-131252380D01*
X203000000Y-131252380D01*
X203095238Y-131300000D01*
X203142857Y-131347619D01*
X203190476Y-131442857D01*
X203190476Y-131538095D01*
X203142857Y-131680952D01*
X202571428Y-132252380D01*
X203190476Y-132252380D01*
G04 #@! TO.C,TP2*
X196938095Y-114252380D02*
X197509523Y-114252380D01*
X197223809Y-115252380D02*
X197223809Y-114252380D01*
X197842857Y-115252380D02*
X197842857Y-114252380D01*
X198223809Y-114252380D01*
X198319047Y-114300000D01*
X198366666Y-114347619D01*
X198414285Y-114442857D01*
X198414285Y-114585714D01*
X198366666Y-114680952D01*
X198319047Y-114728571D01*
X198223809Y-114776190D01*
X197842857Y-114776190D01*
X198795238Y-114347619D02*
X198842857Y-114300000D01*
X198938095Y-114252380D01*
X199176190Y-114252380D01*
X199271428Y-114300000D01*
X199319047Y-114347619D01*
X199366666Y-114442857D01*
X199366666Y-114538095D01*
X199319047Y-114680952D01*
X198747619Y-115252380D01*
X199366666Y-115252380D01*
G04 #@! TO.C,TP1*
X188961904Y-131252380D02*
X189580952Y-131252380D01*
X189247619Y-131633333D01*
X189390476Y-131633333D01*
X189485714Y-131680952D01*
X189533333Y-131728571D01*
X189580952Y-131823809D01*
X189580952Y-132061904D01*
X189533333Y-132157142D01*
X189485714Y-132204761D01*
X189390476Y-132252380D01*
X189104761Y-132252380D01*
X189009523Y-132204761D01*
X188961904Y-132157142D01*
X189866666Y-131252380D02*
X190200000Y-132252380D01*
X190533333Y-131252380D01*
X190771428Y-131252380D02*
X191390476Y-131252380D01*
X191057142Y-131633333D01*
X191200000Y-131633333D01*
X191295238Y-131680952D01*
X191342857Y-131728571D01*
X191390476Y-131823809D01*
X191390476Y-132061904D01*
X191342857Y-132157142D01*
X191295238Y-132204761D01*
X191200000Y-132252380D01*
X190914285Y-132252380D01*
X190819047Y-132204761D01*
X190771428Y-132157142D01*
G04 #@! TO.C,R22*
X216507142Y-127452380D02*
X216173809Y-126976190D01*
X215935714Y-127452380D02*
X215935714Y-126452380D01*
X216316666Y-126452380D01*
X216411904Y-126500000D01*
X216459523Y-126547619D01*
X216507142Y-126642857D01*
X216507142Y-126785714D01*
X216459523Y-126880952D01*
X216411904Y-126928571D01*
X216316666Y-126976190D01*
X215935714Y-126976190D01*
X216888095Y-126547619D02*
X216935714Y-126500000D01*
X217030952Y-126452380D01*
X217269047Y-126452380D01*
X217364285Y-126500000D01*
X217411904Y-126547619D01*
X217459523Y-126642857D01*
X217459523Y-126738095D01*
X217411904Y-126880952D01*
X216840476Y-127452380D01*
X217459523Y-127452380D01*
X217840476Y-126547619D02*
X217888095Y-126500000D01*
X217983333Y-126452380D01*
X218221428Y-126452380D01*
X218316666Y-126500000D01*
X218364285Y-126547619D01*
X218411904Y-126642857D01*
X218411904Y-126738095D01*
X218364285Y-126880952D01*
X217792857Y-127452380D01*
X218411904Y-127452380D01*
G04 #@! TO.C,J4*
X227666666Y-113952380D02*
X227666666Y-114666666D01*
X227619047Y-114809523D01*
X227523809Y-114904761D01*
X227380952Y-114952380D01*
X227285714Y-114952380D01*
X228571428Y-114285714D02*
X228571428Y-114952380D01*
X228333333Y-113904761D02*
X228095238Y-114619047D01*
X228714285Y-114619047D01*
G04 #@! TO.C,D4*
X177862380Y-130458095D02*
X176862380Y-130458095D01*
X176862380Y-130220000D01*
X176910000Y-130077142D01*
X177005238Y-129981904D01*
X177100476Y-129934285D01*
X177290952Y-129886666D01*
X177433809Y-129886666D01*
X177624285Y-129934285D01*
X177719523Y-129981904D01*
X177814761Y-130077142D01*
X177862380Y-130220000D01*
X177862380Y-130458095D01*
X177195714Y-129029523D02*
X177862380Y-129029523D01*
X176814761Y-129267619D02*
X177529047Y-129505714D01*
X177529047Y-128886666D01*
G04 #@! TO.C,D1*
X177862380Y-117390595D02*
X176862380Y-117390595D01*
X176862380Y-117152500D01*
X176910000Y-117009642D01*
X177005238Y-116914404D01*
X177100476Y-116866785D01*
X177290952Y-116819166D01*
X177433809Y-116819166D01*
X177624285Y-116866785D01*
X177719523Y-116914404D01*
X177814761Y-117009642D01*
X177862380Y-117152500D01*
X177862380Y-117390595D01*
X177862380Y-115866785D02*
X177862380Y-116438214D01*
X177862380Y-116152500D02*
X176862380Y-116152500D01*
X177005238Y-116247738D01*
X177100476Y-116342976D01*
X177148095Y-116438214D01*
G04 #@! TO.C,D5*
X182261904Y-125952380D02*
X182261904Y-124952380D01*
X182500000Y-124952380D01*
X182642857Y-125000000D01*
X182738095Y-125095238D01*
X182785714Y-125190476D01*
X182833333Y-125380952D01*
X182833333Y-125523809D01*
X182785714Y-125714285D01*
X182738095Y-125809523D01*
X182642857Y-125904761D01*
X182500000Y-125952380D01*
X182261904Y-125952380D01*
X183738095Y-124952380D02*
X183261904Y-124952380D01*
X183214285Y-125428571D01*
X183261904Y-125380952D01*
X183357142Y-125333333D01*
X183595238Y-125333333D01*
X183690476Y-125380952D01*
X183738095Y-125428571D01*
X183785714Y-125523809D01*
X183785714Y-125761904D01*
X183738095Y-125857142D01*
X183690476Y-125904761D01*
X183595238Y-125952380D01*
X183357142Y-125952380D01*
X183261904Y-125904761D01*
X183214285Y-125857142D01*
G04 #@! TO.C,D6*
X219225904Y-118511580D02*
X219225904Y-117511580D01*
X219464000Y-117511580D01*
X219606857Y-117559200D01*
X219702095Y-117654438D01*
X219749714Y-117749676D01*
X219797333Y-117940152D01*
X219797333Y-118083009D01*
X219749714Y-118273485D01*
X219702095Y-118368723D01*
X219606857Y-118463961D01*
X219464000Y-118511580D01*
X219225904Y-118511580D01*
X220654476Y-117511580D02*
X220464000Y-117511580D01*
X220368761Y-117559200D01*
X220321142Y-117606819D01*
X220225904Y-117749676D01*
X220178285Y-117940152D01*
X220178285Y-118321104D01*
X220225904Y-118416342D01*
X220273523Y-118463961D01*
X220368761Y-118511580D01*
X220559238Y-118511580D01*
X220654476Y-118463961D01*
X220702095Y-118416342D01*
X220749714Y-118321104D01*
X220749714Y-118083009D01*
X220702095Y-117987771D01*
X220654476Y-117940152D01*
X220559238Y-117892533D01*
X220368761Y-117892533D01*
X220273523Y-117940152D01*
X220225904Y-117987771D01*
X220178285Y-118083009D01*
G04 #@! TO.C,D3*
X219225904Y-129738380D02*
X219225904Y-128738380D01*
X219464000Y-128738380D01*
X219606857Y-128786000D01*
X219702095Y-128881238D01*
X219749714Y-128976476D01*
X219797333Y-129166952D01*
X219797333Y-129309809D01*
X219749714Y-129500285D01*
X219702095Y-129595523D01*
X219606857Y-129690761D01*
X219464000Y-129738380D01*
X219225904Y-129738380D01*
X220130666Y-128738380D02*
X220749714Y-128738380D01*
X220416380Y-129119333D01*
X220559238Y-129119333D01*
X220654476Y-129166952D01*
X220702095Y-129214571D01*
X220749714Y-129309809D01*
X220749714Y-129547904D01*
X220702095Y-129643142D01*
X220654476Y-129690761D01*
X220559238Y-129738380D01*
X220273523Y-129738380D01*
X220178285Y-129690761D01*
X220130666Y-129643142D01*
G04 #@! TO.C,R12*
X193452380Y-129442857D02*
X192976190Y-129776190D01*
X193452380Y-130014285D02*
X192452380Y-130014285D01*
X192452380Y-129633333D01*
X192500000Y-129538095D01*
X192547619Y-129490476D01*
X192642857Y-129442857D01*
X192785714Y-129442857D01*
X192880952Y-129490476D01*
X192928571Y-129538095D01*
X192976190Y-129633333D01*
X192976190Y-130014285D01*
X193452380Y-128490476D02*
X193452380Y-129061904D01*
X193452380Y-128776190D02*
X192452380Y-128776190D01*
X192595238Y-128871428D01*
X192690476Y-128966666D01*
X192738095Y-129061904D01*
X192547619Y-128109523D02*
X192500000Y-128061904D01*
X192452380Y-127966666D01*
X192452380Y-127728571D01*
X192500000Y-127633333D01*
X192547619Y-127585714D01*
X192642857Y-127538095D01*
X192738095Y-127538095D01*
X192880952Y-127585714D01*
X193452380Y-128157142D01*
X193452380Y-127538095D01*
G04 #@! TO.C,U3*
X215038095Y-115052380D02*
X215038095Y-115861904D01*
X215085714Y-115957142D01*
X215133333Y-116004761D01*
X215228571Y-116052380D01*
X215419047Y-116052380D01*
X215514285Y-116004761D01*
X215561904Y-115957142D01*
X215609523Y-115861904D01*
X215609523Y-115052380D01*
X215990476Y-115052380D02*
X216609523Y-115052380D01*
X216276190Y-115433333D01*
X216419047Y-115433333D01*
X216514285Y-115480952D01*
X216561904Y-115528571D01*
X216609523Y-115623809D01*
X216609523Y-115861904D01*
X216561904Y-115957142D01*
X216514285Y-116004761D01*
X216419047Y-116052380D01*
X216133333Y-116052380D01*
X216038095Y-116004761D01*
X215990476Y-115957142D01*
G04 #@! TO.C,U5*
X203838095Y-115052380D02*
X203838095Y-115861904D01*
X203885714Y-115957142D01*
X203933333Y-116004761D01*
X204028571Y-116052380D01*
X204219047Y-116052380D01*
X204314285Y-116004761D01*
X204361904Y-115957142D01*
X204409523Y-115861904D01*
X204409523Y-115052380D01*
X205361904Y-115052380D02*
X204885714Y-115052380D01*
X204838095Y-115528571D01*
X204885714Y-115480952D01*
X204980952Y-115433333D01*
X205219047Y-115433333D01*
X205314285Y-115480952D01*
X205361904Y-115528571D01*
X205409523Y-115623809D01*
X205409523Y-115861904D01*
X205361904Y-115957142D01*
X205314285Y-116004761D01*
X205219047Y-116052380D01*
X204980952Y-116052380D01*
X204885714Y-116004761D01*
X204838095Y-115957142D01*
G04 #@! TO.C,U1*
X187988095Y-120202380D02*
X187988095Y-121011904D01*
X188035714Y-121107142D01*
X188083333Y-121154761D01*
X188178571Y-121202380D01*
X188369047Y-121202380D01*
X188464285Y-121154761D01*
X188511904Y-121107142D01*
X188559523Y-121011904D01*
X188559523Y-120202380D01*
X189559523Y-121202380D02*
X188988095Y-121202380D01*
X189273809Y-121202380D02*
X189273809Y-120202380D01*
X189178571Y-120345238D01*
X189083333Y-120440476D01*
X188988095Y-120488095D01*
G04 #@! TO.C,R15*
X212957142Y-119552380D02*
X212623809Y-119076190D01*
X212385714Y-119552380D02*
X212385714Y-118552380D01*
X212766666Y-118552380D01*
X212861904Y-118600000D01*
X212909523Y-118647619D01*
X212957142Y-118742857D01*
X212957142Y-118885714D01*
X212909523Y-118980952D01*
X212861904Y-119028571D01*
X212766666Y-119076190D01*
X212385714Y-119076190D01*
X213909523Y-119552380D02*
X213338095Y-119552380D01*
X213623809Y-119552380D02*
X213623809Y-118552380D01*
X213528571Y-118695238D01*
X213433333Y-118790476D01*
X213338095Y-118838095D01*
X214814285Y-118552380D02*
X214338095Y-118552380D01*
X214290476Y-119028571D01*
X214338095Y-118980952D01*
X214433333Y-118933333D01*
X214671428Y-118933333D01*
X214766666Y-118980952D01*
X214814285Y-119028571D01*
X214861904Y-119123809D01*
X214861904Y-119361904D01*
X214814285Y-119457142D01*
X214766666Y-119504761D01*
X214671428Y-119552380D01*
X214433333Y-119552380D01*
X214338095Y-119504761D01*
X214290476Y-119457142D01*
G04 #@! TO.C,C9*
X216357142Y-120766666D02*
X216404761Y-120814285D01*
X216452380Y-120957142D01*
X216452380Y-121052380D01*
X216404761Y-121195238D01*
X216309523Y-121290476D01*
X216214285Y-121338095D01*
X216023809Y-121385714D01*
X215880952Y-121385714D01*
X215690476Y-121338095D01*
X215595238Y-121290476D01*
X215500000Y-121195238D01*
X215452380Y-121052380D01*
X215452380Y-120957142D01*
X215500000Y-120814285D01*
X215547619Y-120766666D01*
X216452380Y-120290476D02*
X216452380Y-120100000D01*
X216404761Y-120004761D01*
X216357142Y-119957142D01*
X216214285Y-119861904D01*
X216023809Y-119814285D01*
X215642857Y-119814285D01*
X215547619Y-119861904D01*
X215500000Y-119909523D01*
X215452380Y-120004761D01*
X215452380Y-120195238D01*
X215500000Y-120290476D01*
X215547619Y-120338095D01*
X215642857Y-120385714D01*
X215880952Y-120385714D01*
X215976190Y-120338095D01*
X216023809Y-120290476D01*
X216071428Y-120195238D01*
X216071428Y-120004761D01*
X216023809Y-119909523D01*
X215976190Y-119861904D01*
X215880952Y-119814285D01*
G04 #@! TO.C,U2*
X203238095Y-118152380D02*
X203238095Y-118961904D01*
X203285714Y-119057142D01*
X203333333Y-119104761D01*
X203428571Y-119152380D01*
X203619047Y-119152380D01*
X203714285Y-119104761D01*
X203761904Y-119057142D01*
X203809523Y-118961904D01*
X203809523Y-118152380D01*
X204238095Y-118247619D02*
X204285714Y-118200000D01*
X204380952Y-118152380D01*
X204619047Y-118152380D01*
X204714285Y-118200000D01*
X204761904Y-118247619D01*
X204809523Y-118342857D01*
X204809523Y-118438095D01*
X204761904Y-118580952D01*
X204190476Y-119152380D01*
X204809523Y-119152380D01*
G04 #@! TO.C,C1*
X182957142Y-118816666D02*
X183004761Y-118864285D01*
X183052380Y-119007142D01*
X183052380Y-119102380D01*
X183004761Y-119245238D01*
X182909523Y-119340476D01*
X182814285Y-119388095D01*
X182623809Y-119435714D01*
X182480952Y-119435714D01*
X182290476Y-119388095D01*
X182195238Y-119340476D01*
X182100000Y-119245238D01*
X182052380Y-119102380D01*
X182052380Y-119007142D01*
X182100000Y-118864285D01*
X182147619Y-118816666D01*
X183052380Y-117864285D02*
X183052380Y-118435714D01*
X183052380Y-118150000D02*
X182052380Y-118150000D01*
X182195238Y-118245238D01*
X182290476Y-118340476D01*
X182338095Y-118435714D01*
G04 #@! TO.C,C2*
X187207142Y-118916666D02*
X187254761Y-118964285D01*
X187302380Y-119107142D01*
X187302380Y-119202380D01*
X187254761Y-119345238D01*
X187159523Y-119440476D01*
X187064285Y-119488095D01*
X186873809Y-119535714D01*
X186730952Y-119535714D01*
X186540476Y-119488095D01*
X186445238Y-119440476D01*
X186350000Y-119345238D01*
X186302380Y-119202380D01*
X186302380Y-119107142D01*
X186350000Y-118964285D01*
X186397619Y-118916666D01*
X186397619Y-118535714D02*
X186350000Y-118488095D01*
X186302380Y-118392857D01*
X186302380Y-118154761D01*
X186350000Y-118059523D01*
X186397619Y-118011904D01*
X186492857Y-117964285D01*
X186588095Y-117964285D01*
X186730952Y-118011904D01*
X187302380Y-118583333D01*
X187302380Y-117964285D01*
G04 #@! TO.C,C3*
X187257142Y-128916666D02*
X187304761Y-128964285D01*
X187352380Y-129107142D01*
X187352380Y-129202380D01*
X187304761Y-129345238D01*
X187209523Y-129440476D01*
X187114285Y-129488095D01*
X186923809Y-129535714D01*
X186780952Y-129535714D01*
X186590476Y-129488095D01*
X186495238Y-129440476D01*
X186400000Y-129345238D01*
X186352380Y-129202380D01*
X186352380Y-129107142D01*
X186400000Y-128964285D01*
X186447619Y-128916666D01*
X186352380Y-128583333D02*
X186352380Y-127964285D01*
X186733333Y-128297619D01*
X186733333Y-128154761D01*
X186780952Y-128059523D01*
X186828571Y-128011904D01*
X186923809Y-127964285D01*
X187161904Y-127964285D01*
X187257142Y-128011904D01*
X187304761Y-128059523D01*
X187352380Y-128154761D01*
X187352380Y-128440476D01*
X187304761Y-128535714D01*
X187257142Y-128583333D01*
G04 #@! TO.C,C4*
X182807142Y-128916666D02*
X182854761Y-128964285D01*
X182902380Y-129107142D01*
X182902380Y-129202380D01*
X182854761Y-129345238D01*
X182759523Y-129440476D01*
X182664285Y-129488095D01*
X182473809Y-129535714D01*
X182330952Y-129535714D01*
X182140476Y-129488095D01*
X182045238Y-129440476D01*
X181950000Y-129345238D01*
X181902380Y-129202380D01*
X181902380Y-129107142D01*
X181950000Y-128964285D01*
X181997619Y-128916666D01*
X182235714Y-128059523D02*
X182902380Y-128059523D01*
X181854761Y-128297619D02*
X182569047Y-128535714D01*
X182569047Y-127916666D01*
G04 #@! TO.C,C7*
X207433336Y-130557142D02*
X207385717Y-130604761D01*
X207242860Y-130652380D01*
X207147622Y-130652380D01*
X207004764Y-130604761D01*
X206909526Y-130509523D01*
X206861907Y-130414285D01*
X206814288Y-130223809D01*
X206814288Y-130080952D01*
X206861907Y-129890476D01*
X206909526Y-129795238D01*
X207004764Y-129700000D01*
X207147622Y-129652380D01*
X207242860Y-129652380D01*
X207385717Y-129700000D01*
X207433336Y-129747619D01*
X207766669Y-129652380D02*
X208433336Y-129652380D01*
X208004764Y-130652380D01*
G04 #@! TO.C,C8*
X207433333Y-128957142D02*
X207385714Y-129004761D01*
X207242857Y-129052380D01*
X207147619Y-129052380D01*
X207004761Y-129004761D01*
X206909523Y-128909523D01*
X206861904Y-128814285D01*
X206814285Y-128623809D01*
X206814285Y-128480952D01*
X206861904Y-128290476D01*
X206909523Y-128195238D01*
X207004761Y-128100000D01*
X207147619Y-128052380D01*
X207242857Y-128052380D01*
X207385714Y-128100000D01*
X207433333Y-128147619D01*
X208004761Y-128480952D02*
X207909523Y-128433333D01*
X207861904Y-128385714D01*
X207814285Y-128290476D01*
X207814285Y-128242857D01*
X207861904Y-128147619D01*
X207909523Y-128100000D01*
X208004761Y-128052380D01*
X208195238Y-128052380D01*
X208290476Y-128100000D01*
X208338095Y-128147619D01*
X208385714Y-128242857D01*
X208385714Y-128290476D01*
X208338095Y-128385714D01*
X208290476Y-128433333D01*
X208195238Y-128480952D01*
X208004761Y-128480952D01*
X207909523Y-128528571D01*
X207861904Y-128576190D01*
X207814285Y-128671428D01*
X207814285Y-128861904D01*
X207861904Y-128957142D01*
X207909523Y-129004761D01*
X208004761Y-129052380D01*
X208195238Y-129052380D01*
X208290476Y-129004761D01*
X208338095Y-128957142D01*
X208385714Y-128861904D01*
X208385714Y-128671428D01*
X208338095Y-128576190D01*
X208290476Y-128528571D01*
X208195238Y-128480952D01*
G04 #@! TO.C,C10*
X208157142Y-119607142D02*
X208109523Y-119654761D01*
X207966666Y-119702380D01*
X207871428Y-119702380D01*
X207728571Y-119654761D01*
X207633333Y-119559523D01*
X207585714Y-119464285D01*
X207538095Y-119273809D01*
X207538095Y-119130952D01*
X207585714Y-118940476D01*
X207633333Y-118845238D01*
X207728571Y-118750000D01*
X207871428Y-118702380D01*
X207966666Y-118702380D01*
X208109523Y-118750000D01*
X208157142Y-118797619D01*
X209109523Y-119702380D02*
X208538095Y-119702380D01*
X208823809Y-119702380D02*
X208823809Y-118702380D01*
X208728571Y-118845238D01*
X208633333Y-118940476D01*
X208538095Y-118988095D01*
X209728571Y-118702380D02*
X209823809Y-118702380D01*
X209919047Y-118750000D01*
X209966666Y-118797619D01*
X210014285Y-118892857D01*
X210061904Y-119083333D01*
X210061904Y-119321428D01*
X210014285Y-119511904D01*
X209966666Y-119607142D01*
X209919047Y-119654761D01*
X209823809Y-119702380D01*
X209728571Y-119702380D01*
X209633333Y-119654761D01*
X209585714Y-119607142D01*
X209538095Y-119511904D01*
X209490476Y-119321428D01*
X209490476Y-119083333D01*
X209538095Y-118892857D01*
X209585714Y-118797619D01*
X209633333Y-118750000D01*
X209728571Y-118702380D01*
G04 #@! TO.C,C11*
X208157142Y-127357142D02*
X208109523Y-127404761D01*
X207966666Y-127452380D01*
X207871428Y-127452380D01*
X207728571Y-127404761D01*
X207633333Y-127309523D01*
X207585714Y-127214285D01*
X207538095Y-127023809D01*
X207538095Y-126880952D01*
X207585714Y-126690476D01*
X207633333Y-126595238D01*
X207728571Y-126500000D01*
X207871428Y-126452380D01*
X207966666Y-126452380D01*
X208109523Y-126500000D01*
X208157142Y-126547619D01*
X209109523Y-127452380D02*
X208538095Y-127452380D01*
X208823809Y-127452380D02*
X208823809Y-126452380D01*
X208728571Y-126595238D01*
X208633333Y-126690476D01*
X208538095Y-126738095D01*
X210061904Y-127452380D02*
X209490476Y-127452380D01*
X209776190Y-127452380D02*
X209776190Y-126452380D01*
X209680952Y-126595238D01*
X209585714Y-126690476D01*
X209490476Y-126738095D01*
G04 #@! TO.C,C13*
X200957142Y-114957142D02*
X200909523Y-115004761D01*
X200766666Y-115052380D01*
X200671428Y-115052380D01*
X200528571Y-115004761D01*
X200433333Y-114909523D01*
X200385714Y-114814285D01*
X200338095Y-114623809D01*
X200338095Y-114480952D01*
X200385714Y-114290476D01*
X200433333Y-114195238D01*
X200528571Y-114100000D01*
X200671428Y-114052380D01*
X200766666Y-114052380D01*
X200909523Y-114100000D01*
X200957142Y-114147619D01*
X201909523Y-115052380D02*
X201338095Y-115052380D01*
X201623809Y-115052380D02*
X201623809Y-114052380D01*
X201528571Y-114195238D01*
X201433333Y-114290476D01*
X201338095Y-114338095D01*
X202242857Y-114052380D02*
X202861904Y-114052380D01*
X202528571Y-114433333D01*
X202671428Y-114433333D01*
X202766666Y-114480952D01*
X202814285Y-114528571D01*
X202861904Y-114623809D01*
X202861904Y-114861904D01*
X202814285Y-114957142D01*
X202766666Y-115004761D01*
X202671428Y-115052380D01*
X202385714Y-115052380D01*
X202290476Y-115004761D01*
X202242857Y-114957142D01*
G04 #@! TO.C,C19*
X212957142Y-127357142D02*
X212909523Y-127404761D01*
X212766666Y-127452380D01*
X212671428Y-127452380D01*
X212528571Y-127404761D01*
X212433333Y-127309523D01*
X212385714Y-127214285D01*
X212338095Y-127023809D01*
X212338095Y-126880952D01*
X212385714Y-126690476D01*
X212433333Y-126595238D01*
X212528571Y-126500000D01*
X212671428Y-126452380D01*
X212766666Y-126452380D01*
X212909523Y-126500000D01*
X212957142Y-126547619D01*
X213909523Y-127452380D02*
X213338095Y-127452380D01*
X213623809Y-127452380D02*
X213623809Y-126452380D01*
X213528571Y-126595238D01*
X213433333Y-126690476D01*
X213338095Y-126738095D01*
X214385714Y-127452380D02*
X214576190Y-127452380D01*
X214671428Y-127404761D01*
X214719047Y-127357142D01*
X214814285Y-127214285D01*
X214861904Y-127023809D01*
X214861904Y-126642857D01*
X214814285Y-126547619D01*
X214766666Y-126500000D01*
X214671428Y-126452380D01*
X214480952Y-126452380D01*
X214385714Y-126500000D01*
X214338095Y-126547619D01*
X214290476Y-126642857D01*
X214290476Y-126880952D01*
X214338095Y-126976190D01*
X214385714Y-127023809D01*
X214480952Y-127071428D01*
X214671428Y-127071428D01*
X214766666Y-127023809D01*
X214814285Y-126976190D01*
X214861904Y-126880952D01*
G04 #@! TO.C,C44*
X198519642Y-116607142D02*
X198472023Y-116654761D01*
X198329166Y-116702380D01*
X198233928Y-116702380D01*
X198091071Y-116654761D01*
X197995833Y-116559523D01*
X197948214Y-116464285D01*
X197900595Y-116273809D01*
X197900595Y-116130952D01*
X197948214Y-115940476D01*
X197995833Y-115845238D01*
X198091071Y-115750000D01*
X198233928Y-115702380D01*
X198329166Y-115702380D01*
X198472023Y-115750000D01*
X198519642Y-115797619D01*
X199376785Y-116035714D02*
X199376785Y-116702380D01*
X199138690Y-115654761D02*
X198900595Y-116369047D01*
X199519642Y-116369047D01*
X200329166Y-116035714D02*
X200329166Y-116702380D01*
X200091071Y-115654761D02*
X199852976Y-116369047D01*
X200472023Y-116369047D01*
G04 #@! TO.C,D2*
X189411904Y-115752380D02*
X189411904Y-114752380D01*
X189650000Y-114752380D01*
X189792857Y-114800000D01*
X189888095Y-114895238D01*
X189935714Y-114990476D01*
X189983333Y-115180952D01*
X189983333Y-115323809D01*
X189935714Y-115514285D01*
X189888095Y-115609523D01*
X189792857Y-115704761D01*
X189650000Y-115752380D01*
X189411904Y-115752380D01*
X190364285Y-114847619D02*
X190411904Y-114800000D01*
X190507142Y-114752380D01*
X190745238Y-114752380D01*
X190840476Y-114800000D01*
X190888095Y-114847619D01*
X190935714Y-114942857D01*
X190935714Y-115038095D01*
X190888095Y-115180952D01*
X190316666Y-115752380D01*
X190935714Y-115752380D01*
G04 #@! TO.C,L1*
X194452380Y-118366666D02*
X194452380Y-118842857D01*
X193452380Y-118842857D01*
X194452380Y-117509523D02*
X194452380Y-118080952D01*
X194452380Y-117795238D02*
X193452380Y-117795238D01*
X193595238Y-117890476D01*
X193690476Y-117985714D01*
X193738095Y-118080952D01*
G04 #@! TO.C,R1*
X186283333Y-126702380D02*
X185950000Y-126226190D01*
X185711904Y-126702380D02*
X185711904Y-125702380D01*
X186092857Y-125702380D01*
X186188095Y-125750000D01*
X186235714Y-125797619D01*
X186283333Y-125892857D01*
X186283333Y-126035714D01*
X186235714Y-126130952D01*
X186188095Y-126178571D01*
X186092857Y-126226190D01*
X185711904Y-126226190D01*
X187235714Y-126702380D02*
X186664285Y-126702380D01*
X186950000Y-126702380D02*
X186950000Y-125702380D01*
X186854761Y-125845238D01*
X186759523Y-125940476D01*
X186664285Y-125988095D01*
G04 #@! TO.C,R2*
X186283333Y-122102380D02*
X185950000Y-121626190D01*
X185711904Y-122102380D02*
X185711904Y-121102380D01*
X186092857Y-121102380D01*
X186188095Y-121150000D01*
X186235714Y-121197619D01*
X186283333Y-121292857D01*
X186283333Y-121435714D01*
X186235714Y-121530952D01*
X186188095Y-121578571D01*
X186092857Y-121626190D01*
X185711904Y-121626190D01*
X186664285Y-121197619D02*
X186711904Y-121150000D01*
X186807142Y-121102380D01*
X187045238Y-121102380D01*
X187140476Y-121150000D01*
X187188095Y-121197619D01*
X187235714Y-121292857D01*
X187235714Y-121388095D01*
X187188095Y-121530952D01*
X186616666Y-122102380D01*
X187235714Y-122102380D01*
G04 #@! TO.C,R3*
X224933333Y-111322380D02*
X224600000Y-110846190D01*
X224361904Y-111322380D02*
X224361904Y-110322380D01*
X224742857Y-110322380D01*
X224838095Y-110370000D01*
X224885714Y-110417619D01*
X224933333Y-110512857D01*
X224933333Y-110655714D01*
X224885714Y-110750952D01*
X224838095Y-110798571D01*
X224742857Y-110846190D01*
X224361904Y-110846190D01*
X225266666Y-110322380D02*
X225885714Y-110322380D01*
X225552380Y-110703333D01*
X225695238Y-110703333D01*
X225790476Y-110750952D01*
X225838095Y-110798571D01*
X225885714Y-110893809D01*
X225885714Y-111131904D01*
X225838095Y-111227142D01*
X225790476Y-111274761D01*
X225695238Y-111322380D01*
X225409523Y-111322380D01*
X225314285Y-111274761D01*
X225266666Y-111227142D01*
G04 #@! TO.C,R4*
X201358333Y-110652380D02*
X201025000Y-110176190D01*
X200786904Y-110652380D02*
X200786904Y-109652380D01*
X201167857Y-109652380D01*
X201263095Y-109700000D01*
X201310714Y-109747619D01*
X201358333Y-109842857D01*
X201358333Y-109985714D01*
X201310714Y-110080952D01*
X201263095Y-110128571D01*
X201167857Y-110176190D01*
X200786904Y-110176190D01*
X202215476Y-109985714D02*
X202215476Y-110652380D01*
X201977380Y-109604761D02*
X201739285Y-110319047D01*
X202358333Y-110319047D01*
G04 #@! TO.C,R14*
X192952380Y-119392857D02*
X192476190Y-119726190D01*
X192952380Y-119964285D02*
X191952380Y-119964285D01*
X191952380Y-119583333D01*
X192000000Y-119488095D01*
X192047619Y-119440476D01*
X192142857Y-119392857D01*
X192285714Y-119392857D01*
X192380952Y-119440476D01*
X192428571Y-119488095D01*
X192476190Y-119583333D01*
X192476190Y-119964285D01*
X192952380Y-118440476D02*
X192952380Y-119011904D01*
X192952380Y-118726190D02*
X191952380Y-118726190D01*
X192095238Y-118821428D01*
X192190476Y-118916666D01*
X192238095Y-119011904D01*
X192285714Y-117583333D02*
X192952380Y-117583333D01*
X191904761Y-117821428D02*
X192619047Y-118059523D01*
X192619047Y-117440476D01*
G04 #@! TO.C,R18*
X189022380Y-129442857D02*
X188546190Y-129776190D01*
X189022380Y-130014285D02*
X188022380Y-130014285D01*
X188022380Y-129633333D01*
X188070000Y-129538095D01*
X188117619Y-129490476D01*
X188212857Y-129442857D01*
X188355714Y-129442857D01*
X188450952Y-129490476D01*
X188498571Y-129538095D01*
X188546190Y-129633333D01*
X188546190Y-130014285D01*
X189022380Y-128490476D02*
X189022380Y-129061904D01*
X189022380Y-128776190D02*
X188022380Y-128776190D01*
X188165238Y-128871428D01*
X188260476Y-128966666D01*
X188308095Y-129061904D01*
X188450952Y-127919047D02*
X188403333Y-128014285D01*
X188355714Y-128061904D01*
X188260476Y-128109523D01*
X188212857Y-128109523D01*
X188117619Y-128061904D01*
X188070000Y-128014285D01*
X188022380Y-127919047D01*
X188022380Y-127728571D01*
X188070000Y-127633333D01*
X188117619Y-127585714D01*
X188212857Y-127538095D01*
X188260476Y-127538095D01*
X188355714Y-127585714D01*
X188403333Y-127633333D01*
X188450952Y-127728571D01*
X188450952Y-127919047D01*
X188498571Y-128014285D01*
X188546190Y-128061904D01*
X188641428Y-128109523D01*
X188831904Y-128109523D01*
X188927142Y-128061904D01*
X188974761Y-128014285D01*
X189022380Y-127919047D01*
X189022380Y-127728571D01*
X188974761Y-127633333D01*
X188927142Y-127585714D01*
X188831904Y-127538095D01*
X188641428Y-127538095D01*
X188546190Y-127585714D01*
X188498571Y-127633333D01*
X188450952Y-127728571D01*
G04 #@! TO.C,U4*
X216114380Y-124142404D02*
X216923904Y-124142404D01*
X217019142Y-124094785D01*
X217066761Y-124047166D01*
X217114380Y-123951928D01*
X217114380Y-123761452D01*
X217066761Y-123666214D01*
X217019142Y-123618595D01*
X216923904Y-123570976D01*
X216114380Y-123570976D01*
X216447714Y-122666214D02*
X217114380Y-122666214D01*
X216066761Y-122904309D02*
X216781047Y-123142404D01*
X216781047Y-122523357D01*
G04 #@! TO.C,Y1*
X206076190Y-124676190D02*
X206552380Y-124676190D01*
X205552380Y-125009523D02*
X206076190Y-124676190D01*
X205552380Y-124342857D01*
X206552380Y-123485714D02*
X206552380Y-124057142D01*
X206552380Y-123771428D02*
X205552380Y-123771428D01*
X205695238Y-123866666D01*
X205790476Y-123961904D01*
X205838095Y-124057142D01*
G04 #@! TO.C,R19*
X195357142Y-123202380D02*
X195023809Y-122726190D01*
X194785714Y-123202380D02*
X194785714Y-122202380D01*
X195166666Y-122202380D01*
X195261904Y-122250000D01*
X195309523Y-122297619D01*
X195357142Y-122392857D01*
X195357142Y-122535714D01*
X195309523Y-122630952D01*
X195261904Y-122678571D01*
X195166666Y-122726190D01*
X194785714Y-122726190D01*
X196309523Y-123202380D02*
X195738095Y-123202380D01*
X196023809Y-123202380D02*
X196023809Y-122202380D01*
X195928571Y-122345238D01*
X195833333Y-122440476D01*
X195738095Y-122488095D01*
X196785714Y-123202380D02*
X196976190Y-123202380D01*
X197071428Y-123154761D01*
X197119047Y-123107142D01*
X197214285Y-122964285D01*
X197261904Y-122773809D01*
X197261904Y-122392857D01*
X197214285Y-122297619D01*
X197166666Y-122250000D01*
X197071428Y-122202380D01*
X196880952Y-122202380D01*
X196785714Y-122250000D01*
X196738095Y-122297619D01*
X196690476Y-122392857D01*
X196690476Y-122630952D01*
X196738095Y-122726190D01*
X196785714Y-122773809D01*
X196880952Y-122821428D01*
X197071428Y-122821428D01*
X197166666Y-122773809D01*
X197214285Y-122726190D01*
X197261904Y-122630952D01*
G04 #@! TO.C,C5*
X198050833Y-130557142D02*
X198003214Y-130604761D01*
X197860357Y-130652380D01*
X197765119Y-130652380D01*
X197622261Y-130604761D01*
X197527023Y-130509523D01*
X197479404Y-130414285D01*
X197431785Y-130223809D01*
X197431785Y-130080952D01*
X197479404Y-129890476D01*
X197527023Y-129795238D01*
X197622261Y-129700000D01*
X197765119Y-129652380D01*
X197860357Y-129652380D01*
X198003214Y-129700000D01*
X198050833Y-129747619D01*
X198955595Y-129652380D02*
X198479404Y-129652380D01*
X198431785Y-130128571D01*
X198479404Y-130080952D01*
X198574642Y-130033333D01*
X198812738Y-130033333D01*
X198907976Y-130080952D01*
X198955595Y-130128571D01*
X199003214Y-130223809D01*
X199003214Y-130461904D01*
X198955595Y-130557142D01*
X198907976Y-130604761D01*
X198812738Y-130652380D01*
X198574642Y-130652380D01*
X198479404Y-130604761D01*
X198431785Y-130557142D01*
G04 #@! TO.C,C6*
X198050833Y-128957142D02*
X198003214Y-129004761D01*
X197860357Y-129052380D01*
X197765119Y-129052380D01*
X197622261Y-129004761D01*
X197527023Y-128909523D01*
X197479404Y-128814285D01*
X197431785Y-128623809D01*
X197431785Y-128480952D01*
X197479404Y-128290476D01*
X197527023Y-128195238D01*
X197622261Y-128100000D01*
X197765119Y-128052380D01*
X197860357Y-128052380D01*
X198003214Y-128100000D01*
X198050833Y-128147619D01*
X198907976Y-128052380D02*
X198717500Y-128052380D01*
X198622261Y-128100000D01*
X198574642Y-128147619D01*
X198479404Y-128290476D01*
X198431785Y-128480952D01*
X198431785Y-128861904D01*
X198479404Y-128957142D01*
X198527023Y-129004761D01*
X198622261Y-129052380D01*
X198812738Y-129052380D01*
X198907976Y-129004761D01*
X198955595Y-128957142D01*
X199003214Y-128861904D01*
X199003214Y-128623809D01*
X198955595Y-128528571D01*
X198907976Y-128480952D01*
X198812738Y-128433333D01*
X198622261Y-128433333D01*
X198527023Y-128480952D01*
X198479404Y-128528571D01*
X198431785Y-128623809D01*
G04 #@! TO.C,J2*
X172934380Y-123523333D02*
X173648666Y-123523333D01*
X173791523Y-123570952D01*
X173886761Y-123666190D01*
X173934380Y-123809047D01*
X173934380Y-123904285D01*
X173029619Y-123094761D02*
X172982000Y-123047142D01*
X172934380Y-122951904D01*
X172934380Y-122713809D01*
X172982000Y-122618571D01*
X173029619Y-122570952D01*
X173124857Y-122523333D01*
X173220095Y-122523333D01*
X173362952Y-122570952D01*
X173934380Y-123142380D01*
X173934380Y-122523333D01*
G04 #@! TD*
M02*
