M48
; DRILL file {KiCad 5.1.10-1.fc33} date Fri Jun 18 23:08:01 2021
; FORMAT={-:-/ absolute / metric / decimal}
; #@! TF.CreationDate,2021-06-18T23:08:01-04:00
; #@! TF.GenerationSoftware,Kicad,Pcbnew,5.1.10-1.fc33
; #@! TF.FileFunction,Plated,1,4,PTH
FMAT,2
METRIC
T1C0.200
T2C0.400
T3C0.500
T4C0.600
T5C1.000
%
G90
G05
T1
X175.26Y-110.299
X176.617Y-118.332
X176.632Y-119.468
X176.667Y-127.332
X176.683Y-128.468
X177.863Y-110.299
X178.589Y-128.33
X178.621Y-118.04
X179.299Y-128.33
X179.331Y-118.04
X179.7Y-115.75
X179.7Y-128.85
X180.0Y-118.7
X180.53Y-110.299
X180.7Y-119.45
X180.7Y-126.8
X181.18Y-122.65
X181.4Y-129.15
X182.12Y-122.75
X182.9Y-110.938
X183.07Y-110.299
X183.4Y-121.0
X183.4Y-121.6
X183.9Y-123.25
X183.95Y-126.65
X184.75Y-122.3
X185.5Y-110.938
X185.547Y-110.299
X186.417Y-121.5
X186.417Y-127.25
X186.6Y-123.2
X186.6Y-124.85
X187.1Y-119.967
X187.592Y-115.1
X188.0Y-110.938
X188.15Y-110.299
X188.542Y-121.408
X189.275Y-117.975
X189.332Y-118.821
X189.6Y-125.3
X190.0Y-128.8
X190.25Y-117.0
X190.312Y-118.872
X190.438Y-123.037
X190.8Y-126.9
X191.35Y-119.45
X191.35Y-121.65
X192.0Y-123.0
X192.0Y-124.6
X192.0Y-125.6
X192.0Y-126.6
X192.021Y-120.49
X192.731Y-120.49
X193.0Y-125.643
X193.2Y-121.65
X193.294Y-109.156
X193.646Y-119.296
X193.65Y-115.277
X194.25Y-110.998
X195.4Y-124.079
X195.484Y-125.496
X195.6Y-121.7
X195.7Y-127.3
X195.7Y-131.3
X196.4Y-121.2
X196.4Y-122.2
X196.723Y-109.728
X197.12Y-127.37
X197.16Y-126.4
X197.368Y-124.092
X197.675Y-125.73
X197.929Y-110.363
X198.142Y-120.458
X198.8Y-130.3
X198.85Y-118.85
X199.582Y-128.468
X199.6Y-127.4
X199.65Y-121.3
X199.65Y-126.733
X199.7Y-118.16
X199.74Y-119.0
X200.25Y-111.506
X200.3Y-124.85
X200.49Y-118.57
X200.6Y-123.65
X200.7Y-121.4
X200.945Y-128.169
X201.3Y-122.75
X201.358Y-112.146
X201.655Y-128.169
X201.692Y-126.733
X202.429Y-121.8
X202.575Y-124.65
X202.917Y-127.332
X203.0Y-121.4
X203.05Y-118.4
X203.05Y-128.2
X203.099Y-111.151
X203.099Y-112.876
X203.772Y-109.122
X203.825Y-125.775
X203.85Y-117.75
X204.25Y-127.5
X204.6Y-119.5
X204.809Y-125.95
X205.232Y-119.99
X205.25Y-114.5
X205.32Y-124.64
X205.519Y-125.95
X205.7Y-121.25
X205.7Y-122.3
X205.85Y-116.2
X205.85Y-116.8
X206.4Y-120.6
X206.4Y-121.75
X206.4Y-123.0
X206.4Y-126.15
X206.567Y-125.382
X207.073Y-109.122
X207.887Y-121.512
X208.822Y-115.328
X208.9Y-118.6
X208.95Y-116.2
X209.9Y-124.95
X210.125Y-115.175
X210.375Y-109.122
X210.65Y-117.1
X211.045Y-119.555
X211.75Y-115.25
X212.0Y-125.7
X212.85Y-123.0
X213.35Y-116.4
X213.677Y-109.122
X213.8Y-120.5
X214.2Y-114.9
X214.55Y-118.05
X215.2Y-125.7
X215.924Y-123.1
X216.5Y-111.22
X216.575Y-118.075
X216.612Y-117.037
X216.98Y-109.122
X218.13Y-123.642
X219.13Y-120.158
X219.14Y-127.086
X219.233Y-111.156
X221.488Y-127.0
X221.851Y-122.89
X221.854Y-119.89
X222.7Y-109.728
X223.868Y-125.89
X226.7Y-112.3
T2
X178.31Y-120.79
X178.31Y-121.59
X178.31Y-122.39
X178.31Y-123.99
X178.31Y-124.79
X178.31Y-125.59
X179.01Y-120.39
X179.01Y-121.99
X179.01Y-122.79
X179.01Y-123.59
X179.01Y-124.39
X179.01Y-125.99
T5
X174.01Y-112.4
X176.55Y-112.4
X179.09Y-112.4
X181.63Y-112.4
X184.17Y-112.4
X186.71Y-112.4
X189.25Y-112.4
X193.0Y-112.4
X195.54Y-112.4
X205.09Y-112.4
X207.63Y-112.4
X210.17Y-112.4
X212.71Y-112.4
X215.25Y-112.4
X217.79Y-112.4
X220.33Y-112.4
T3
G00X174.32Y-118.7
M15
G01X173.72Y-118.7
M16
G05
G00X174.32Y-127.68
M15
G01X173.72Y-127.68
M16
G05
G00X178.71Y-119.06
M15
G01X178.11Y-119.06
M16
G05
G00X178.71Y-127.32
M15
G01X178.11Y-127.32
M16
G05
T4
G00X223.865Y-116.49
M15
G01X225.765Y-116.49
M16
G05
G00X223.865Y-129.29
M15
G01X225.765Y-129.29
M16
G05
T0
M30
